/* XPM */
static char *result[] = {
/* columns rows colors chars-per-pixel */
"60 60 206 2 ",
"   c #0B2A44",
".  c #002C4D",
"X  c #0B335D",
"o  c #153655",
"O  c #243D5C",
"+  c #073966",
"@  c #173C62",
"#  c #1F3F72",
"$  c #14425E",
"%  c #27455D",
"&  c #36455C",
"*  c #084366",
"=  c #194665",
"-  c #0E4871",
";  c #1B4F77",
":  c #1C4C75",
">  c #195577",
",  c #1E5179",
"<  c #264A69",
"1  c #29556B",
"2  c #37536E",
"3  c #2A5575",
"4  c #285779",
"5  c #2C5B7A",
"6  c #325075",
"7  c #375B77",
"8  c #355D7B",
"9  c #4A5154",
"0  c #45637B",
"q  c #4A627A",
"w  c #546076",
"e  c #65676C",
"r  c #1C4E81",
"t  c #0D5485",
"y  c #185884",
"u  c #11558B",
"i  c #275987",
"p  c #3D5F8B",
"a  c #1D659F",
"s  c #296387",
"d  c #346482",
"f  c #3A6886",
"g  c #33668A",
"h  c #3E6E8E",
"j  c #3A7182",
"k  c #2A659A",
"l  c #366A99",
"z  c #2E7599",
"x  c #377599",
"c  c #2F6AA4",
"v  c #2D71A5",
"b  c #3677A6",
"n  c #387BA6",
"m  c #327AB3",
"M  c #456A88",
"N  c #526B83",
"B  c #48748B",
"V  c #577586",
"C  c #547288",
"Z  c #466D92",
"A  c #437796",
"S  c #44759E",
"D  c #4B7E99",
"F  c #537D9C",
"G  c #657B97",
"H  c #417EAD",
"J  c #587DA5",
"K  c #3F85A9",
"L  c #538497",
"P  c #7C8289",
"I  c #6A869D",
"U  c #70899F",
"Y  c #4582A0",
"T  c #4787A9",
"R  c #5885A8",
"E  c #4F91A8",
"W  c #5993A9",
"Q  c #5E8DB7",
"!  c #6B8CAB",
"~  c #728DA7",
"^  c #6797A5",
"/  c #7696AB",
"(  c #6594B5",
")  c #659DB7",
"_  c #7C90B1",
"`  c #58A3B3",
"'  c #6FA0A7",
"]  c #6BA8B8",
"[  c #7DB8BE",
"{  c #5D97C9",
"}  c #6C9EC1",
"|  c #5DA0CB",
" . c #6AA5C9",
".. c #78A8C3",
"X. c #77B9D3",
"o. c #74BCE4",
"O. c #7AC0D3",
"+. c #9E968F",
"@. c #95999D",
"#. c #A9A19B",
"$. c #B8B09F",
"%. c #8598AB",
"&. c #829EB4",
"*. c #9CA4A5",
"=. c #9CA9AA",
"-. c #8CA3B6",
";. c #96A8B4",
":. c #AEB4BA",
">. c #E3BA8F",
",. c #E6BE93",
"<. c #C8BAAA",
"1. c #EAC397",
"2. c #EEC79A",
"3. c #EFCA9E",
"4. c #F2CB9E",
"5. c #C9C2B5",
"6. c #D5C6B1",
"7. c #EFCEA2",
"8. c #EBCEAC",
"9. c #F4CFA2",
"0. c #EFD1A6",
"q. c #EED2AF",
"w. c #F6D3A7",
"e. c #F7D7AA",
"r. c #F8D7AB",
"t. c #F7D9AC",
"y. c #F8DAAE",
"u. c #E9CEB2",
"i. c #EDD7B7",
"p. c #E4D2BC",
"a. c #F6DAB4",
"s. c #F1DBBA",
"d. c #9FAEC3",
"f. c #89B6CD",
"g. c #9AB7CA",
"h. c #ABAEC1",
"j. c #A3B9C6",
"k. c #B6BFD2",
"l. c #89C4D8",
"z. c #97C8D7",
"x. c #9ED5DD",
"c. c #AEC6DC",
"v. c #BAC5D9",
"b. c #B0CDDD",
"n. c #A1D2D9",
"m. c #BBD0DF",
"M. c #9EE0DF",
"N. c #85C4E1",
"B. c #92CBE6",
"V. c #89D4E6",
"C. c #9BD2E6",
"Z. c #8BCCF8",
"A. c #9EDCF4",
"S. c #ACCDE2",
"D. c #BCCBE3",
"F. c #A5D4E4",
"G. c #A3DDEC",
"H. c #BBD4EA",
"J. c #B5DBFD",
"K. c #B1E5EC",
"L. c #B8F3EF",
"P. c #A8E7FA",
"I. c #A2ECFF",
"U. c #B5EAF7",
"Y. c #BEEEFD",
"T. c #B7F5F9",
"R. c #BDF3FF",
"E. c #B7FFFF",
"W. c #BCFDFF",
"Q. c #C8C9C8",
"!. c #D5D4CB",
"~. c #C4CCD7",
"^. c #D7D7D4",
"/. c #DADED9",
"(. c #EBDDC2",
"). c #E6DEC9",
"_. c #E3DBD7",
"`. c #ECE0CD",
"'. c #EDEAD6",
"]. c #C7D7E7",
"[. c #CCE8EF",
"{. c #DEE9E6",
"}. c #CEFCEF",
"|. c #C8E5F7",
" X c #C2ECFE",
".X c #CDF5F4",
"XX c #CCFAF5",
"oX c #C3F5FB",
"OX c #C6FBF9",
"+X c #C4FDFE",
"@X c #CCFEFE",
"#X c #D3F5F3",
"$X c #D7F8F7",
"%X c #D4FEFE",
"&X c #DBFDFE",
"*X c #E6E9E9",
"=X c #E3FDF6",
"-X c #ECFEF4",
";X c #E6F4FD",
":X c #E4FEFD",
">X c #ECFFFF",
",X c #F5FEF5",
"<X c #FCFEF5",
"1X c #FFF7FF",
"2X c #F4FEFD",
"3X c #FDFEFD",
/* pixels */
"w.9.2.2.9.w.e.w.w.4.r.4.4.2.w.w.r.w.r.r.w.9.9.9.e.e.w.w.9.w.4.4.4.9.w.w.w.9.w.w.r.9.4.e.w.w.r.r.w.w.9.9.w.r.w.w.e.e.w.w.",
"w.e.w.w.w.r.w.9.4.4.w.r.w.w.w.r.w.4.r.r.9.9.w.e.w.e.4.w.9.w.e.4.9.w.w.w.w.w.r.w.w.w.w.w.w.w.w.r.r.4.w.w.w.r.w.w.w.e.w.4.",
"w.e.w.w.w.w.w.9.w.w.w.r.w.r.w.4.4.w.4.r.w.9.e.e.w.9.9.9.w.e.w.9.w.e.w.4.w.w.w.w.4.w.w.e.w.4.4.w.4.4.9.w.w.w.4.4.4.e.w.w.",
"w.9.9.w.w.w.w.w.w.w.9.4.w.4.w.w.w.4.w.w.w.w.e.e.e.9.9.9.4.4.w.e.e.r.e.w.w.w.w.w.9.4.w.w.w.w.w.4.4.1.4.4.4.4.r.w.7.w.w.w.",
"w.w.w.w.4.4.w.w.r.w.w.w.r.4.4.4.w.w.w.4.w.w.9.9.w.e.e.w.w.9.w.w.9.9.w.w.w.e.9.w.w.w.4.4.w.w.w.4.4.4.4.2.1.4.r.w.w.4.w.w.",
"w.e.e.w.w.w.w.4.4.9.w.r.r.w.r.w.w.w.w.w.r.r.w.9.w.w.w.w.w.w.e.w.9.w.r.w.4.4.9.w.r.r.w.w.4.4.4.w.w.w.9.4.4.4.9.w.w.w.w.e.",
"w.w.w.w.w.w.w.w.w.w.w.w.w.4.4.w.4.w.4.r.w.w.w.w.e.w.4.9.w.e.w.e.w.w.r.w.w.4.w.e.w.e.9.9.r.4.4.4.9.4.2.4.4.w.9.4.4.e.r.r.",
"w.w.4.4.w.9.4.w.r.w.w.4.4.r.w.w.4.w.w.w.w.4.4.r.e.w.w.0.w.w.w.4.w.r.w.w.w.r.w.w.4.9.w.9.4.w.w.w.9.4.4.4.9.4.4.9.w.e.w.4.",
"w.9.w.w.w.w.w.w.w.w.w.4.w.w.w.w.9.w.w.w.w.7.9.w.w.9.w.w.w.w.w.9.w.e.w.9.w.e.w.w.4.w.w.w.4.w.w.w.r.9.9.4.4.4.4.4.e.e.e.w.",
"9.w.w.9.w.w.w.w.9.9.9.w.w.4.w.w.w.9.9.9.t.w.w.9.0.w.9.9.9.9 $.w.9.w.w.w.w.9.4.w.w.w.w.w.w.w.r.r.w.w.9.4.4.w.e.w.4.4.w.e.",
"9.4.9.w.w.w.w.w.4.w.w.4.w.w.w.w.w.9.9.w.w.w.7.7.w.w.w.7.w.*.;.~ u.9.w.w.w.9.9.9.w.w.w.w.w.w.w.r.w.w.w.w.r.w.w.9.9.w.w.r.",
"w.w.w.w.w.w.4.4.4.w.w.w.w.w.w.w.9.9.w.t.9.9.w.t.e.9.w.w.e.(.L M < ;.w.w.4.9.w.w.w.w.w.w.w.4.4.w.w.w.w.r.w.w.9.w.e.e.4.4.",
"w.w.w.w.w.4.w.w.w.w.w.w.w.w.w.w.4.7.w.w.w.9.w.y.e.9.9.w.(.%Xx } Z = N u.w.w.w.w.w.w.w.4.w.w.9.w.r.w.w.w.w.w.9.9.w.4.2.2.",
"4.w.w.w.9.w.w.w.w.w.w.w.r.w.9.9.w.e.9.3.4.w.w.w.w.9.+.& < ; l v k * $ =.w.w.w.9.w.w.4.e.w.w.w.9.9.w.e.r.9.9.w.w.w.4.2.2.",
"w.w.w.w.w.4.w.4.4.2.2.w.r.w.9.w.w.w.e.w.e.w.4.7.9.w.e   . + k t v | ] % $.w.4.w.r.w.w.w.w.w.4.4.4.4.w.r.w.w.9.9.9.9.9.w.",
"w.r.r.w.w.w.w.4.,.>.,.,.2.4.9.w.9.9.w.t.e.w.w.w.e.w.<.q R l K o.Z.A.( 1 9.4.w.r.r.w.4.w.9.2.1.>.,.1.2.2.4.w.4.4.4.w.w.9.",
"9.r.4.4.4.w.w.4.2.1.2.4.4.4.w.w.w.7.w.e.w.4.r.r.r.w.4.s.|.( G.@X+XQ ! /.w.w.w.9.9.9.9.w.w.9.2.2.2.4.4.2.9.w.w.4.9.9.4.4.",
"r.4.w.w.w.r.4.w.w.r.4.4.4.4.4.w.9.w.e.e.w.4.4.r.w.w.j.S.F M R.+XY.R J.4.w.r.e.9.9.9.w.9.9.w.w.w.4.4.4.2.9.w.9.w.w.w.4.2.",
"w.w.w.r.w.4.w.w.r.r.r.4.2.4.4.4.9.9.9.w.r.w.4.r.w.*.= - R B.+X+Xz.$ f / %.e.4.w.w.w.w.w.9.w.w.e.w.4.4.1.2.4.9.w.w.r.w.w.",
"4.4.w.w.w.r.w.w.9.4.4.4.1.2.w.w.w.9.4.9.r.w.w.<.w.~ s n N.@XL.+XG.j d f   U 9.9.w.w.w.w.w.w.w.9.w.9.2.4.w.w.w.w.w.r.w.9.",
"w.w.4.w.r.w.w.w.9.9.r.9.w.w.w.w.w.w.w.r.r.w.w.q.h.-.- K B.oX%X+X+XP.] ` h o I e.w.w.w.w.w.w.9.9.w.w.w.w.w.w.w.w.w.r.w.4.",
"r.w.r.r.9.r.4.4.9.9.4.r.w.w.w.w.9.9.w.e.w.9.w.w.w.c.Y N.@X%X.X@Xx.P.O.X.Y g O k.w.w.w.w.w.4.4.9.w.r.r.w.w.w.w.9.w.w.9.9.",
"r.4.9.r.r.9.4.r.9.4.2.2.4.9.9.r.w.w.w.w.9.9.w.w.w.m.^ R.%X=X:X%X' ] V.V.T z 1 D.w.w.w.w.w.w.w.w.9.4.w.w.w.w.w.w.9.2.2.2.",
"4.r.r.r.9.9.9.9.r.4.2.4.9.1.1.4.w.e.w.w.q.p.&.S.|.-.n.%X>X,X-X#X[.U.W.E.I.E < v.e.e.w.9.w.w.w.w.w.w.w.w.4.9.w.w.w.4.2.4.",
"1.1.4.4.9.9.4.4.4.w.w.w.4.4.4.4.4.4.4.6.O @ Q g 1 ' K.&X2X2X,X-X#X@XU.I.E. .L ^.2.4.9.9.w.9.4.9.w.w.w.w.w.9.9.4.9.w.w.w.",
",.1.2.4.4.r.w.4.4.w.4.9.2.4.9.w.w.w.4.5.o r c n l.K.%X>X3X3X,X,X-X&Xl.E ` x oX1.2.4.4.w.w.9.9.w.w.w.w.w.w.w.9.4.9.9.9.2.",
"4.4.4.9.9.r.w.9.w.4.4.4.2.4.9.4.4.e.e.w.g.+ k | E.@X:X2X3X3X,X,X,X=XoX..s * ..s.4.4.9.w.w.w.r.w.w.9.4.w.9.9.9.9.w.9.4.2.",
"w.4.4.4.4.9.4.w.e.w.w.4.4.4.4.4.4.e.w.w.b.< l Z.+X%X>X3X3X3X,X,X2X>X:XoX..5 8 f.w.2.4.9.w.w.w.w.w.w.w.w.w.9.4.w.w.w.9.9.",
"w.9.2.2.4.4.w.w.e.e.w.w.4.4.4.w.e.e.y.9.).C 4 L XX=X3X3X3X3X3X3X3X2X:X&X Xl.R 7 ;.2.2.4.w.w.w.9.9.9.w.w.w.w.w.w.w.r.w.w.",
"w.9.4.4.9.e.e.w.e.e.w.4.w.w.e.w.G Z 8 M {.*X5 F .X-X3X<X3X3X3X3X3X2X>X#X@X@XoXz.q 9.4.w.w.w.9.9.9.4.9.9.r.w.w.w.r.r.w.9.",
"w.r.w.w.w.w.9.4.w.w.w.w.w.e.w.@.@ i y * M H.A Q &X>X3X,X3X3X3X1X3X3X=X=X%XoX@XF./ e.w.w.w.9.9.w.w.w.w.w.9.w.w.w.w.w.w.w.",
"w.w.w.w.w.w.9.9.4.4.2.4.4.w.w.P # b v b : = j U.%X:X,X,X3X3X3X1X3X3X3X$X#X@X@X^ ^ 4.w.w.9.9.9.w.w.w.w.w.w.w.9.9.w.w.w.w.",
"9.w.w.w.4.w.w.w.w.4.4.4.4.4.2.0.< 4 l H B.) [ OXXX=X,X<X,X<X3X3X3X3X,X3X>X%X@Xz.V w.4.2.9.r.w.w.9.w.w.w.9.9.w.w.w.9.9.w.",
"9.w.w.w.w.w.w.4.4.9.4.4.w.4.2.4.p.1 p S R.+XL.%X}.=X3X<X,X3X3X3X3X3X<X3X>X&X%X^ 0 7.2.2.9.w.w.9.w.w.w.w.w.w.w.w.w.9.w.w.",
"w.r.r.w.w.4.w.9.4.w.4.w.4.2.9.9.3.4.s.I z.W.+XXX%X2X3X3X3X3X3X3X1X3X<X<X3X:X XW g :.4.4.9.9.2.9.w.e.w.w.9.w.9.9.4.w.w.r.",
"w.w.4.w.w.w.4.4.w.w.4.4.4.4.9.9.4.9.w.j.j +X@X.X>X3X1X1X3X3X3X3X3X1X<X1X3X:X@XB.x @ #.<.w.9.9.w.w.w.9.9.9.w.w.9.w.w.w.w.",
"w.4.4.r.w.4.4.w.w.w.4.2.4.4.4.4.9.9.w.^.5 f.@X&X2X3X1X3X3X3X3X3X2X3X1X3X3X&X@X .4 @ 2 w 9.w.r.w.w.9.9.w.w.w.4.e.w.w.9.4.",
"w.w.w.w.w.4.4.w.w.r.w.9.9.4.2.9.9.w.e.%.> X.+X#X2X3X3X3X3X3X3X3X3X2X<X3X2X&XU.D h 8.<.q.4.w.w.w.w.w.w.w.w.9.9.w.w.w.w.w.",
"4.4.w.w.r.w.w.w.w.r.r.9.9.w.w.r.w.w.e.a.( ) %XXX=X>X3X,X3X3X<X3X3X3X3X,X2X#X..= ).w.w.w.w.w.9.9.9.9.w.w.w.e.w.w.w.4.9.9.",
"w.w.w.w.w.w.w.w.w.r.w.9.w.w.w.e.w.e.e.e.!.5 x.+X$X:X2X,X<X<X3X<X3X3X3X,X>X&XU.B w.w.w.w.w.w.w.w.9.4.w.9.w.w.w.w.w.w.9.9.",
"w.9.w.w.e.w.4.4.9.r.e.w.e.w.w.9.9.9.w.9.(.< 1 W A. X:X2X<X3X<X1X3X1X3X2X&X%X@X! !.w.w.w.9.9.9.9.4.4.w.w.w.4.4.4.3.w.w.w.",
"9.w.w.e.e.e.w.w.w.9.w.w.w.e.w.w.w.w.;.:.:.q . : > (  X;X3X3X3X2X3X2X2X:XXX+XC.J q v.w.w.w.9.9.9.2.2.4.w.4.w.w.w.w.9.9.w.",
"9.w.w.4.4.w.e.e.w.4.w.w.e.w.w.9.w.Z i p 6 Q.6 @ + d J.@X:X>X&X>X2X:X&XXX@XA.T : o O _.9.w.w.w.9.2.4.4.4.2.4.w.w.w.9.w.w.",
"w.e.e.w.4.w.w.4.4.1.1.4.4.w.9.9.N l c k Z 9.~ 2 7 F J } @X%XXX&X%X%X@X@XA.K u + X _ a.9.9.9.9.9.w.w.w.2.2.9.w.w.w.w.w.t.",
"e.w.w.e.y.e.w.2.,.,.>.1.2.2.w.e.*.8 H k 0 9.2.s.(.'.f.) $Xn.OX+XM.T.@XA.H c m u i J.w.w.9.9.9.9.w.4.2.2.4.w.9.9.0.e.w.t.",
"w.w.9.w.e.w.w.4.4.4.4.4.4.4.w.w.9.=.= 3 5.1.2.4.9.9.[./ z.L L.E.` `  .R r k a m { M ^.9.9.9.9.9.4.3.2.4.9.3.9.9.9.w.w.9.",
"w.9.7.9.e.w.9.w.e.w.9.4.9.4.4.w.9.w.i.w.9.9.4.9.3.4.w./.;XV B Y x x Z p # + t m { - j.w.9.9.w.w.w.9.9.9.3.2.3.9.w.w.w.0.",
"w.e.w.w.w.w.e.e.e.w.w.4.1.1.4.9.w.w.w.e.9.9.w.3.w.w.w.y.w.*XI 1 S , F -X|.X s z x l H.w.w.w.w.w.t.w.9.9.3.9.w.w.w.4.w.t.",
"w.e.w.9.7.w.w.w.w.w.w.4.3.4.w.e.w.w.r.e.w.4.9.w.e.e.w.w.w.w.a.~.].d.k.e.u.! 3 A d ..e.w.e.w.r.r.w.9.4.w.w.e.e.w.9.w.w.w.",
"w.w.9.w.w.w.w.9.4.w.w.w.w.w.w.w.w.w.9.e.w.w.r.w.w.9.4.9.9.w.w.w.9.e.~.& p.b.% 0 C /.9.w.w.4.4.e.w.9.w.w.w.w.w.4.w.w.w.3.",
"w.w.9.w.e.w.9.9.3.w.w.w.w.w.w.w.4.w.w.e.w.w.r.w.w.9.4.4.9.w.w.w.e.r.:.;X3.w.*X*X`.w.w.w.4.4.9.e.e.w.w.e.e.e.9.4.w.w.w.0.",
"w.e.r.w.w.9.w.w.w.w.w.e.e.e.w.4.w.w.w.w.w.e.r.w.9.9.w.w.9.9.w.w.e.e.e.w.w.w.e.e.w.w.9.w.w.w.w.4.9.w.w.e.e.w.w.w.w.0.4.w.",
"2.4.w.w.9.9.w.9.3.3.3.9.w.w.w.4.w.4.4.4.4.9.e.w.9.w.e.w.w.7.e.w.4.w.w.w.w.w.w.w.e.w.9.4.w.w.w.w.9.w.w.9.4.w.e.e.w.0.w.w.",
"1.1.4.4.w.w.w.4.1.>.1.1.3.4.w.w.4.2.,.>.1.4.4.9.w.9.9.w.e.e.e.w.w.w.w.w.3.9.4.e.e.e.w.w.w.w.w.e.e.e.w.7.w.w.w.9.w.e.e.w.",
"1.,.1.4.9.w.w.2.1.,.1.2.3.3.w.w.w.2.>.2.2.2.2.4.w.w.7.3.w.w.w.9.w.w.w.w.4.w.w.w.w.w.4.w.w.4.3.w.w.w.w.w.e.e.w.4.3.e.e.w.",
"9.9.4.4.4.w.w.w.w.w.4.4.3.3.w.w.w.w.w.4.4.4.4.4.w.w.w.e.w.w.9.3.w.e.w.w.e.e.w.w.4.4.w.w.9.4.w.e.w.7.4.7.w.w.w.w.e.w.w.3.",
"w.w.2.1.1.3.w.w.e.w.w.3.2.1.2.3.w.e.e.w.w.3.1.1.3.3.9.9.9.w.e.0.4.w.w.w.w.w.w.w.w.w.9.9.3.9.9.9.w.w.w.w.w.w.7.7.w.w.w.w.",
"9.7.1.1.3.7.w.7.w.w.w.3.1.2.3.w.w.4.4.9.3.2.1.3.9.w.9.3.3.w.0.w.4.3.9.4.w.3.3.3.4.9.0.w.w.9.3.3.w.w.0.3.3.4.w.3.3.4.w.w.",
"3.7.4.3.9.w.0.3.3.3.3.0.3.3.7.w.3.3.3.w.3.0.3.7.9.9.7.7.7.0.7.7.3.0.7.w.3.3.3.3.3.3.7.9.0.3.0.0.0.0.7.3.7.0.0.4.3.0.0.3.",
"3.3.7.7.7.3.3.2.3.3.3.0.0.3.3.3.3.3.2.3.0.3.0.7.7.3.3.7.7.3.1.2.0.3.3.3.3.3.3.0.3.0.7.3.3.3.3.0.0.3.3.7.7.3.3.3.7.0.0.3."
};
