/* XPM */
static char *result[] = {
/* columns rows colors chars-per-pixel */
"60 60 211 2 ",
"   c #252733",
".  c #042C57",
"X  c #003B59",
"o  c #163355",
"O  c #243B4B",
"+  c #233A5E",
"@  c #092F61",
"#  c #073D6D",
"$  c #153A66",
"%  c #0E3F78",
"&  c #283D68",
"*  c #124854",
"=  c #364358",
"-  c #05426A",
";  c #17486A",
":  c #1B536C",
">  c #074176",
",  c #184774",
"<  c #1F5473",
"1  c #185873",
"2  c #254766",
"3  c #254B64",
"4  c #2C4E6E",
"5  c #364A67",
"6  c #2B576A",
"7  c #36586C",
"8  c #264B77",
"9  c #2E5974",
"0  c #235578",
"q  c #315373",
"w  c #3C5574",
"e  c #3E5978",
"r  c #4A5468",
"t  c #475A78",
"y  c #5F626B",
"u  c #5A6376",
"i  c #636979",
"p  c #847D7D",
"a  c #184E83",
"s  c #1A598B",
"d  c #295686",
"f  c #255B85",
"g  c #315D89",
"h  c #25638B",
"j  c #376983",
"k  c #366289",
"l  c #2F768C",
"z  c #2C6492",
"x  c #2D6C91",
"c  c #397697",
"v  c #34709E",
"b  c #3F7E9F",
"n  c #2C71A7",
"m  c #3173A4",
"M  c #3979A2",
"N  c #4C6A87",
"B  c #416A8B",
"V  c #556C89",
"C  c #5B768D",
"Z  c #436F96",
"A  c #556F94",
"S  c #42749C",
"D  c #497B98",
"F  c #5C7493",
"G  c #5B7D93",
"H  c #66798C",
"J  c #6F798F",
"K  c #527EA5",
"L  c #3F84B7",
"P  c #45849C",
"I  c #5B8296",
"U  c #678394",
"Y  c #7D8B99",
"T  c #72919A",
"R  c #4C85A6",
"E  c #4988A7",
"W  c #5482A4",
"Q  c #5F84A7",
"!  c #5789A9",
"~  c #5998AE",
"^  c #4B8DB4",
"/  c #4A97B2",
"(  c #6185A9",
")  c #6B97A6",
"_  c #7F92A1",
"`  c #649BB9",
"'  c #759AB7",
"]  c #70A1AF",
"[  c #69A4B3",
"{  c #7BADB8",
"}  c #4A8CC0",
"|  c #509FCA",
" . c #649AC7",
".. c #7599C4",
"X. c #69A8C8",
"o. c #7CB4CB",
"O. c #76BCCC",
"+. c #73AFD3",
"@. c #74B5D8",
"#. c #70B5E5",
"$. c #7FC5DF",
"%. c #78C6E5",
"&. c #9B9C9E",
"*. c #A09D90",
"=. c #828EA6",
"-. c #879CA6",
";. c #8BA5A9",
":. c #9CA5AB",
">. c #89A4BA",
",. c #8FAFB8",
"<. c #AFACA3",
"1. c #B1AFB0",
"2. c #BAB9B5",
"3. c #E3BA8F",
"4. c #E6BE93",
"5. c #C5B3A2",
"6. c #D3BCA0",
"7. c #EAC297",
"8. c #EEC79A",
"9. c #EFCA9E",
"0. c #F2CB9E",
"q. c #D3C1AD",
"w. c #CCC4B7",
"e. c #D0C4BB",
"r. c #EFCEA2",
"t. c #F4CFA2",
"y. c #EFD1A6",
"u. c #EED3AF",
"i. c #F6D3A7",
"p. c #F7D7AA",
"a. c #F8D7AB",
"s. c #F7D9AC",
"d. c #F8DAAE",
"f. c #E0CEB7",
"g. c #EAD4B9",
"h. c #F3D6B3",
"j. c #F3D9B6",
"k. c #8DADC2",
"l. c #9FAFC6",
"z. c #8FB0C3",
"x. c #93AFD7",
"c. c #8DBBD9",
"v. c #97BAD2",
"b. c #A2BACA",
"n. c #B9BAC3",
"m. c #9FBDE1",
"M. c #8BC6C7",
"N. c #88C4D6",
"B. c #99CDDC",
"V. c #96D8DA",
"C. c #B8C4CD",
"Z. c #AAC5D6",
"A. c #93CEE9",
"S. c #85D4E0",
"D. c #99D7EB",
"F. c #98D9F4",
"G. c #ACCBE0",
"H. c #BECDE4",
"J. c #AED7EB",
"K. c #A2DEED",
"L. c #BAD5E9",
"P. c #ABDBF2",
"I. c #B7E4EF",
"U. c #BEFCEF",
"Y. c #ABE4F6",
"T. c #B2EAFF",
"R. c #BCE8F9",
"E. c #AAF1FF",
"W. c #B7F3FE",
"Q. c #BAFDFA",
"!. c #BCFDFF",
"~. c #CAC9C3",
"^. c #DAD4CF",
"/. c #C4CAD8",
"(. c #C9D4D8",
"). c #D4D9DE",
"_. c #E7D8C5",
"`. c #ECDCC3",
"'. c #F2DFC7",
"]. c #F4E3CB",
"[. c #C5D7E9",
"{. c #D0DAEA",
"}. c #C2D6FA",
"|. c #DCE9E8",
" X c #C3F1EF",
".X c #D6F5EE",
"XX c #C9E6FC",
"oX c #D4E5F5",
"OX c #C3FCF3",
"+X c #C4F6FD",
"@X c #CCF6FD",
"#X c #C4FDFD",
"$X c #CCFCFD",
"%X c #D9F7F4",
"&X c #D4FAF4",
"*X c #D1F5FE",
"=X c #D3FEFD",
"-X c #DBFEFE",
";X c #E6E9EB",
":X c #E5ECFC",
">X c #E3F9F7",
",X c #EDFFF7",
"<X c #E2F6FE",
"1X c #EDF6FD",
"2X c #E3FEFE",
"3X c #ECFFFD",
"4X c #F3FCF6",
"5X c #FAFDF6",
"6X c #FDF5FB",
"7X c #F4FFFE",
"8X c #FCFEFD",
/* pixels */
"i.t.0.8.t.i.p.i.t.t.i.0.0.8.i.i.a.i.a.a.i.t.t.t.p.a.i.i.0.i.0.0.0.0.i.i.i.i.i.i.p.t.0.i.i.i.a.a.i.i.t.t.i.a.i.i.p.p.i.t.",
"i.p.i.i.i.p.i.t.t.t.i.a.i.i.i.i.i.t.i.a.t.t.i.p.i.p.i.t.0.i.p.0.i.i.i.i.i.i.i.i.i.i.i.i.i.i.i.a.a.0.i.i.i.a.i.i.i.p.i.0.",
"i.p.i.i.i.i.i.0.t.i.i.a.i.i.i.t.t.t.t.a.i.t.p.p.i.0.t.t.t.p.i.i.i.p.i.0.i.i.i.i.0.i.i.p.i.0.0.i.0.0.0.i.i.i.0.0.0.p.i.i.",
"i.t.t.i.i.i.i.i.i.i.t.t.i.0.i.i.t.t.i.t.y.i.i.p.p.i.t.t.t.t.i.i.p.p.a.i.i.i.i.i.i.0.i.i.i.i.i.0.0.8.0.0.0.t.i.i.r.i.i.i.",
"i.i.i.i.0.0.i.i.i.a.i.i.i.t.0.t.i.i.i.t.t.i.t.t.0.p.p.i.0.i.i.i.t.t.i.i.p.p.t.i.i.i.0.0.i.i.i.0.0.0.0.8.8.0.i.i.i.0.i.i.",
"i.a.p.i.i.i.i.0.0.t.i.a.a.i.i.i.i.i.i.i.a.a.i.t.p.i.i.i.i.p.i.i.t.i.a.i.0.0.t.i.p.i.i.i.0.0.0.i.i.i.t.0.0.0.t.i.i.i.i.a.",
"i.i.i.i.i.i.i.i.i.i.i.i.i.t.t.i.t.i.t.a.i.i.i.i.p.i.i.0.i.p.i.p.i.i.a.i.i.0.i.p.i.t.t.0.i.0.t.0.t.t.0.8.0.i.t.0.0.a.a.a.",
"i.i.0.0.i.t.0.i.a.i.i.0.0.i.i.i.t.t.i.i.i.0.t.a.p.i.0.i.p.i.t.r.i.a.i.i.i.a.i.i.0.i.i.i.0.i.i.i.t.0.0.0.t.0.0.t.i.p.i.0.",
"i.t.i.i.i.i.i.i.i.i.i.0.i.i.i.t.t.i.i.i.i.r.t.i.i.i.i.i.i.i.y 6.i.p.i.t.i.p.i.i.0.i.i.i.0.i.i.i.i.t.t.0.0.0.0.0.p.p.p.i.",
"0.i.i.i.i.i.i.i.t.t.0.i.i.0.i.i.i.t.t.t.s.i.i.t.y.i.t.0.i.&.d c c i.i.i.i.t.0.i.i.i.i.i.i.i.a.a.i.i.t.0.0.i.p.i.0.0.i.p.",
"t.0.t.i.i.i.i.i.0.i.i.t.i.i.i.i.i.t.t.i.i.i.t.r.i.i.i.2.g M } #.m *.i.i.i.t.t.0.i.i.i.i.i.i.i.a.i.i.i.i.p.i.i.t.t.i.i.p.",
"i.i.i.i.i.i.0.0.0.i.i.i.i.i.i.t.t.t.i.s.t.t.i.a.p.t.t . # m n | ^ I i.i.0.t.i.i.i.i.i.i.i.0.0.i.i.i.i.a.i.i.t.i.p.i.0.t.",
"i.i.i.i.i.0.i.i.i.i.a.i.i.i.i.i.t.r.i.i.i.t.i.a.a.t.A 8 a s / %.$.` 0.i.i.i.i.i.i.i.i.t.i.i.t.i.a.i.i.i.i.i.t.t.i.0.8.8.",
"0.i.i.i.t.i.i.i.i.i.t.i.a.i.t.i.i.i.t.r.t.i.i.i.i.i.^.d z R E.S./ 1 -.y.i.i.i.0.i.i.0.i.i.i.i.t.t.i.p.p.t.t.i.i.i.8.8.8.",
"i.i.i.i.i.0.i.0.0.8.8.t.a.i.t.i.i.t.i.i.a.i.0.t.t.i.n.$ W T.!.V.D.P - s $ i.0.i.a.i.i.i.i.i.0.8.0.0.t.p.i.i.t.t.t.t.t.i.",
"i.a.a.i.i.i.i.0.4.3.4.7.8.0.t.i.i.t.i.s.i.i.i.i.a.i.t $ c.!.OXQ.!.P M v d 5.i.a.a.i.0.i.t.8.7.4.7.7.8.8.0.i.0.t.t.i.i.t.",
"i.i.0.0.0.i.a.0.0.7.8.0.0.0.i.i.i.r.i.s.i.t.i.a.p.a.N , K D.M.U.#XY.N.M z &.i.t.t.t.t.i.i.t.8.8.0.8.8.8.t.i.i.0.t.t.0.8.",
"i.0.i.i.i.i.0.i.t.i.0.t.0.0.0.i.t.i.s.i.i.0.0.a.a.].Q c A.#X#XU.OX#X!.X.0 Y p.t.t.t.i.t.t.i.i.i.t.t.0.8.0.i.t.i.i.i.0.0.",
"i.i.i.a.i.0.i.i.p.p.i.0.8.8.0.t.t.t.t.i.a.i.t.i.i.C.D F.$X+XOX=X$X$XK.^ , w.r.i.i.i.i.i.t.i.i.s.t.0.0.8.0.0.t.i.i.a.i.i.",
"0.t.i.i.i.a.i.i.0.i.0.0.7.0.i.i.i.t.r.t.a.i.t.`.C.; c !.@X=X&X.X=X$XN.x f u.t.t.i.i.i.i.i.i.t.t.i.t.8.8.i.i.i.i.i.a.i.t.",
"i.i.0.i.i.i.i.i.i.0.i.i.i.i.i.i.i.i.i.a.a.i.-.5 S z R W.=X2X2X3X-X$XD.b E (.i.i.i.i.i.i.i.i.t.t.i.i.i.i.i.i.i.i.i.a.i.0.",
"a.i.i.a.i.i.0.0.0.i.0.i.i.i.i.i.t.t.i.s.i.t.'.q M m R =X3X3X7X1X>X-X$XA.P < ,.i.i.i.i.i.i.t.0.t.i.a.a.i.i.i.i.t.i.i.t.t.",
"i.t.i.a.i.i.t.i.t.8.7.0.0.t.i.i.i.i.i.i.t.t.;X4 # a O.@X7X4X6X8X7X2X$XW./ 1 ;.h.i.i.i.i.i.i.i.i.t.t.i.i.i.i.i.i.t.0.8.8.",
"0.i.a.a.t.t.t.i.i.0.0.0.0.7.7.0.i.i.i.i.i.g.H ' z h ] =X7X5X7X6X4X3X$XN.l X ; 9 H g.i.t.i.i.i.i.i.i.i.i.0.0.i.i.i.0.8.0.",
"7.8.0.0.t.t.0.0.0.i.i.i.0.0.0.0.0.0.0.i.i.[.= ( | ` I.>X4X5X8X5X8X2X&X#XO.E f Z t =.t.t.i.t.0.t.i.i.i.i.i.t.0.t.0.i.i.i.",
"4.7.8.0.0.a.i.0.0.i.0.0.0.0.t.i.i.i.0.i.{.F t m.; c.-X3X8X8X8X7X7X7X&X$XQ.F.v 8 e (.0.i.i.t.t.i.i.i.i.i.i.i.t.0.t.t.t.8.",
"0.0.0.0.t.i.i.i.i.0.0.0.0.0.0.0.0.p.a.J 5 + & x.8 J.>X4X7X7X8X8X7X7X%X@X#XF.x z }.0.0.i.i.i.a.i.i.t.0.i.t.t.t.t.i.t.0.0.",
"i.0.0.t.0.t.0.i.a.i.i.0.0.0.0.0.0.i.i.Y V A ..B v.@X7X8X8X8X8X8X8X,X.X*X#Xo.,  .oX8.t.t.i.i.i.i.i.i.i.i.i.t.0.i.i.i.t.t.",
"i.i.0.7.0.0.i.i.i.p.i.i.t.0.0.i.p.i.i.0.t.L.k W *X2X8X5X5X8X8X8X8X4X7X%XI.) K 4 H.7.8.0.i.i.i.t.t.t.i.i.i.i.i.i.i.a.i.i.",
"i.0.0.0.t.a.a.i.a.a.i.0.i.i.p.i.a.i.i.0.t.-.< D.=X3X5X5X8X8X8X8X5X4X3X3X@XR.' z.t.t.0.i.i.i.t.t.t.t.t.t.i.i.i.i.p.p.i.t.",
"i.a.i.i.i.i.t.0.i.i.i.i.i.a.i.i.i.0.0.i.t.>.R E.-X3X8X5X8X8X8X8X5X8X7X7X2XJ.v.i.i.i.p.i.i.t.t.i.i.i.i.i.t.i.i.i.i.i.i.i.",
"i.i.i.i.i.i.t.t.0.0.8.0.0.i.i.i.0.a.0.0.8.Z.[ Q.$X.X8X8X6X8X8X8X5X7X8X4X<X) z.8.0.0.i.i.t.t.t.i.i.i.i.i.i.i.t.t.i.i.i.i.",
"0.i.i.i.0.i.i.i.i.0.0.0.0.0.8.0.i.i.t.8.8.,.f X.#X2X7X8X8X8X8X8X8X8X7X3XXX6 ' :.i.t.8.8.t.a.i.i.t.i.i.i.t.t.i.i.i.t.t.i.",
"t.i.i.i.i.a.i.0.0.0.0.0.i.0.8.0.t.t.t.t.0.>.0 E M.&X8X5X8X8X8X8X8X8X7X-XI.D 8 3 `.u.8.8.t.i.i.t.i.i.i.i.i.i.i.i.i.t.i.i.",
"i.p.a.i.i.0.i.0.0.i.0.i.0.0.0.t.8.0.t.i.'.I j Y.$X1X7X6X8X8X5X8X8X5X7X-X#X#X@.f ;.G |.f.t.t.0.0.i.p.i.i.t.i.t.t.0.i.i.p.",
"i.i.0.i.i.i.0.0.a.i.0.0.0.0.t.t.t.t.t.t.Z.3 k.!.*X-X7X8X8X5X5X8X8X8X,X&X$X!.+.z # : N b.i.t.t.i.i.i.t.t.t.i.i.t.i.i.i.i.",
"i.0.0.i.i.0.t.i.i.i.0.0.0.0.0.0.t.t.i.i.b.: B.$X2X7X8X8X8X8X8X8X6X5X7X7X-XP.! - X ; g F 0.i.a.i.i.t.t.i.i.i.0.p.i.i.t.0.",
"i.i.i.i.i.0.0.i.i.p.t.t.0.0.0.0.t.i.p.<.: E K.=X2X7X8X8X6X8X8X8X8X8X8X8X2XXXQ C : B 2 t a.i.i.i.i.i.i.i.i.t.t.i.i.i.i.i.",
"0.0.a.i.a.i.i.i.i.a.a.t.t.i.i.a.i.i.i.w.# #.#X$X,X5X8X8X6X6X8X8X8X8X8X6X7XXXV ~.G.L.2 5 a.i.t.t.t.t.i.i.i.p.i.i.i.0.t.t.",
"i.i.i.i.i.i.i.i.i.a.i.t.i.i.i.a.i.i.p.f.a L `  X,X5X5X8X8X8X8X6X7X8X8X6X7X[.w H.t.i._._.i.i.i.i.t.0.i.t.i.i.i.i.i.i.t.t.",
"i.t.i.i.p.i.0.0.i.i.a.i.i.i.i.i.t.0.i.&.> n o.@X3X7X7X7X7X8X7X8X8X8X7X7X-XB.2 L.i.i.i.i.t.t.t.t.0.0.i.i.i.t.0.0.r.i.i.t.",
"t.i.i.p.p.p.i.i.t.i.i.i.i.p.i.i.i.t.t.:.% d [ $X2X3X3X2X7X7X7X8X4X7X3X-X$X{ 3 U i.i.i.i.i.t.t.t.8.8.0.i.0.i.i.i.t.t.t.i.",
"r.i.i.0.0.i.p.p.i.0.i.i.p.i.i.0.p.i.i.2.,  .@.W.B.) Y.$X2X3X7X8X4X2X-X+X] 7 O ;.i.i.t.t.i.i.i.t.0.8.0.0.8.0.i.i.i.t.i.i.",
"i.p.p.i.0.i.i.0.0.7.7.0.0.i.0.i.0.0.i._ $ Q j z.6 * ~ T.$X2X3X3X3X*XY.` 7 T |.i.a.i.t.t.t.t.t.t.i.i.i.8.8.0.i.i.i.i.i.p.",
"p.i.i.p.p.p.i.8.7.3.3.7.8.0.i.i.t.8.t.j.l./.F H U I 9 ! Y.K.+X=X=XI.f $ }.0.i.i.i.i.i.t.t.0.t.t.i.0.0.8.0.p.t.t.y.s.i.s.",
"i.i.0.i.p.i.i.0.0.0.0.0.0.0.i.i.t.i.t.0.1.7.0.0.t.t.v.) X.l ` V.#XY.h @ (.i.i.i.t.t.t.t.t.t.t.t.0.9.8.8.t.0.t.t.t.i.i.t.",
"i.i.y.0.p.i.t.i.p.i.i.0.0.0.0.i.t.i.p.t.t.t.t.t.8.0.g.( < # x c K D , K Y p.`.A 5 e.i.i.t.t.i.i.i.0.t.i.9.8.9.0.i.i.i.y.",
"i.p.i.i.i.i.p.p.p.i.i.0.7.7.8.i.i.i.i.p.t.t.t.0.t.i.i.}.8 d , . q 2 4 t oXp.V o 5 g.i.i.i.i.i.i.s.i.t.0.9.t.i.i.i.0.i.s.",
"i.p.i.0.r.i.i.i.i.i.i.9.8.0.i.p.i.i.p.p.i.0.t.i.p.p.i.d.L.t & t oXn.[.).i.`.r O & i.i.i.a.i.a.a.i.0.0.i.i.a.a.i.0.i.i.i.",
"i.i.i.i.i.i.i.0.0.i.i.p.i.i.i.i.i.t.i.p.i.i.p.i.i.0.0.0.e./.u :Xt.s.i.i.t.0.:Xr i i.t.i.i.0.0.a.i.i.i.i.i.i.i.0.i.i.i.y.",
"i.i.i.i.i.i.i.0.9.i.i.i.i.i.i.i.0.i.i.p.i.i.d.y g.0.0.9.t.i.'.i.a.a.t.t.t.i.t.'.h.i.i.i.0.t.0.a.a.i.i.a.a.a.0.0.i.i.i.y.",
"i.p.i.i.i.i.i.i.i.i.i.i.p.p.i.t.i.i.i.i.i.p.q.  J i.i.i.t.t.i.i.a.s.i.i.t.i.i.i.i.i.t.i.i.i.i.0.0.i.i.a.a.i.i.i.i.r.r.i.",
"8.0.i.i.i.0.i.i.9.9.9.i.i.p.i.0.t.t.0.8.0.i.p.p i.i.i.i.i.r.p.i.t.t.i.i.i.t.i.i.a.i.t.t.i.i.i.i.r.i.i.i.0.i.a.a.i.0.i.i.",
"7.7.0.0.i.i.i.0.7.3.7.7.9.0.i.i.t.8.4.4.7.9.9.t.i.t.t.i.p.p.p.i.t.i.i.i.t.t.t.a.a.i.i.i.i.i.i.i.p.i.i.r.i.i.i.0.i.p.s.i.",
"7.7.7.0.0.i.i.8.7.7.7.8.8.9.i.i.t.8.4.7.8.7.8.0.i.i.r.9.i.i.i.t.i.i.i.i.t.i.t.i.i.t.t.i.t.t.r.i.i.i.i.i.a.a.i.0.9.p.p.i.",
"0.0.0.0.0.i.i.i.i.i.0.0.8.9.i.i.i.i.t.t.0.0.0.0.i.i.i.p.i.i.t.9.t.a.i.i.i.a.i.i.8.t.i.t.t.t.i.i.i.y.0.0.i.i.i.i.p.i.i.9.",
"i.i.8.7.7.0.i.i.p.i.i.0.8.7.8.9.i.p.p.i.t.9.7.7.9.8.t.t.t.i.p.y.t.i.i.t.i.i.t.t.i.t.t.t.r.t.t.t.i.i.i.i.i.i.r.r.i.i.i.i.",
"i.9.7.7.9.r.i.r.0.p.i.9.7.8.9.i.i.t.t.t.r.8.7.9.i.i.t.9.9.i.y.i.t.8.t.t.t.r.r.r.t.t.y.i.i.t.8.r.i.i.y.8.9.0.i.9.9.0.i.i.",
"9.r.0.9.r.i.y.9.9.9.9.y.8.9.y.i.r.9.9.t.r.r.9.r.t.t.r.r.r.y.r.r.r.r.r.i.t.r.8.r.8.r.t.t.r.8.r.r.y.y.y.8.r.y.y.0.9.y.y.9.",
"9.9.r.y.r.9.9.8.9.9.9.y.y.9.0.9.9.8.8.9.r.r.r.r.r.9.9.r.r.9.7.8.r.t.8.r.4.r.r.r.r.r.r.r.r.r.r.r.y.9.8.y.y.9.9.9.y.y.y.9."
};
