/* XPM */
static char *result[] = {
/* columns rows colors chars-per-pixel */
"60 60 208 2 ",
"   c #2A333F",
".  c #09254E",
"X  c #172A4B",
"o  c #17304F",
"O  c #022954",
"+  c #082A55",
"@  c #012B5B",
"#  c #1C2E56",
"$  c #182E5C",
"%  c #05345C",
"&  c #0B315E",
"*  c #123357",
"=  c #243657",
"-  c #012E62",
";  c #072D68",
":  c #023465",
">  c #0C3462",
",  c #08396A",
"<  c #123964",
"1  c #1E3B66",
"2  c #023B72",
"3  c #093F75",
"4  c #1D425F",
"5  c #0A456B",
"6  c #13436C",
"7  c #184168",
"8  c #064579",
"9  c #174A77",
"0  c #2A4969",
"q  c #344A6A",
"w  c #254E75",
"e  c #354F78",
"r  c #2D5171",
"t  c #24567E",
"y  c #365574",
"u  c #30627D",
"i  c #48536D",
"p  c #485574",
"a  c #4C6A7D",
"s  c #54677B",
"d  c #124E80",
"f  c #1A4D83",
"g  c #1B4F89",
"h  c #165486",
"j  c #1C5683",
"k  c #125690",
"l  c #255A88",
"z  c #205C94",
"x  c #1C689A",
"c  c #2B6688",
"v  c #346A89",
"b  c #276698",
"n  c #296B9C",
"m  c #396890",
"M  c #2B7097",
"N  c #2D719B",
"B  c #387499",
"V  c #195CA0",
"C  c #1F6FA0",
"Z  c #1C74A9",
"A  c #1D76B4",
"S  c #246BA3",
"D  c #2C6CA1",
"F  c #336DA5",
"G  c #2575A6",
"H  c #2B74A4",
"J  c #2D73AC",
"K  c #2B7BAC",
"L  c #3274A2",
"P  c #357DA6",
"I  c #3172AC",
"U  c #3A7EAA",
"Y  c #2474B0",
"T  c #2A74B1",
"R  c #297AB4",
"E  c #227FBC",
"W  c #357AB4",
"Q  c #455B89",
"!  c #4F6986",
"~  c #506F94",
"^  c #427699",
"/  c #696B87",
"(  c #767C8A",
")  c #3383AC",
"_  c #3B81AB",
"`  c #2681BA",
"'  c #458495",
"]  c #788697",
"[  c #4889A6",
"{  c #5789AA",
"}  c #5198A8",
"|  c #4787B8",
" . c #5492B5",
".. c #549DBB",
"X. c #7896A8",
"o. c #608FB3",
"O. c #619BB1",
"+. c #7A9FB2",
"@. c #5AA1BF",
"#. c #67A7BC",
"$. c #4B9DC5",
"%. c #5B9AC3",
"&. c #5CA4D2",
"*. c #65A4C4",
"=. c #74AEC4",
"-. c #6AB1CC",
";. c #74B2C3",
":. c #6DB3D7",
">. c #75B3D3",
",. c #79BBD8",
"<. c #7CCFEE",
"1. c #838686",
"2. c #938C8E",
"3. c #9B958E",
"4. c #99989B",
"5. c #AFAA9D",
"6. c #B8A994",
"7. c #959CA4",
"8. c #9B9DA5",
"9. c #839FB8",
"0. c #9DAAB3",
"q. c #A5A1A2",
"w. c #AFABA7",
"e. c #A7AAAB",
"r. c #B7ABA4",
"t. c #B5B1AB",
"y. c #BFBAAF",
"u. c #A6A9B4",
"i. c #A9B5B7",
"p. c #B4B8B3",
"a. c #E3BA8F",
"s. c #E6BE93",
"d. c #C6B8A5",
"f. c #C6BBAB",
"g. c #D0BAA3",
"h. c #C7BEB3",
"j. c #EAC397",
"k. c #EEC79A",
"l. c #EFCA9E",
"z. c #F2CB9E",
"x. c #DCC6AD",
"c. c #DECCAF",
"v. c #D3C6B5",
"b. c #DDCBB5",
"n. c #DACCBA",
"m. c #DED1BB",
"M. c #EFCEA2",
"N. c #E6CDAC",
"B. c #ECCFAD",
"V. c #F4CFA2",
"C. c #EFD1A6",
"Z. c #EED2AC",
"A. c #F6D3A7",
"S. c #F7D7AA",
"D. c #F8D7AB",
"F. c #F7D9AC",
"G. c #E4CCB3",
"H. c #ECD3B3",
"J. c #E9D4B6",
"K. c #E4D4BA",
"L. c #F1D5B2",
"P. c #F0D8B8",
"I. c #84BACC",
"U. c #87B8D5",
"Y. c #8CBED3",
"T. c #B9BCC3",
"R. c #86C1CE",
"E. c #8CCADB",
"W. c #94CFD5",
"Q. c #B4C1C4",
"!. c #83C9E8",
"~. c #8DD5EA",
"^. c #9AD6E9",
"/. c #9BDBEC",
"(. c #A8DCF8",
"). c #9BE1EC",
"_. c #9FE0F4",
"`. c #B2E5EA",
"'. c #ABE9F7",
"]. c #A3E8FD",
"[. c #B1EEF3",
"{. c #ACF7FE",
"}. c #B5F2FA",
"|. c #BDF6FD",
" X c #B5FCFE",
".X c #BDFEFF",
"XX c #CFD6D1",
"oX c #CBF6ED",
"OX c #C9FBED",
"+X c #D5F8EE",
"@X c #C6F5F4",
"#X c #CCF3F4",
"$X c #C5FAF4",
"%X c #CEFDF5",
"&X c #C2F4FF",
"*X c #C4FDFE",
"=X c #CBFDFD",
"-X c #D9F7F6",
";X c #D4FCF4",
":X c #D4FDFE",
">X c #DBFDFC",
",X c #E4FDF6",
"<X c #E8F8F6",
"1X c #E4FFFE",
"2X c #ECFFFD",
"3X c #F5FFF5",
"4X c #F4FFFE",
"5X c #FDFEFD",
/* pixels */
"A.V.z.k.V.A.S.A.V.V.A.z.z.z.A.A.D.A.D.D.A.V.V.V.D.D.A.A.V.V.V.k.V.V.A.A.A.V.A.A.D.V.z.A.A.A.D.D.A.A.V.V.A.D.A.A.D.S.A.V.",
"A.S.A.A.A.S.A.V.V.V.A.D.A.A.A.A.A.V.A.D.z.A.A.D.A.D.V.V.V.A.D.V.V.A.A.A.A.A.D.A.A.A.A.A.A.A.A.D.D.z.A.A.A.D.A.A.S.D.A.z.",
"A.D.A.A.A.A.A.z.V.A.A.D.A.A.A.V.V.V.V.D.A.z.S.S.A.V.V.V.V.S.A.V.A.S.A.z.A.A.A.A.z.A.A.D.A.z.z.A.V.z.V.A.A.A.z.z.z.S.A.C.",
"A.V.V.A.A.A.A.A.A.A.V.V.A.z.A.A.V.V.A.V.C.A.S.S.S.V.V.V.V.V.V.D.D.S.S.A.A.A.A.A.V.z.A.A.A.A.A.z.k.j.z.V.z.V.A.A.M.A.A.A.",
"A.A.A.A.z.z.A.A.A.A.A.A.A.V.z.V.A.A.A.V.V.A.z.A.V.S.D.S.V.V.S.A.V.V.A.A.A.A.V.A.A.A.z.z.A.A.A.V.z.z.z.z.j.z.A.A.A.z.A.A.",
"A.D.D.A.A.A.A.z.z.V.A.D.D.A.A.A.A.A.A.A.D.D.C.V.A.A.A.4.H.D.S.A.V.A.S.A.V.V.V.A.D.D.A.A.z.V.k.A.A.A.V.z.z.z.V.A.A.A.A.S.",
"A.A.A.A.A.D.A.A.A.A.A.A.A.V.V.A.V.V.V.D.A.A.A.A.S.A.V.t.i S.A.S.A.A.D.A.A.V.A.D.A.A.V.V.A.z.z.z.V.z.k.k.z.A.V.V.z.D.D.D.",
"A.A.z.z.A.z.z.A.D.A.A.z.z.A.A.A.V.V.A.A.A.V.V.S.D.A.M.. % + o x.A.D.A.A.A.A.A.A.z.V.A.V.z.A.A.A.V.z.z.z.V.z.z.V.A.D.A.z.",
"A.V.A.A.A.A.A.A.A.A.A.z.A.A.A.V.V.A.A.A.A.M.V.A.A.V.A.9 2 d 1 A.V.D.A.V.A.D.V.A.z.A.A.A.z.A.A.A.A.V.V.z.z.z.z.z.D.D.D.A.",
"z.A.A.V.A.A.A.A.V.V.V.A.A.V.A.A.A.V.V.V.F.A.A.V.C.A.7.l 2 b l K.V.A.A.A.A.V.V.V.A.A.A.A.A.A.D.D.A.A.V.z.z.A.D.A.z.z.A.D.",
"V.z.V.A.A.A.A.A.z.A.A.z.A.A.A.A.A.V.V.A.A.A.M.M.A.w.& g - z 8 = / V.A.A.A.V.V.V.A.A.A.A.A.A.A.D.A.A.D.A.D.A.A.V.z.S.A.D.",
"A.A.A.A.A.A.z.z.z.A.A.A.A.A.A.V.V.V.A.F.V.V.A.F.S.N.u.O : x b C.A.D.A.V.V.V.A.A.A.A.A.A.D.z.z.A.A.A.A.D.A.A.V.A.D.S.z.z.",
"A.A.A.A.A.z.A.A.A.A.D.A.A.A.A.D.z.M.A.A.A.V.A.F.D.V.q O : V n 5.V.V.V.A.A.A.A.A.A.A.A.z.A.A.V.A.D.A.A.A.A.A.V.V.A.z.k.k.",
"V.A.A.A.V.A.A.A.A.A.V.A.D.A.V.V.A.S.V.l.V.A.A.A.A.A.$ O : S h B.l.k.V.A.A.A.A.z.A.A.z.A.A.A.A.V.V.A.D.A.V.V.A.A.A.z.j.z.",
"A.A.A.A.A.z.A.z.z.z.k.V.D.A.V.A.A.A.S.A.S.A.z.V.V.q.1 d L P I 4.M.M.z.A.A.A.z.A.D.A.A.A.A.A.z.k.z.z.A.D.A.A.V.V.z.V.V.A.",
"A.D.D.A.A.A.A.z.s.a.s.s.k.z.V.A.A.z.A.F.S.A.A.S.y.q %.&.!.].L ! r.d.A.z.V.z.A.D.D.A.z.A.V.k.j.a.s.s.k.z.z.A.z.z.z.A.A.V.",
"A.A.z.z.V.A.A.z.z.j.j.z.z.z.A.A.A.M.A.S.A.V.A.F.r 6 8 %.].{.N 8.l.B.A.A.A.A.A.V.V.V.V.A.A.z.k.z.z.z.k.k.V.V.A.z.V.V.z.k.",
"A.z.A.A.A.A.z.A.V.A.V.V.z.z.z.A.V.A.S.S.A.z.z.y.D K K /.^.;.@ 8.V.w.l.V.A.D.D.V.V.V.A.V.V.A.A.A.z.z.z.z.z.D.V.A.A.A.z.z.",
"A.A.A.D.A.z.A.A.D.D.A.z.k.z.z.V.V.V.V.A.D.A.z.9 R A K =X=X=X{ 0.z.8.k.V.A.A.z.A.A.A.A.A.V.A.A.D.A.z.k.j.z.z.z.D.A.D.A.A.",
"V.z.A.A.A.D.A.A.V.z.V.z.j.k.A.A.A.V.z.V.D.A.V.e.J k _ *X=X=X(.X.P.w.D.V.A.V.z.V.A.A.A.A.A.A.A.V.D.z.k.z.A.A.A.A.A.D.A.z.",
"A.A.z.A.A.A.A.A.V.V.A.A.A.A.A.A.A.A.A.D.D.A.A.f.O f _ [.=X;X@X' v 5 4 m.A.A.A.A.A.A.A.A.A.A.V.V.A.A.A.A.A.A.A.A.A.D.A.z.",
"D.A.A.D.A.A.z.z.V.V.z.A.A.A.A.A.V.V.A.S.A.V.A.f.& @ 5 [.%X1X1X$X*X(.B v z.z.A.A.A.A.A.A.A.z.z.V.A.D.D.A.D.V.A.V.A.A.V.z.",
"A.V.A.D.A.A.V.A.V.z.j.z.z.V.V.A.A.A.A.A.V.V.A.J.0.w l $X:X2X,X;X:X*X>.v A.A.A.A.A.A.A.A.A.A.A.A.V.z.A.A.A.A.A.A.z.k.j.z.",
"z.A.D.D.V.V.V.A.A.z.z.z.V.j.j.z.A.S.A.A.A.V.V.f.J.U.^ =X-X5X5X4X2X:X*XO.a z.V.M.D.D.A.V.A.A.A.A.D.A.A.A.z.z.A.A.D.z.z.z.",
"j.k.z.z.V.V.z.z.V.V.A.A.z.k.z.V.l.V.V.A.D.D.A.v W F &X2X5X5X5X4X2X;X}.#.7 j.j.j.z.z.A.z.D.V.z.z.A.A.A.A.A.z.z.z.z.S.A.A.",
"s.j.k.z.z.D.A.z.z.A.V.z.k.V.V.A.V.A.l.A.A.A.A.o.U n &X4X3X5X5X5X2X;X|.#.2 T.j.j.j.z.z.A.A.V.V.A.A.A.A.A.A.A.A.z.V.V.z.z.",
"z.z.V.z.V.A.A.V.A.z.z.k.k.z.V.z.V.D.D.A.A.V.A.,._ } %X3X5X4X4X5X2XoX*XE.K d < M.z.z.z.D.A.A.D.A.A.z.z.A.z.A.z.A.A.V.z.k.",
"A.z.z.z.z.V.V.A.D.A.A.V.z.V.z.k.V.A.A.A.V.b.q ,. X XoX<X5X5X5X4X-X*X=X=X).M j % z.z.z.z.A.A.A.D.A.A.D.A.D.z.z.A.A.A.V.V.",
"A.V.k.j.z.z.A.A.D.D.A.A.l.V.V.A.A.A.A.V.A.s y '.*X#X-X4X5X5X5X<X;X*X=X$X X@.n , d.3.6.z.A.A.A.V.V.V.A.D.A.A.A.A.A.D.A.A.",
"A.V.z.z.V.D.D.A.D.D.V.V.V.A.A.A.A.V.V.V.A.9 [ =X1X4X5X5X5X5X5X4X1X;X;X=X*X X<.W q N.z.A.A.D.z.V.V.V.z.z.A.A.A.A.D.D.A.V.",
"A.D.A.A.A.A.V.z.V.A.A.V.A.D.A.D.  z.# d.7 | ,.=X1X4X5X4X4X5X5X4X1XoX$X$X,.C Z I * H.A.A.D.z.z.A.D.A.A.A.z.A.A.A.A.A.A.A.",
"D.A.A.A.A.A.V.V.V.z.l.l.V.A.A.A.V.A.i r.r 9 n I.<X4X5X5X5X5X5X5X4X+X=X=XP Y K h A.z.A.A.V.V.V.A.A.A.A.A.D.A.A.z.A.A.A.A.",
"V.A.A.A.V.A.A.A.A.z.z.z.z.k.z.z.A.A.Z.V.x.9.j ;.,X5X5X5X5X5X5X5X4X,X=X*XM N Z 3 V.V.k.z.V.D.A.A.V.A.A.A.V.V.A.A.A.V.V.A.",
"V.A.A.A.A.A.A.z.z.z.z.z.A.z.z.z.A.X B.V.V.T.5 U.3X4X5X5X5X5X5X5X5X4X:X:XO. X X*.s B.k.k.V.A.A.V.A.A.A.A.A.A.A.A.A.V.A.A.",
"A.D.D.A.A.z.A.z.z.A.V.A.z.z.z.( + - ] e.Q.u Y.1X4X5X5X5X5X5X5X5X5X5X2X:X=X*X).t z.k.k.V.V.V.k.V.A.D.A.A.V.A.V.V.z.A.A.D.",
"A.A.z.A.A.A.z.z.A.A.z.z.k.z.V.q 9 : , % v U.=X<X5X5X5X5X5X5X5X5X5X5X-X-XOX=X).6 z.M.z.V.A.V.V.A.A.A.V.V.V.A.A.V.A.A.A.A.",
"A.z.V.A.A.z.V.A.A.A.V.l.z.V.z.~ d V !.^.^.>X2X5X5X4X5X5X5X5X5X5X5X5X1X-X%X*X*Xm 1.g.V.V.z.A.D.A.A.z.V.A.A.A.z.D.A.A.A.z.",
"A.A.A.A.A.z.z.A.A.D.V.V.V.z.l.9 F -.=X*X>X4X4X5X5X5X5X5X5X5X5X5X5X5X2X,X#X|.~.6 H.A.z.k.z.A.A.A.A.A.A.A.A.V.V.A.A.A.A.A.",
"z.z.A.A.D.A.A.A.A.D.D.V.V.A.] D K  X%X;X1X4X5X5X5X5X5X5X5X5X5X5X5X5X5X3X=X<.) 5 e q 2.A.A.A.V.V.V.V.A.A.A.D.A.A.A.z.V.V.",
"A.A.A.A.A.A.A.A.A.D.A.V.A.A.8.F U .X%XoX;X2X4X5X5X5X5X5X5X5X5X5X5X5X5X5X`.n Z n n.A.A.A.A.A.A.A.V.z.A.V.A.A.A.A.A.A.V.V.",
"S.z.A.A.S.A.z.z.V.D.D.A.D.V.A.v.0 B '.*X=X-X<X4X5X5X5X5X5X5X5X5X5X5X4X-X#X*.D b # P.A.A.V.V.V.V.z.z.A.A.A.z.z.z.M.A.A.V.",
"z.A.A.S.S.F.S.A.A.V.A.A.A.S.A.A.t.%  .>.Y.:X1X4X5X5X5X5X5X5X5X5X5X5X4X1X:X^.>.| 0 H.A.A.A.V.V.V.k.k.z.A.z.A.A.A.V.V.V.A.",
"V.S.A.z.z.A.D.D.A.V.A.A.S.A.A.V.S.. O 9 B =X#X1X5X5X5X5X5X4X4X5X5X5X-X;X=X:X=X%.: 1 V.V.A.A.A.V.z.k.z.z.k.z.D.A.A.V.A.A.",
"A.S.S.A.z.A.A.z.l.s.j.z.l.A.V.V.z.l.A.i.M _.=X#X4X5X5X5X5X5X5X5X5X3XoX:XW.`..X..z - w.V.V.V.l.V.A.A.A.k.k.z.A.A.A.A.A.F.",
"S.A.A.S.F.F.A.k.s.a.a.j.k.k.A.D.V.k.A.i.n %.].:X4X5X5X5X5X5X5X5X5X,X@X*X' E.^.D : < A.A.V.z.V.V.A.z.k.k.z.A.V.V.C.F.A.F.",
"A.A.l.A.S.A.A.z.z.z.z.V.V.z.A.A.M.A.1 f T Y x =.1X4X5X5X4X5X5X4X4X>X$X*X) $.b { e.w.d.V.V.V.V.V.z.l.k.z.V.z.V.V.V.A.A.V.",
"A.z.C.z.S.A.V.A.S.A.V.z.z.V.z.A.A.c.t L R A E :.>X,X3X4X4X1X2X>X:X%X$X=XH G N K.A.A.A.A.z.V.S.A.A.V.V.V.l.k.l.z.A.A.A.A.",
"A.D.A.S.A.A.S.S.S.A.A.z.j.j.l.V.A.S.K.+.S ` A :.=X>X,X1X>X:X>X=X=X=X=XR.L 5 c M.A.A.A.A.A.A.A.A.F.A.V.V.l.V.A.A.A.M.A.F.",
"A.D.S.z.A.A.A.A.A.V.A.z.k.z.A.D.A.A.D.D.^ J T D B W.*X|.*X-.P *.}.&XU 9 D.A.A.z.V.V.A.A.D.A.D.D.A.V.V.A.A.D.D.A.V.A.A.A.",
"A.A.z.A.A.A.S.z.z.A.A.S.A.S.A.A.A.V.V.D.y.9 : - t { >. .-.C R K H c g < z.z.A.A.A.A.V.A.A.V.V.D.A.V.A.A.A.A.A.z.A.A.A.M.",
"A.A.A.A.D.A.z.V.z.A.A.A.A.A.A.S.z.A.A.D.A.( P.8.0 i.4 7 % c , X.XX@ > h.p A.A.A.A.A.A.A.V.V.V.A.D.A.A.A.D.D.V.z.A.A.A.M.",
"A.D.S.A.A.V.A.A.A.A.A.S.D.S.A.z.A.A.A.A.A.H.S.L.N.C.b.v.v.n.n.p.! 9 ; Q G.A.D.L.q.Z.V.A.V.A.V.V.M.V.A.D.D.A.A.V.A.M.M.A.",
"k.z.A.A.V.V.A.V.z.l.l.V.A.A.A.V.V.V.V.k.z.A.S.A.V.A.S.A.A.M.S.A.B.* p v.S.A.A.( $ . V.V.A.A.A.A.M.A.A.V.z.A.D.S.A.M.A.A.",
"j.j.z.z.A.A.A.z.j.a.j.j.l.z.A.A.V.k.s.s.j.l.l.V.A.V.V.A.S.S.S.A.V.J.V.G.V.z.V.h.X # A.A.A.A.A.A.S.D.A.M.A.A.A.V.A.S.F.A.",
"j.j.j.z.z.A.A.z.j.s.j.k.k.l.A.A.V.k.s.j.k.j.k.z.A.A.M.k.A.A.A.A.Z.D.A.A.V.A.D.A.( / V.A.A.V.V.A.A.A.A.A.D.D.A.V.l.S.S.A.",
"V.z.z.z.z.A.A.A.A.S.z.z.k.l.A.S.V.A.V.z.V.z.z.z.A.A.S.S.A.A.V.M.N.D.1.G.A.D.A.A.k.V.V.A.V.z.V.D.A.M.z.M.A.A.V.A.S.A.A.l.",
"A.A.k.j.j.l.S.A.S.A.A.z.k.j.k.k.A.D.D.A.V.l.j.j.l.l.V.V.V.A.S.M.V.V.A.V.A.A.V.V.A.A.V.V.k.V.V.V.A.A.A.A.S.A.M.M.A.A.A.A.",
"V.M.j.j.l.M.A.M.V.A.S.l.j.k.l.S.A.V.M.V.M.k.j.M.V.A.V.l.l.A.C.A.V.l.V.V.A.M.k.M.V.V.C.A.A.V.M.l.A.A.C.l.z.z.A.l.l.z.A.A.",
"l.M.z.l.M.A.C.l.l.l.k.C.l.l.l.S.M.l.M.V.M.V.l.M.V.V.M.M.M.C.M.V.M.M.M.A.M.k.k.M.l.M.M.V.M.z.M.C.C.C.M.l.M.C.C.z.M.C.C.l.",
"l.l.M.M.M.l.l.k.l.l.l.C.C.l.l.l.l.k.k.k.M.M.M.M.M.l.l.M.M.l.j.k.M.V.k.M.k.M.M.M.k.M.V.M.M.k.M.C.C.l.l.M.M.l.l.l.M.C.M.l."
};
