/* XPM */
static char *result[] = {
/* columns rows colors chars-per-pixel */
"60 60 210 2 ",
"   c #192942",
".  c #142F4D",
"X  c #11304E",
"o  c #032354",
"O  c #042A53",
"+  c #092D57",
"@  c #0D315D",
"#  c #05385D",
"$  c #17395C",
"%  c #1A395C",
"&  c #233043",
"*  c #263F5D",
"=  c #012663",
"-  c #033464",
";  c #0D3761",
":  c #0C3963",
">  c #02346A",
",  c #023A6D",
"<  c #0A3C69",
"1  c #163A66",
"2  c #3B515F",
"3  c #09426F",
"4  c #16486D",
"5  c #0B4777",
"6  c #134374",
"7  c #134B75",
"8  c #1B4D73",
"9  c #16477A",
"0  c #1B5374",
"q  c #1B527C",
"w  c #244963",
"e  c #24456C",
"r  c #374E6B",
"t  c #244E72",
"y  c #2C4C73",
"u  c #235271",
"i  c #4D5B6A",
"p  c #536470",
"a  c #5E6673",
"s  c #6C6F6F",
"d  c #817D7F",
"f  c #0C4D82",
"g  c #174B83",
"h  c #155287",
"j  c #185889",
"k  c #0E5990",
"l  c #1C5B97",
"z  c #235887",
"x  c #365D88",
"c  c #2A5B94",
"v  c #176497",
"b  c #24638C",
"n  c #2A698A",
"m  c #306B8B",
"M  c #31748D",
"N  c #236393",
"B  c #276698",
"V  c #246C9F",
"C  c #2E6C99",
"Z  c #336D9D",
"A  c #267497",
"S  c #36789A",
"D  c #3E7C9D",
"F  c #1E6DA8",
"G  c #1F77A7",
"H  c #326CA4",
"J  c #2573A2",
"K  c #2E73A3",
"L  c #2577A9",
"P  c #2A79AC",
"I  c #3777A3",
"U  c #2C75B3",
"Y  c #257AB4",
"T  c #337BB3",
"R  c #496884",
"E  c #5B6E82",
"W  c #4F728F",
"Q  c #5C7386",
"!  c #58738C",
"~  c #467B9A",
"^  c #676E80",
"/  c #677587",
"(  c #657792",
")  c #447CAC",
"_  c #587FA0",
"`  c #2A88AE",
"'  c #3E87A6",
"]  c #3585AC",
"[  c #3182B5",
"{  c #4A889F",
"}  c #48909F",
"|  c #758392",
" . c #4486A8",
".. c #5582A2",
"X. c #569DAF",
"o. c #478BB2",
"O. c #5A97BA",
"+. c #6A84A2",
"@. c #7487A4",
"#. c #649DB0",
"$. c #68A5B7",
"%. c #63A1BB",
"&. c #599BC7",
"*. c #5AA4D3",
"=. c #67AAC9",
"-. c #7EA8C0",
";. c #79B3C8",
":. c #78BAD6",
">. c #7EC5D7",
",. c #7CC5E6",
"<. c #908A86",
"1. c #97928F",
"2. c #808790",
"3. c #879298",
"4. c #A4A59E",
"5. c #B6A798",
"6. c #959DA5",
"7. c #8E9EB0",
"8. c #A399A5",
"9. c #A7A9AB",
"0. c #B2A9A0",
"q. c #B5B1AF",
"w. c #BBB4AC",
"e. c #B5B6B0",
"r. c #B9BBB7",
"t. c #C1AF9C",
"y. c #E2BA8F",
"u. c #E6BE93",
"i. c #C7BAAC",
"p. c #D4BFA6",
"a. c #C6BDB2",
"s. c #EAC397",
"d. c #E7C49B",
"f. c #EEC79A",
"g. c #EFCA9E",
"h. c #F2CB9E",
"j. c #CFC0AD",
"k. c #D9C6AD",
"l. c #DFC9AD",
"z. c #CAC3B5",
"x. c #D8C8B4",
"c. c #DED0BE",
"v. c #E3C7A5",
"b. c #EFCEA2",
"n. c #E9CEAD",
"m. c #F4CFA2",
"M. c #EFD1A6",
"N. c #EDD1AC",
"B. c #F6D3A7",
"V. c #F7D7AA",
"C. c #F8D7AB",
"Z. c #F7D9AC",
"A. c #F8DAAE",
"S. c #E6CEB4",
"D. c #E5D1B4",
"F. c #E9D0B1",
"G. c #F4D9B4",
"H. c #83B7CD",
"J. c #8CBAD8",
"K. c #ABBDC2",
"L. c #84C4CE",
"P. c #89CBD7",
"I. c #B8C3C5",
"U. c #8BCBE8",
"Y. c #9ACEE3",
"T. c #94D4E5",
"R. c #9ED8E4",
"E. c #88D4F7",
"W. c #A1D9F0",
"Q. c #9EE8FF",
"!. c #ADEFEE",
"~. c #B5EAEC",
"^. c #A7E5F5",
"/. c #A3E3FC",
"(. c #ACEDFC",
"). c #B7EEF6",
"_. c #B4EDF8",
"`. c #ADF2FC",
"'. c #B3F1F7",
"]. c #B3F2FF",
"[. c #BBF7F8",
"{. c #BDF4FE",
"}. c #BCFAFE",
"|. c #E9E0CA",
" X c #C3D6E9",
".X c #DEEDEC",
"XX c #C9FDEE",
"oX c #D7F7EB",
"OX c #D3FAED",
"+X c #CDF5F6",
"@X c #C6FEF4",
"#X c #CAFDF4",
"$X c #C4F6FB",
"%X c #C4FCFD",
"&X c #CCFDFE",
"*X c #D9F6F2",
"=X c #D3FCF4",
"-X c #DBFCF4",
";X c #D2F4F9",
":X c #D2FEFC",
">X c #DCFEFC",
",X c #E4F5EB",
"<X c #E2F8F5",
"1X c #EAFDF3",
"2X c #E4FDFD",
"3X c #ECFEFE",
"4X c #F2FEF5",
"5X c #FDFDF6",
"6X c #F4FEFE",
"7X c #FDFEFE",
/* pixels */
"B.m.f.f.m.B.V.B.m.m.B.h.h.f.B.B.C.B.C.C.V.h.B.h.Z.V.B.B.m.m.m.f.m.m.B.B.m.m.B.B.C.m.m.B.B.B.B.C.B.B.m.m.B.C.B.B.C.V.B.m.",
"B.V.B.B.B.V.B.m.m.m.B.C.B.B.B.B.B.m.B.C.m.m.B.V.B.V.m.m.m.B.C.m.m.B.B.B.B.B.C.B.B.B.B.B.B.B.B.C.C.h.B.B.B.C.B.B.B.C.B.h.",
"B.V.B.B.B.B.B.h.m.B.B.C.B.B.B.m.m.m.m.C.B.h.V.V.B.m.m.m.m.C.B.m.B.C.B.b.B.B.B.B.m.m.B.C.B.h.h.B.m.h.m.B.B.B.h.h.h.V.B.M.",
"B.m.B.B.B.B.B.B.B.B.m.m.B.m.B.B.m.m.B.m.B.B.V.V.Z.m.m.m.m.m.m.C.B.C.B.B.B.B.B.B.m.m.B.B.B.B.B.m.f.s.h.m.m.h.B.B.b.B.B.B.",
"B.B.B.B.h.h.B.B.B.B.B.B.B.m.h.m.B.B.B.m.m.B.m.m.m.B.Z.B.m.m.B.B.m.m.B.B.B.B.m.B.B.B.m.g.B.B.B.h.h.h.h.f.u.h.C.B.B.h.B.B.",
"B.C.C.B.B.B.B.h.h.m.B.C.C.B.B.B.B.B.B.B.C.C.M.m.B.B.B.B.B.V.C.B.m.B.C.B.m.m.m.B.C.C.B.B.h.m.g.m.B.B.m.h.m.h.m.B.B.B.B.V.",
"B.B.B.B.B.B.B.B.B.B.B.B.B.m.m.B.m.m.m.C.B.B.B.B.Z.B.h.m.B.V.B.V.B.B.C.B.m.m.B.B.B.m.m.m.B.h.h.m.m.h.h.f.h.B.m.h.h.C.C.B.",
"B.B.m.h.B.h.h.B.C.B.B.h.m.B.B.B.m.m.B.B.B.h.m.V.Z.B.j.M.l.B.m.b.B.C.B.B.B.C.B.B.b.m.B.m.h.B.B.B.m.h.h.h.m.h.h.m.B.C.B.h.",
"B.B.B.B.B.B.B.B.B.B.B.h.B.B.B.m.m.B.B.B.B.b.m.B.B.t.M.0.V.B.B.m.B.G.m.m.B.C.B.B.h.B.B.B.h.B.B.B.C.m.m.h.m.h.h.h.C.C.C.B.",
"h.B.B.m.B.B.B.B.B.h.h.B.B.m.B.B.B.m.m.m.C.B.B.m.M.M.h.B.B.B.V.l.m.m.B.B.B.m.h.B.B.B.B.B.B.B.C.C.B.B.m.h.h.B.B.B.h.h.B.C.",
"m.h.m.B.B.B.B.B.h.B.B.h.B.B.B.B.B.m.m.B.B.B.m.m.B.B.B.O ; $ + + i b.B.B.B.m.m.b.B.B.B.B.B.B.B.C.B.B.B.B.C.B.B.m.B.B.B.C.",
"B.B.B.B.B.B.h.h.h.B.B.B.B.B.B.m.m.m.B.C.m.m.C.C.Z.m.B.u Z f f 6 y C.B.m.m.m.B.B.B.B.B.B.B.h.h.B.B.B.B.C.B.B.m.B.B.B.h.h.",
"B.B.B.B.B.h.B.B.B.B.C.B.B.B.B.B.m.b.B.B.B.m.B.C.d x.r h J Y K j 1 G.m.B.B.B.B.B.B.B.B.h.B.B.m.B.C.B.B.B.B.B.m.m.B.h.f.f.",
"h.B.B.B.B.B.B.B.B.B.m.m.C.B.m.m.M.C.m.g.h.B.B.B.S.q.- l U *.U.m ~ h.m.B.B.B.B.h.B.B.h.B.B.B.B.m.m.B.C.B.m.m.B.B.m.h.f.h.",
"B.B.B.B.B.h.B.h.h.h.f.B.C.B.m.B.B.m.V.B.C.B.m.& @ - > Y Y U.%XP.m t.m.B.B.B.h.B.C.B.B.B.B.B.h.h.h.h.B.C.B.B.m.m.B.B.h.m.",
"B.C.C.B.B.B.B.f.s.y.y.s.f.h.m.B.B.m.B.C.C.B.B.a.g H k L [ (.XX~.H.i.B.h.h.h.B.C.C.C.h.B.h.h.u.y.u.u.h.f.h.B.h.h.h.m.B.B.",
"B.B.h.h.h.B.B.h.h.u.f.h.f.h.B.B.B.b.B.C.B.m.B.a.H T V J A P.XX$XJ.i.m.B.B.B.B.m.m.m.m.B.B.h.h.h.f.h.f.f.m.B.B.m.m.m.h.f.",
"B.h.C.B.B.C.h.B.B.B.m.m.h.h.h.B.m.B.C.C.B.m.b.i., v E.W.^.!.&X).;.t ( ( | S.C.h.m.m.B.m.m.B.B.B.m.m.h.f.h.B.m.B.m.B.h.h.",
"B.B.B.C.B.h.B.B.C.B.B.h.h.h.h.m.m.m.m.m.C.B.M.p., v D &X&X:X:X%X].' ] I K 0 p B.B.B.B.B.m.B.B.C.B.h.h.s.f.h.m.B.B.Z.B.B.",
"h.h.B.B.B.C.B.B.m.m.m.h.u.f.B.B.B.m.m.m.C.B.B.m.) L ~ %X#X:X#X%X}.^.^.O.J u i B.B.B.B.B.B.B.B.m.B.m.f.h.B.B.B.B.B.Z.B.m.",
"B.B.h.B.B.B.B.B.m.m.B.B.B.B.B.B.B.B.B.C.C.B.B.w.3 j {.#X#X#X@X@X@X%X%X^.Z c.B.B.B.B.B.B.B.B.m.m.B.B.B.B.B.B.B.B.B.C.B.m.",
"C.B.B.C.B.B.h.h.m.m.h.B.B.B.B.B.m.m.B.C.B.m.B.K.U.T.=X3X2X>X=X=X#X=X$X#.4 k.B.B.B.B.B.B.B.h.h.m.B.B.Z.B.B.B.B.m.B.B.m.m.",
"B.m.B.C.B.B.m.B.m.f.f.h.h.m.m.B.M.B.B.N.m.m.B.W `.&XOX6X6X3X-X-X-X#X{.$.: D.B.B.B.B.B.B.B.B.B.B.m.m.B.B.B.B.B.B.h.h.s.f.",
"h.B.C.C.m.m.m.B.B.h.h.h.m.s.f.h.B.V.B.B.i c.y g o.P.oX6X6X<X6X7X2X#X}.%.4 h.m.g.C.C.B.m.B.B.B.B.B.B.B.B.h.h.B.B.B.h.h.h.",
"f.u.f.h.m.m.h.h.h.B.B.B.h.h.f.m.h.h.h.B.w B &.&.%.R.<X6X6X3X6X7X3X+XT.O.q d.s.s.h.h.m.m.B.m.m.m.B.B.B.B.B.m.h.m.h.B.B.m.",
"u.f.f.h.h.C.B.m.h.B.h.h.h.h.m.B.B.B.m.B.e &.Q.}.[.%X3X7X6X7X7X7X3X>X{ S C 9.d.s.s.f.h.B.B.m.m.B.B.B.B.B.B.B.m.h.m.m.m.h.",
"h.m.h.m.m.B.B.m.B.h.h.h.f.h.m.h.h.A.A.B.x z ~ &X=X*X7X5X5X5X5X7X6X>X;.' F 6 1 m.h.h.m.B.B.B.B.B.B.m.h.B.m.m.m.m.B.m.h.h.",
"B.h.h.h.h.m.h.B.C.B.B.h.h.h.h.h.h.B.1.% H = > } ~.2X6X7X7X7X7X7X7X<X$X}.A O 5 t m.f.h.m.B.B.B.B.B.B.B.B.B.m.h.B.B.B.m.m.",
"B.m.h.s.h.h.B.B.C.V.B.B.h.h.h.B.C.V.  + H = , P.%X2X7X6X7X7X7X7X7X3X=X&X>.0 b 5 4.s.h.h.B.B.B.m.m.m.B.B.B.B.B.B.B.Z.B.B.",
"B.m.h.h.m.C.C.B.C.C.B.h.B.B.C.B.B.B.B.9. Xy ) XX@X2X7X7X7X7X7X7X7X7X<XOX:X%X^.P m % h.B.B.B.m.m.m.m.m.m.B.B.B.B.Z.V.B.m.",
"B.C.B.B.B.B.m.h.B.B.B.B.B.C.B.B.B.h.a * _ O. .%X=X3X7X7X7X7X7X7X7X6X>X>X#X%X%X=.9 1 B.B.B.m.m.B.B.B.B.B.m.B.B.B.B.B.B.B.",
"B.B.B.B.B.B.m.m.h.m.f.f.h.B.B.B.h.B.a 3..X8 ~ &X3X7X7X7X7X7X7X7X7X6X-X=X@XH.D 8 m.h.B.B.m.m.m.B.B.B.B.B.B.B.m.m.B.B.B.B.",
"m.B.B.B.h.B.B.B.B.h.h.h.h.f.h.h.B.<.j.q.W J.Y.+X6X7X7X7X7X5X7X7X7X6X*XOX:X;.B 6.m.m.h.f.h.C.B.B.m.B.B.B.m.m.B.B.B.m.m.B.",
"m.B.B.B.B.B.B.h.m.h.h.m.B.h.f.h.m.5./ 9 /.:X;X3X7X7X7X7X7X7X7X7X7X7X3X2X$X=.m F.m.h.f.h.m.B.B.m.B.C.B.B.B.B.B.B.B.m.B.B.",
"B.C.C.B.B.h.B.h.h.B.h.B.h.h.h.m.f.m.R h A :X6X7X7X7X7X7X7X7X7X7X7X7X6X2X'.n ~ B.m.h.f.m.m.m.h.h.B.V.B.B.m.B.m.m.h.B.B.V.",
"B.B.h.B.B.B.h.m.B.B.h.h.h.h.m.m.h.m.E h ] :X1X7X7X7X7X7X7X7X7X7X7X7X6X3X_.b ..h.g.f.h.m.B.m.m.B.B.B.m.m.m.B.B.m.B.B.B.B.",
"B.h.h.B.B.h.h.B.B.B.h.h.h.h.h.h.m.m.p h A :XoX3X7X7X7X7X7X7X7X7X7X7X6X>X].V c ! h.f.m.m.h.B.C.B.B.h.m.B.B.B.h.C.B.B.m.h.",
"B.B.B.B.B.m.m.B.B.C.B.m.h.h.h.h.m.B.|.J._.@XXX2X7X7X7X7X7X7X7X7X7X7X-X:XS U B : m.d h.v.h.B.B.B.B.B.B.B.B.m.m.B.B.B.B.B.",
"m.h.B.B.B.B.B.B.B.C.C.m.h.B.B.C.B.F._ I '.#X#X2X7X7X7X7X7X7X7X7X7X5X;X:XM L B r.^ n.B.B.B.B.m.m.m.m.B.B.B.C.B.B.B.h.m.m.",
"B.B.B.B.B.B.B.B.B.C.B.m.B.B.B.C.B.B.! 7 ].}.[.>X7X7X7X7X7X7X7X7X7X6X-X:X`.] N O m.5.B.B.B.B.B.B.m.h.B.m.B.B.B.B.B.B.m.m.",
"B.m.B.B.C.B.m.h.m.C.C.B.C.B.m.m.m.n.@ g O.&X:X4X5X5X7X7X5X7X7X7X7X5X,XoX_.N 7 w C.B.V.N.m.m.m.m.h.m.B.B.B.h.h.h.B.B.B.B.",
"m.B.B.V.V.V.V.m.B.m.B.B.B.C.B.B.B.m.1 j H :X>X4X5X7X7X5X5X7X7X7X7X7X1X<X{.5 - | B.B.B.B.B.m.m.m.f.f.h.B.h.B.B.B.h.m.h.B.",
"m.B.B.h.h.B.C.V.B.h.B.B.C.B.B.m.B.n.X # , -.;X>X6X7X7X7X5X7X7X7X7X7X3X-X_.7 R m.B.B.m.v.B.m.B.m.f.f.h.g.f.h.B.B.B.h.B.B.",
"B.Z.V.m.h.B.B.h.h.u.f.f.h.B.m.m.h.b.w.u K H.&X+X6X7X6X6X4X5X7X6X5X6X=X@X`.7 Q B.5.m.m.m.m.m.m.m.B.B.B.f.f.h.B.B.B.V.B.V.",
"V.B.B.Z.Z.V.B.f.y.y.y.s.f.h.B.B.m.h.m.9.C %X&X:X3X7X7X7X7X7X7X5X6X3XOX#X'.7 / B.B.m.B.B.m.m.m.m.B.h.h.h.h.B.m.m.M.Z.B.Z.",
"B.B.b.B.C.B.B.h.h.h.h.h.h.h.B.B.m.B.1 g I %X%X&X=X-X6X6X7X7X7X5X6X3X>X&X{.4 a B.m.m.m.m.m.m.m.m.h.g.f.f.B.h.m.m.h.V.B.B.",
"B.m.b.h.C.B.m.B.C.B.B.h.h.h.h.B.m.X c U G ` ` :.X.L.*X2X:X;X3X=X:X&X].=.I I.B.B.B.B.B.B.m.m.B.B.B.h.h.h.g.f.g.h.B.B.B.M.",
"B.V.B.B.B.B.C.C.C.B.B.h.s.s.g.B.B.. 5 l P L ` o.S  .$X$X%X&X:X&X~.#.$.n 4 r.m.m.m.B.B.B.B.B.B.B.Z.B.B.B.h.h.B.B.B.h.B.V.",
"B.V.B.m.b.B.B.B.B.m.B.h.f.h.B.C.B.B.C.z.e 4 4 < < 7 ].;.M n `.%X_.0 C.C.B.m.B.m.h.B.B.B.C.B.C.C.B.h.h.B.B.V.V.B.m.B.B.B.",
"B.B.m.B.B.B.B.m.h.B.B.Z.V.B.B.B.B.m.m.C.B.B.C.N.a.r +.7.@.o m ,.=...C.B.m.g.B.B.B.B.m.B.B.h.h.C.B.B.B.B.B.B.B.h.B.B.B.b.",
"B.C.h.B.C.B.m.m.h.B.B.B.B.B.B.B.h.B.B.C.B.B.C.B.B.m.m.h.h.Z.: > : e.m.m.m.B.B.B.B.B.B.B.m.h.h.C.C.B.C.V.V.C.h.h.B.B.B.M.",
"B.V.V.V.B.m.B.B.B.B.B.Z.C.C.B.h.B.B.B.B.B.C.C.B.m.m.B.B.B.x.$ o 1 B.B.B.B.m.B.s B.B.h.B.B.B.B.h.h.B.B.V.C.B.B.B.B.b.b.B.",
"f.h.B.B.m.m.B.m.f.g.g.h.B.V.B.h.m.m.h.h.f.B.C.B.m.B.V.B.B.Q G.8.m.m.B.B.B.m.B.B.C.B.B.h.B.B.B.B.b.B.B.m.h.B.V.V.B.M.B.B.",
"s.s.h.m.B.B.B.h.s.y.s.s.g.h.B.B.m.f.u.u.u.m.b.m.B.B.m.S.2.2 V.B.m.B.B.B.h.m.m.C.C.C.B.B.B.B.B.V.V.C.B.M.B.B.B.B.B.V.V.B.",
"s.s.s.f.h.B.B.f.s.s.s.f.f.g.B.B.m.f.u.u.g.u.f.g.B.B.b.j.s r.B.m.B.C.B.B.m.B.m.B.B.m.h.B.B.h.g.B.B.B.B.B.C.C.B.h.g.V.V.B.",
"h.h.h.h.m.B.B.B.B.V.h.h.f.g.B.B.B.B.m.m.h.g.m.h.B.B.B.V.B.B.B.h.m.C.B.B.B.C.B.B.h.h.B.B.m.h.B.V.B.M.h.g.B.B.m.B.V.B.B.g.",
"B.V.g.s.s.h.B.B.V.B.B.h.f.s.f.g.B.B.C.B.m.g.u.s.g.g.m.m.m.m.C.n.m.m.B.m.B.B.m.m.m.B.m.m.g.m.m.m.B.B.B.B.B.B.b.b.B.B.B.B.",
"m.h.s.s.g.b.B.b.h.V.B.g.s.g.g.B.B.m.m.m.m.f.f.g.m.B.m.g.b.B.b.B.m.g.b.m.m.g.m.b.m.m.n.B.B.m.g.g.B.B.M.g.h.h.B.g.g.h.B.B.",
"g.b.h.g.b.B.M.g.g.g.g.M.g.g.h.B.b.g.h.m.b.b.g.b.m.m.b.b.b.b.b.b.b.b.b.B.b.g.g.g.g.b.m.m.b.h.b.M.M.M.b.g.b.M.M.h.g.M.M.g.",
"g.g.b.b.b.g.g.f.g.g.g.M.M.g.g.g.g.f.f.g.b.b.b.b.b.g.g.b.b.b.s.f.b.b.g.b.f.g.b.b.g.b.b.g.g.h.g.M.M.g.g.b.b.g.g.g.g.M.M.g."
};
