/* XPM */
static char *result[] = {
/* columns rows colors chars-per-pixel */
"60 60 17 1 ",
"  c #E2B98E",
". c #E5BD92",
"X c #E8BF94",
"o c #E7C195",
"O c #EAC296",
"+ c #EDC699",
"@ c #EEC99D",
"# c #F0C79A",
"$ c #F2CB9E",
"% c #EFCDA1",
"& c #F4CEA1",
"* c #EFD0A4",
"= c #F6D2A5",
"- c #F7D6A8",
"; c #F8D6A9",
": c #F7D8AA",
"> c #F8D9AC",
/* pixels */
"=&#+&=-=&&=$##==;=;;=&&&-;==&&&#$&===&==;&$===;;==&&=;==--=&",
"=-===-=&&&=;=====&=;&&=-=-&&&=-&&=====;========;;$===;===;=$",
"=-=====$&==;===&&&&;=&--=&&&&-=&=-=$====$==-=$$=$$&===$$$-=*",
"=&&=======&&=&==&&=&*=---&&&&&&----=====&$=====$#O$$$$==%===",
"====$$=======&$&===&&=&&&--=&&==&&===;&===$$===$$$$+O$===@==",
"=;;====$$&=;;=======--*&=====--=&=-=$$&=;;==$$#===&$$$&====:",
"=============&&=&&&-====-=&&=-=-==;==$=-==&&=$$$&$##$=&$$---",
"==$$=$$=;==$$===&&==*&&--=&*-=&%=;===;==$&=&$===&$#$&$$&=-=$",
"=&=========$===&&====%&==&=====&=-=&=-==$===$====&&$$#$$---=",
"$==&====&&$==&===&&&:==&*=&&&=:=&====&$=======;;==&$$=-=$$=-",
"&$&=====$==$=====&&===%%===%====$&===&&$=======;====;==&&==-",
"======$$$======&&&=:&&=:-&==-&@%=;=&$&=======$$====;==&=-=$$",
"=====$====;=====$%===&=>-&$=&++$&=&========$==&=;=====&&=$++",
"$===&=====&=;=&&=-&@$=====-=@+@&$#$====$==$====&&=--&&===#+#",
"=====$=$###&;=&===-=-=$$&==$&$&&##$===$=;=====$##$=-==&&&&&=",
"=;;====#X .X+$&==$=:-===-=$$==&$#$=$$$=;;=$=&#o .o+#$=$$$==&",
"==$$$==$+O+++$===%=-=&=:-=$=$$##$&=====&&&&==$######&==$&&$#",
"=$====$===&&$$$=&=--=$$-==&-==##$$@%=;;&&&=&&===&&$#$=&===$#",
"===;=$==--=$+##&&&$=-=&==%%=--==$@#$==$=====&==;=$#O#$&==;==",
"$$===;==&&&$O#===&$&-=&&==-=-==&==;==&$&=======&=&##=====;=&",
"==$=====&&=========;;=======-=$==;=;==========&&=========;=$",
";==;==$$&&$=====&&=-=&===&@$=====:=$$$=======$$&=;;====&==&&",
"=&=;==&==#O#$&&=====&&=====$====================&$======&#O#",
"$=;;&&&==$#$&OO$=-===&&&&=--$$===$=;=$&$;;=&========$$===$#$",
"OO@$&&$$$===$##&$$$=;;==&=====;=&===@ooo#$&&=&$&=====&$$$===",
".O+#$-=$$=$$#$&===$====$==&&=;=-==:&+oooO#$==&&=======&$&&&#",
"$$$$&==&=$$##$&$$;;==$==$&$=-==%&:==$@$%$$$===;==&$=&&&&=&$#",
"=$$$$&$=;==$$$$#$===&====$&====%=;======$#$&=========&$===&&",
"=&#O@$==--==$$$=;==$&======&&=;=====;===#O+$===&&&=======;==",
"=&$$&--=--=$==;====$&&$=;==&==;%$$===&==$$$===&&&&&&====;;=&",
"=;====&$=====;===$$=&&===&&=;=&&===&$$&======&&=====&=======",
"======&&$$+#$===$=$$#$&==&&====&====&=#+$$==&&&=======&&====",
"&===$====$#$$##$==&###$+#==-=$===&&=&=#X&&##&-==&===&&===&&=",
"&======$$$$$=##$&&&&&=$O$&=&=====&=&$&&&&$##&==&=========&==",
"=;;==$=$$=$=$#$&#$&=&&##&&&&==;==&=$$&&=&##&&&#&=;==&=&&$==;",
"==$===$$==$$#$&&$&&&$##&&&&&===&$==&&&&$##$&=&&===&&&==&====",
"=$$==$$===$#$$$$&&=&$#$&&&=;;&$&==$====$##&&$=;==$&===$;==&$",
"=====$$==;=&&$#$&=-=&&&##$=========$====&&##$========&&=====",
"$$==;====;-&&==-==;;=&=====&$$&=======;=&=====&&&&===;===$&&",
"=========;=&===-==;;&&===-=&=&&=======;=&=======&$=&======&&",
"=&==-=&$&-;=-==&&$=&&&===&&&=======$$&==-===&&&&$$===$$#%==&",
"&==---=&=&===-===&&#O#&&&=&====-=============&&&++$=$===&&&=",
"%==$$=--=$==-==&==&$$&$O@===&==-=======&==&&===&##$@+$===&==",
"=--&$==$#oO@@=&&$$&=&&#+$&&+oo+@=$=$====;=&&&&$&===#+$=====:",
"-==-:-=+.  o+#=-&#&&&&+$=&$. ..X#$==&&======&$$&=$##$=&&*:=:",
"==%=-==$$$$$$$==&=&$#O+$&&&@@&$&$=======$$&&&&&&$@+#&$&&&==&",
"=&%&-=&=-=&$$$$=&=;&&&&&@$&===&$$$==========$&;==$&&@+@$===*",
"=;====---==$OO@&===;&&&@&==:=&&O+$$===$&========:=&&@&===$=:",
"=;=&%====&=$#$=;==;;=$&=--====&+$&=;===$$===;=;;=$$==--=&===",
"==&====&$==-=====&&;==;==&$$&===&=;=$$====&==$$;=======$===%",
"==%=;=&&$=======$==;==;==&$$&===;;&$$=======$$$;-==---$$===%",
"=;;==&=====-;-=$=====-;=&&==&&==;-========&====$$==--====%%=",
"+$==&&=&$@@&===&&&$+#=-=&=-==%-=&&======-=&$====%==&$=--=%==",
"oo@$===$o oO@$==&+..O@@&=&&=---=&===$$$;--=====-:;=%===&=;:=",
"oOO#$==#o.O++@==&+.O+O+$==%@===&=;==$====&$==$@=====;;=$@--=",
"&$$$$=====$$#@====&$$$$$===-==&@&;===;==$$==&$=-=%$%==&=-==@",
"==+oo$==-==$+o+@=--=&@OO@@&&&=-*&==&==&&==&&@&&&======%%====",
"&%OO@%=%&==@o+@==&%&%+O@&=&@@=*=$@%&=@@%&&*==&@@==*@@$=@@$==",
"@%$@%=*@@@@*@@%=%@@&%%@%&&%%%*%%%%%=%@@@@%%&%$%***%@%**$@**@",
"@@%%%@@+@@@**@@@@++@%%%%%@@%%@O+%%@@+@%%@%%@@@@**@@%%@@@%**@"
};
