/* XPM */
static char *result[] = {
/* columns rows colors chars-per-pixel */
"60 60 28 1 ",
"  c #433537",
". c #433638",
"X c #46393B",
"o c #4A3D3E",
"O c #4B3F40",
"+ c #4E4242",
"@ c #534545",
"# c #584746",
"$ c #564847",
"% c #5B4A47",
"& c #544748",
"* c #564A49",
"= c #5B4C4B",
"- c #5C504F",
"; c #5E5351",
": c #614E4B",
"> c #65524D",
", c #68544F",
"< c #635553",
"1 c #695551",
"2 c #645956",
"3 c #6B5955",
"4 c #665B59",
"5 c #6C5E5A",
"6 c #705F5A",
"7 c #6E615D",
"8 c #70625D",
"9 c #716560",
/* pixels */
"537-4237;7245=5132;72722527-4527-7227-7375=725<;728;2317-744",
"115271>525117;5>1545,3723>2251,5;7,,7;8,<7;3,,245,5453>5;71,",
"1:1->>>3;31>4*1>:2;3>,<>>>3>11,3->,%2-5,>2=>>,<13,3<>>%1;21%",
">>1*%>,5@<111@=1>2*1>,-$>>3$=1>3$%>,5*<,>>$>>3-$,,1=$>>3=>,>",
"$o$@#***X@#+*X*@$$o$O@@@*&=X+*+*o@#$*O@@+$O%$=+X$+#O+$@*++@+",
"7;7534;314;;735;4325-7737;5<34=753;;334;4737;7227@7735-7234;",
"7;3,14<313213:3<2,,7-2,,5;3117;3>31<1>342,,5;3,17-3>>5-3>17;",
"2<3>12=111;21:3;,,>3-5:>4=1111<3=<<-1>3=4>>3-2,,2-3>:2-1>1<2",
"=@>:1<O1:1*%1:1=#:>:+:>11+=>>:#1>1;+>:1@=>>3**>>>@,>><+=>>$#",
"=o%@%*X+@=&@**=O@=*=o*@**OO@**+*&=+o%*=+@*@=+o@*%O$$=@o**=@o",
"537274:<-9439;51354835445<=;5537;933747357;71=;;73747317;753",
"115;3>>3-5115;41>22313441>3=3115;31>4251,5;,>2<23,5431>2<51,",
"113==>:5;3111O1111;311;%>:3;1111@:,>5-3111*,=1<<,,3$%113;111",
":>>@%>:1+=:::O::<%O:><%#>:<@&>=<@=>>>O=>>=+>>>=+>>>&$>>1+*><",
"=&=&%***O*@o**=&*@O*+=**=@=o@*o@*=&&@o*@**@=&=O+*o+&%*@*X@*&",
"7;75452434<;61524337-7537;5335-5252<317;573725327*7335;5335;",
"7;>>,1-3112<,%2;31,5;<>,3=3,,5<3%><>1,31<>,3;1117-3:%2-3115;",
",-<>32#,,,-31>3<<::1=3-,5$3,>>-3>12=,>1=2>>5=>1>>-3,,5=,:1<<",
"$@=>>=o=:%++::>+@:::+=::-o$==@o::>$o=-:@%==>+@>=#X%=>%X%=:@@",
"-=2+-**-&-@@=+-$*=*=*;=*=*-&==@=+-$@;@-*;-&-*=**-+-+-=@-@;==",
"538<733728357;7135273554515<7638<7339;835725334481855338;733",
">>3-1,>3-7,,5-3:=1<3>,2<1>1;21,3;1>-3<5>>3-,>>;21,32>,:,;41>",
",>,=:>,5-1,,3$>,>3;3,,<%>,3;11,3=:>>5;31>2#>,11-1,3-:>>3;1,>",
":#-+#==-X#>%=o$===O=$:$@:=:oO=%:o#===O%%$=o:%>@o:%:+@===O#=#",
"<&2>>;-;%<**4-1*;<=<&;<<1=<=;;&4;<==;-<*=2;1=<-=<+<<-;*2-<;*",
"727355;5132<417<4138;5317;5135;5134;33525536;5317=5315<51352",
"7;5>1<-313121:1;3>>3;5>>2=3115<3:1<;1>3<4>>3;4115;5>>2=3>,4<",
">*1:13$,>1=<1:3<:,>,$2>>5*1>1>=1:12#,>,$1>>4->>,>*1>>3*>>1=;",
"@.%#$#X@#=@O%%=oo%*#.##*&X@#%*O#*#OX*%%oO%#=o+$%%o#$$# @*=+X",
"2-4*2<***4;<2=2=<<;4=2;;2=@*;2;<-4<:4-4;<;=2-+*-4=2;2<=2=4<=",
"3,5271,5;6137;4115451355313-4335251>546137;511<4515571,5<711",
",,3->:=3-3114*11>1<313<::=3=3113*>113-3114*1%1;1113-:1>3-211",
",,3$=>>4=3111O1111&211;$,>3;;1,1@:,,3$1,1<@>>1<;,,3%%,,3&-11",
"=$$+*%%# @@OOO##%oX&#*+@%*#.O#o@o$$$@ @*$@+*%%XX$O+O#%#$ +$$",
"4-7322;3<1--525-2<>5*5414;5<22&522;;2>4-2525;5<<5+2224-3>22;",
"7;1115-3132;1=123118;2,15;3117;3:,2<3,521115;3117-3>%5-5137;",
"5;>-11=3,,<41=1<2,>3-2=13%3>13<3:>2-,>3-2>13=1113-5>-2-1>114",
":%1>1<O,>>@=113=$,>>@>>11+=1:=#1>1-@>>,$->>3*=1::@>>,1+>>>==",
"&@=&*#O*$=oO&+=oO$$$+=*&*O&&%@.#@$+o=&%+$=&*++&@&.@@$#X##*@@",
"527;7227-7327=7155;82722535;4537-7337-7555;5344<717;4537;453",
",,7;31>5;7,17;3>>223,1521>1;5115;5,>3<5,,7;3>124313431>3;51>",
",-,=>>>3-3113*>>-1<3>,1=>13;11,3=>>%2<3>-<*>>11;113<=>%2;3,:",
",>1@%>>1+->>>+:>1;@>>>=$><1@*>>1@%>>3@<>>>+>><=+>>1*$:>1&=>:",
"*o*&&*#*O&@+*+%@*&+*o&*&*@=O+*+*+*&&*+*++%@=&=++*+*@#*@%+@&o",
"7;8737;535;<737;5337;5637;7345=7352;515<3838;7327*5335-63542",
"7;3,12;3,32<1:3<1,>5;1,,3;3115;3>,2-1>322,,3;3,,5;3>>3-3,17;",
",>3%,3=,>,>21:3->>>1=3:>5=1>11<3>,2-,>1=3>:3-<,>>=3>>2=1>,<;",
"%O::>-o:=>@@>-,@@>=:o==:<o==:%@==>%o::>O#:=<@#>::@=:>-o==:#+",
"-+-+==++&-*$*&=@&-$-+%&*=+O+==#=&-@@-&;@#*+;@O+&;@=&-*+=*;*+",
"537493;2;7557;83274838775<<;75382732727357453=<282847437;753",
",,3;1:>3-5,,7-,,>223,34;>>3=21,3-11>3;7,14;1=1<<3,3211>1;5>1",
",,3%=>>5;3,,2+,,,2=3,3-%>>3<<112@>,15-3,1<#>>,2;3,3%$1,5-111",
">==@$=:>O$:%%O:->$X>=>$@<=:O@:==+=-==X==-%+:=>@O-%%@#:::X@=:",
";&2->;==@-&@--<&-$$-&;--;=;#==+=-;===$-*->-<=;$#-O=-<=&;#--*",
"7<7335;5332<5,725337-5537;5137;6134<51824538;7338*5315;5337;",
"7;>:1<;3,124,%,-2,,5-,:,1=311513%><>,>3<1:>3;2115;3>=1;3>34<",
"<=3>31@,,,=13,5<:,>,*1>14&11>:;3>12%,><=2>,5=>,>,$3,,5%1>,>;",
"@+=%=&X$%$oo$%%oo==$+%%=%X@%%@.$#-+.=%%+#%%=o+%%@ #$=$ $%=@+",
">-2*<>-2*2==-&2=-;*2=2;=<=<&;==;@2>-2*2-<;$<----2$2$>-%2&;->",
"@+$+@@+$+$+@$O@+@@+#@$+@@@&+@@@#O#++$+@+@&+$@@++#+$+@@+@+@@@"
};
