/* XPM */
static char *result[] = {
/* columns rows colors chars-per-pixel */
"60 60 135 2 ",
"   c #241D1D",
".  c #2C2525",
"X  c #2F2A27",
"o  c #2D2929",
"O  c #342C2D",
"+  c #36312E",
"@  c #353333",
"#  c #3C3736",
"$  c #3E3A37",
"%  c #3E3B3B",
"&  c #403738",
"*  c #423B3C",
"=  c #46423F",
"-  c #413F42",
";  c #454343",
":  c #4B4544",
">  c #4D4947",
",  c #474548",
"<  c #4A4749",
"1  c #4D4A49",
"2  c #524A47",
"3  c #504748",
"4  c #524D4C",
"5  c #55514E",
"6  c #5B524F",
"7  c #4B4E51",
"8  c #504F50",
"9  c #594F50",
"0  c #555252",
"q  c #5B5454",
"w  c #5D5856",
"e  c #5E5B5B",
"r  c #605956",
"t  c #605759",
"y  c #635C5B",
"u  c #62605F",
"i  c #68615E",
"p  c #635E60",
"a  c #666363",
"s  c #6B6463",
"d  c #6B6866",
"f  c #6A6768",
"g  c #6D6B6A",
"h  c #716665",
"j  c #716967",
"k  c #736D6C",
"l  c #77726E",
"z  c #7A706E",
"x  c #6E6F71",
"c  c #736E71",
"v  c #747172",
"b  c #7C7473",
"n  c #7C7877",
"m  c #79777C",
"M  c #7C7A7B",
"N  c #817261",
"B  c #807675",
"V  c #837977",
"C  c #837C7C",
"Z  c #887E7E",
"A  c #84817E",
"S  c #8C837D",
"D  c #A28A71",
"F  c #A5917A",
"G  c #7F7E83",
"H  c #807E81",
"J  c #887F80",
"K  c #858283",
"L  c #8C8383",
"P  c #8C8987",
"I  c #868689",
"U  c #8A878A",
"Y  c #8C8A8B",
"T  c #908685",
"R  c #928987",
"E  c #948C8B",
"W  c #92918F",
"Q  c #9A908F",
"!  c #8F8F91",
"~  c #969393",
"^  c #9A9393",
"/  c #96959A",
"(  c #9B9B9B",
")  c #A39D94",
"_  c #A2A19F",
"`  c #9D9EA2",
"'  c #A2A2A4",
"]  c #ADABAA",
"[  c #B3AFAE",
"{  c #B5B4B3",
"}  c #B9B8B6",
"|  c #B3B4B9",
" . c #BDBBB9",
".. c #CAAF91",
"X. c #E3BA8E",
"o. c #E5BD92",
"O. c #E8BF94",
"+. c #C5B8AA",
"@. c #D3BCA0",
"#. c #C4BDB3",
"$. c #C2BEBB",
"%. c #E6C195",
"&. c #E9C296",
"*. c #E2C199",
"=. c #EDC69A",
"-. c #EEC99D",
";. c #F0C79A",
":. c #F2CB9E",
">. c #CCC0AF",
",. c #D3C2AD",
"<. c #CFC3B3",
"1. c #CCC4B9",
"2. c #D0C1B0",
"3. c #D8C9B5",
"4. c #EECDA1",
"5. c #E8CCAC",
"6. c #F4CEA1",
"7. c #EFD0A4",
"8. c #EBD0AE",
"9. c #F6D2A5",
"0. c #F7D5A9",
"q. c #F8D7A9",
"w. c #F7D8AA",
"e. c #F8D9AC",
"r. c #EDD4B5",
"t. c #E2D1BD",
"y. c #EBD7BB",
"u. c #F4D7B6",
"i. c #F6D9B1",
"p. c #F4DABC",
"a. c #D6CDC3",
"s. c #DACEC0",
"d. c #E6D2C1",
"f. c #E1D6CE",
"g. c #F5E2CC",
/* pixels */
"9.6.;.;.6.9.0.9.9.6.6.6.;.;.6.9.9.9.q.q.9.6.6.6.0.0.q.6.6.6.6.;.;.9.9.9.9.6.9.9.q.6.6.6.q.9.q.q.9.6.9.6.9.q.q.9.0.0.9.9.",
"9.0.9.9.9.0.0.:.6.6.9.q.9.6.9.9.9.9.9.q.6.6.0.9.0.9.6.6.6.q.9.6.6.9.9.9.9.9.q.9.9.9.6.9.9.9.9.q.q.6.6.9.q.9.9.6.9.0.9.:.",
"9.0.9.9.9.9.:.:.6.6.q.q.9.9.9.9.6.6.6.q.9.4.9.0.9.6.:.:.9.0.9.6.9.0.9.6.9.9.9.9.6.6.0.0.9.:.:.9.:.:.9.q.9.9.:.:.-.0.9.9.",
"9.6.6.9.9.9.9.q.9.9.6.6.9.9.9.9.6.9.6.6.9.9.0.0.0.6.6.6.6.6.9.0.0.0.0.9.9.9.9.9.6.6.9.9.9.9.9.:.O.O.:.:.:.6.6.9.6.9.6.9.",
"9.9.9.:.:.:.9.9.9.9.9.9.9.:.:.6.9.9.6.6.6.9.6.6.9.9.0.9.6.6.6.6.6.6.9.9.9.9.9.6.9.9.6.:.6.6.6.6.:.:.:.;.O.;.9.q.9.:.7.9.",
"9.q.q.q.9.9.9.:.:.:.9.q.q.q.9.9.9.9.9.9.0.0.6.6.9.9.0.9.9.0.0.0.6.9.9.9.6.6.6.0.0.0.9.9.9.;.;.6.9.9.:.;.:.:.6.9.9.9.0.0.",
"9.q.q.9.:.9.9.9.6.9.9.q.9.6.6.9.6.6.6.0.0.0.6.0.0.9.6.4.9.9.0.9.9.9.q.9.6.6.9.0.9.6.6.6.9.:.:.6.9.:.;.;.:.9.6.:.:.0.0.0.",
"9.:.:.:.9.9.:.9.q.9.9.:.:.9.9.6.6.6.9.0.6.4.6.0.9.9.4.9.0.9.6.6.9.q.9.9.9.9.9.6.6.6.9.6.6.6.9.9.:.:.:.:.9.:.:.:.9.0.9.:.",
"9.6.9.9.9.:.9.9.q.9.9.:.9.9.9.6.:.9.9.9.9.9.9.0.0.6.9.9.9.9.9.:.7.0.9.6.9.0.9.6.9.9.9.9.:.:.9.9.9.:.:.:.:.:.:.9.9.0.9.9.",
":.9.:.9.9.9.9.9.9.:.:.9.9.9.9.9.9.6.:.7.9.9.6.6.9.9.6.6.:.0.0.0.6.6.9.9.9.6.9.6.9.6.9.9.q.9.q.q.q.9.9.:.:.:.9.9.:.:.0.0.",
":.:.9.9.9.q.9.9.:.:.9.:.9.9.0.9.9.6.9.9.9.9.7.-.4.9.9.6.9.9.9.9.6.6.9.9.6.6.6.6.:.9.9.9.9.9.q.q.q.:.9.9.q.q.9.9.6.9.9.9.",
"q.9.9.9.9.9.:.:.:.9.9.q.9.9.6.9.:.6.0.0.9.-.9.e.0.9.6.9.0.6.-.:.9.0.9.9.6.6.9.9.9.9.9.6.9.:.:.9.q.9.q.q.9.9.:.9.0.9.:.:.",
"9.9.9.9.9.:.9.:.9.q.0.9.9.9.9.6.6.6.9.9.7.7.9.e.9.9.9.9.:.=.=.-.6.6.6.6.9.9.9.9.9.9.9.9.:.9.:.q.9.9.9.9.9.9.:.9.9.6.=.=.",
"9.:.6.9.:.9.9.q.q.:.9.9.q.9.6.6.0.9.6.-.7.1.9.9.0.g.g.p.p.r.4.9.4.4.4.9.9.9.6.:.9.9.9.:.q.q.q.:.9.6.0.0.6.6.9.9.9.;.=.:.",
"9.9.q.9.9.9.9.9.;.;.;.6.9.9.9.9.9.9.9.0.( a ' a.m f x f g g S -.;.O.O.9.9.9.9.9.q.9.9.9.q.6.:.;.;.:.9.0.9.9.6.9.:.6.:.9.",
"9.q.q.9.9.:.:.;.O.X.o.O.=.-.6.9.9.:.7.e.x 0 % < 1 e e o @ u ; ; D 9 O.6.:.:.:.q.q.9.9.:.:.:.O.X.o.O.&.;.:.9.:.;.6.9.9.6.",
"9.9.:.9.6.9.9.:.&.=.=.=.=.:.9.9.9.6.9.e.x c - t J J t t 9 h B y * t *.9.9.9.9.6.:.:.9.9.9.:.;.O.&.;.;.;.6.9.6.6.6.6.:.;.",
"9.:.9.9.9.9.:.9.9.9.6.6.:.-.:.9.6.9.w.i.c k p - J Q 9 B t h J y * b *.6.9.0.q.9.:.9.9.9.:.9.q.9.9.9.:.;.:.6.9.9.9.9.:.;.",
"9.9.9.9.9.:.9.9.9.q.9.:.=.=.;.6.6.6.6.w.c z C q J B t Q h r Z h s T %.:.9.9.:.9.9.9.9.9.:.9.9.q.9.6.;.&.;.:.6.6.q.9.9.9.",
":.:.9.9.9.9.9.9.9.9.9.:.&.;.9.9.9.6.6.8.k c L J E y i J Z 6 B Z K A 0.9.9.6.:.:.9.9.9.q.q.9.9.9.9.:.;.;.6.q.9.9.9.q.9.6.",
"9.9.9.9.9.9.9.6.6.9.9.9.9.9.9.9.9.9.0.q.k j S R C 6 k R Q 6 h T L M 0.0.6.9.9.6.:.9.9.9.9.:.:.9.9.9.9.9.9.q.9.9.q.q.9.:.",
"9.9.9.9.9.9.:.:.:.6.6.6.9.9.9.9.6.6.9.p.d r A S j 6 C R Q z r C L b 9.:.:.6.9.9.9.q.9.9.9.:.:.:.q.q.q.9.9.6.6.6.6.9.6.:.",
":.9.9.q.9.9.9.9.6.;.&.=.:.6.6.9.9.0.9.$.5 5 M K b g E K L U s K n i N 9.9.9.9.9.9.q.9.9.q.9.9.9.6.6.6.9.9.q.9.9.9.;.&.;.",
"9.9.q.q.9.:.9.9.9.:.;.:.:.=.&.:.9.9.9.) 4 y u k M K K U U K H C d w r 9.9.9.6.6.q.q.9.:.9.9.9.9.9.6.9.6.:.:.9.9.9.:.;.:.",
"O.&.-.:.6.6.6.;.:.9.9.9.9.;.-.:.:.6.6.@.p f e p - e m K G x - 0 a u g 9.-.&.%.%.;.:.6.6.6.6.6.6.9.q.q.9.9.6.:.;.:.9.6.9.",
"o.&.=.;.6.9.6.:.:.6.6.;.;.;.6.9.6.6.9.7.M x p Y , M / I I ` 7 x M w q.9.=.X.X.&.&.;.:.9.9.6.6.6.9.9.9.9.9.9.9.;.6.6.6.:.",
":.:.:.:.6.9.9.6.9.6.6.=.;.:.:.:.6.0.9.9.` % < K 0 / ` I I | a x l 4.0.9.:.;.:.6.6.:.:.9.9.9.q.9.q.6.:.:.9.6.:.9.9.6.:.;.",
"9.9.;.;.:.6.6.9.q.9.6.:.:.6.;.:.:.9.i.I 1 @ ; d G ! U I ! Y G G > 0.9.6.0.0.9.6.:.;.;.6.9.9.9.9.9.:.9.q.9.:.:.9.9.9.6.6.",
"9.6.;.&.=.6.9.9.0.0.0.6.:.:.:.9.0.9.A 1 d M 0 4 p b K Z I M m 8 ; 0.0.0.9.9.9.9.;.&.=.:.6.9.9.9.6.6.9.9.9.9.9.q.q.q.9.6.",
"9.9.;.;.6.0.0.9.9.0.9.6.9.9.9.9.9.t.1 g Q E M d 4 2 2 9 7 : 1 q 0 1 F 9.9.9.9.9.:.:.:.9.q.9.6.6.6.6.9.6.9.9.9.9.9.q.9.6.",
"9.q.q.9.9.9.9.:.6.9.9.6.9.q.9.9.6.b = l Z L S V s r y 6 r r t b A S S l =.:.6.9.9.9.9.9.9.6.6.9.9.9.9.9.6.9.6.6.6.q.q.9.",
"9.9.9.6.9.9.6.6.9.:.=.=.6.9.9.9.6.d > w 2 z T L T j z z z k V L S W W ) r ..:.=.;.:.9.9.6.6.6.9.9.9.9.9.9.9.6.6.9.9.9.9.",
"9.9.9.6.6.9.9.9.6.:.;.;.6.;.;.6.+.$ 5 5 # 5 n S T T T T T J Z T T Z Z J k 2 :.=.:.:.-.-.9.9.9.9.6.9.9.6.6.9.9.9.q.9.6.6.",
"6.9.q.9.6.9.6.6.6.6.:.9.6.;.=.6.W @ 5 > + # i b L L T Z T T T T Z h t i i 6 6.:.9.:.=.;.:.0.9.6.6.9.q.9.9.6.9.6.6.6.6.q.",
"9.q.q.9.9.6.6.:.:.6.9.6.;.;.;.6.W 1 e 0 . . 2 z T R T S T R T T B 2 & t a 9 ,.6.6.;.;.:.9.:.:.:.9.q.9.9.6.9.6.6.:.9.q.q.",
"9.9.6.:.6.6.6.:.6.9.:.;.;.;.9.6.W = u u # o # 6 h V T T T Z B i 9 & O y b q #.6.;.=.:.9.:.:.9.9.9.9.6.6.9.6.9.6.6.9.9.6.",
"9.6.:.9.9.6.:.9.9.9.6.;.;.6.6.:.~ % u w ;   & t h Z Q Q Q R B y *   . h T h 2.:.;.:.:.:.9.9.q.q.9.:.6.9.9.6.9.9.q.q.6.:.",
"9.9.9.9.9.:.6.6.9.0.9.6.9.6.;.;.+.a 5 0 #   & y h V S Z T Z B y 9 . & V E p 2.9.:.6.:.;.:.9.:.9.9.9.9.9.9.6.6.9.9.9.6.9.",
":.6.9.9.9.q.9.9.9.q.0.6.9.6.9.0.9.} a a > o : p t p k z z h r 9 - & 2 Z C 4 #.9.9.9.:.q.9.9.9.:.6.6.9.9.9.9.9.6.6.:.6.9.",
"6.6.9.9.9.9.9.9.9.q.9.6.9.9.9.0.9.9.0.y.$.; q y t 9 3 3 2 : 2 r 9 & h J m < #.9.6.9.9.q.9.9.9.9.6.6.9.9.9.9.9.9.9.6.6.6.",
"9.7.6.9.q.9.6.;.6.9.0.9.0.0.9.6.:.6.9.9.d.0 4 d d 0 $ C w + 5 u 1 # 1 k k * 3.q.q.9.9.9.:.:.:.9.6.:.6.9.9.6.:.:.:.9.9.7.",
"6.7.9.q.q.9.9.9.6.9.9.9.0.6.9.9.6.9.:.;.5.: q b n 4 5 f.W X 2 5 > O 1 g q S 9.9.9.9.9.9.9.9.9.:.=.=.6.6.6.6.9.9.6.6.6.7.",
"6.9.9.6.6.6.9.0.9.6.6.0.0.9.9.6.9.9.9.;.=.k : M Z ; = 9.W X > w q # 1 l P 0.9.:.9.9.:.9.9.9.9.:.=.;.:.;.=.:.9.9.9.6.9.9.",
"9.9.9.6.6.9.9.6.=.&.&.=.4.6.9.6.:.:.6.6.9.[ : M k > L =.P # w g s 1 L u.9.:.:.q.q.9.9.:.:.:.:.9.9.9.9.;.=.:.9.9.9.9.9.w.",
"q.9.9.q.0.0.9.=.%.X.X.%.&.;.9.q.:.;.:.9.9.g - a a * [ %.W > A I Y g u 8.:.:.9.q.q.9.9.q.9.:.;.9.6.6.;.;.6.7.6.6.7.w.9.9.",
"9.9.6.7.0.0.9.6.;.;.:.6.6.;.9.9.9.6.9.:.{ < q a s ; ^ -.+.w n K C L 5 >.9.q.q.:.:.:.:.:.:.9.:.9.6.;.&.;.:.6.6.6.9.9.9.9.",
"9.9.7.6.9.9.6.9.0.9.9.:.:.6.6.6.6.9.9.9.f ; v P K q 4 0.9.] g 8 e w g 0.9.9.9.9.9.9.9.:.:.:.q.q.9.6.6.7.:.=.:.6.9.9.w.7.",
"9.9.9.9.9.9.0.9.q.9.9.;.&.&.;.6.9.9.0.i.v 7 M v M f 1 y.0.9.<. .{ } r.0.9.9.:.:.9.9.9.q.9.9.9.9.q.9.6.:.:.6.9.6.6.6.9.9.",
"9.w.9.7.6.9.9.9.9.9.9.6.;.:.9.9.9.q.9.q.^ = 1 , 1 = v w.9.9.9.=.-.9.0.9.9.9.9.:.6.9.9.9.9.9.9.q.9.9.6.6.9.q.0.9.6.9.9.9.",
"w.9.6.6.9.9.6.6.6.6.9.9.6.9.9.9.9.6.9.q.i._ ( P Y ) s.7.6.9.9.6.9.0.9.9.:.:.9.9.0.9.9.:.9.9.9.9.9.:.9.9.9.9.6.6.6.w.9.6.",
"9.6.6.9.w.9.6.9.6.9.9.9.9.9.9.9.6.6.9.9.9.0.7.w.9.6.:.6.9.9.9.9.0.0.9.:.:.9.9.0.9.9.9.9.9.;.:.9.q.9.9.q.0.9.6.:.6.9.9.6.",
"9.9.w.9.6.6.9.9.9.9.9.9.w.9.9.9.9.9.9.9.6.q.w.7.6.6.9.9.-.4.9.0.0.0.9.9.q.q.:.9.6.6.6.9.9.9.9.:.:.9.9.q.0.9.9.9.7.6.4.9.",
"-.-.9.9.6.9.9.9.;.;.=.6.w.9.6.6.9.6.;.&.4.0.0.4.6.9.q.9.6.7.q.9.:.6.9.9.9.9.:.9.0.9.9.:.9.0.0.6.4.9.9.6.6.9.0.0.0.4.6.9.",
"%.%.-.:.9.9.9.;.%.%.%.&.-.6.9.6.6.&.%.%.%.=.-.6.9.9.6.6.9.q.q.9.6.6.q.9.:.:.9.q.q.9.9.9.9.6.6.0.w.w.9.6.6.9.0.6.6.q.w.q.",
"%.&.;.;.6.9.9.;.&.&.&.&.=.;.6.q.6.=.%.&.=.=.=.6.6.9.6.4.9.9.9.4.0.0.9.9.:.9.9.9.6.6.6.6.6.6.-.9.9.9.6.9.q.9.6.6.4.9.9.9.",
":.:.;.;.6.9.9.6.7.6.6.:.:.:.6.9.9.9.6.:.6.;.=.6.7.9.9.9.9.9.6.-.6.0.9.9.q.q.9.:.:.6.9.9.6.6.9.0.9.6.-.4.0.0.6.6.9.0.9.;.",
"9.6.;.&.&.:.6.9.q.9.9.6.&.&.=.6.9.0.0.9.9.-.&.=.-.:.6.6.6.9.9.9.9.9.9.:.9.9.9.9.9.9.6.-.-.:.9.9.9.0.7.6.9.9.6.6.6.6.0.9.",
"7.6.&.&.:.7.7.6.6.7.7.;.%.&.-.7.6.6.6.6.4.&.&.=.4.7.6.:.-.7.9.7.;.:.-.9.9.-.-.-.:.9.9.9.7.9.;.-.6.9.7.-.-.4.4.6.-.-.9.9.",
"-.4.-.-.4.7.7.-.;.-.:.7.-.4.7.9.6.-.;.4.4.4.-.4.6.6.:.4.4.7.4.-.7.-.7.9.7.-.-.-.-.7.4.4.9.-.-.7.7.4.4.4.4.4.6.4.4.7.7.4.",
"-.-.4.4.4.-.-.=.;.-.:.7.4.-.4.-.-.;.&.4.7.7.4.-.4.-.-.4.7.-.=.=.4.7.-.=.=.=.7.-.-.-.4.-.-.-.-.7.7.-.-.4.7.4.=.;.4.7.7.=."
};
