/* XPM */
static char *result[] = {
/* columns rows colors chars-per-pixel */
"60 60 169 2 ",
"   c #030303",
".  c #0A0504",
"X  c #060804",
"o  c #0B0906",
"O  c #070508",
"+  c #060A09",
"@  c #0E0C0B",
"#  c #160501",
"$  c #1D0601",
"%  c #170805",
"&  c #1C0A04",
"*  c #120E0D",
"=  c #1C0E09",
"-  c #11110E",
";  c #1B130E",
":  c #110F10",
">  c #151413",
",  c #181615",
"<  c #1A1916",
"1  c #191719",
"2  c #1C1B1A",
"3  c #230703",
"4  c #240B06",
"5  c #2A0C06",
"6  c #240E09",
"7  c #2B0E09",
"8  c #330C05",
"9  c #3E0C06",
"0  c #340E0A",
"q  c #3B0E09",
"w  c #271004",
"e  c #2E1207",
"r  c #24110B",
"t  c #2C120C",
"y  c #32130C",
"u  c #3A140C",
"i  c #32180E",
"p  c #251513",
"a  c #2D1611",
"s  c #211916",
"d  c #2C1913",
"f  c #201719",
"g  c #211E1D",
"h  c #321511",
"j  c #331913",
"k  c #3B1C14",
"l  c #361D1B",
"z  c #3A1E18",
"x  c #21201F",
"c  c #2B201C",
"v  c #3D201B",
"b  c #201F20",
"n  c #242322",
"m  c #2A2926",
"M  c #2F2B28",
"N  c #302A26",
"B  c #302F2D",
"V  c #3C2B29",
"C  c #353432",
"Z  c #3F3933",
"A  c #430000",
"S  c #410A05",
"D  c #4D0E05",
"F  c #410E0A",
"G  c #480F08",
"H  c #43130B",
"J  c #4B120C",
"K  c #411F16",
"L  c #4E1913",
"P  c #521512",
"I  c #581411",
"U  c #511A16",
"Y  c #631310",
"T  c #6D1413",
"R  c #611B19",
"E  c #721413",
"W  c #7E1514",
"Q  c #7F1719",
"!  c #7E1C1D",
"~  c #452219",
"^  c #7E211C",
"/  c #44322A",
"(  c #4E382E",
")  c #484036",
"_  c #50463D",
"`  c #544A41",
"'  c #584F41",
"]  c #5C5246",
"[  c #684F42",
"{  c #615043",
"}  c #6D5F4F",
"|  c #77604E",
" . c #7D6C58",
".. c #8E1315",
"X. c #841816",
"o. c #8C151A",
"O. c #831D19",
"+. c #9D1718",
"@. c #941B1D",
"#. c #9C1B1D",
"$. c #AA1416",
"%. c #A41B1D",
"&. c #AC1A1D",
"*. c #BC141C",
"=. c #B31C1E",
"-. c #BD1A1F",
";. c #911D20",
":. c #A51C22",
">. c #AF1E23",
",. c #B41B20",
"<. c #BC1D21",
"1. c #AC2220",
"2. c #C70F14",
"3. c #C91216",
"4. c #C4141B",
"5. c #CD141C",
"6. c #C31A1F",
"7. c #CB181C",
"8. c #D2151D",
"9. c #DC131D",
"0. c #D0191F",
"q. c #E1131C",
"w. c #E71A1F",
"e. c #ED191F",
"r. c #F1161E",
"t. c #C61120",
"y. c #CB1720",
"u. c #C31D21",
"i. c #CC1C22",
"p. c #D11D23",
"a. c #DD1E23",
"s. c #E61721",
"d. c #ED1621",
"f. c #E41A22",
"g. c #EA1A21",
"h. c #F21521",
"j. c #F01824",
"k. c #C62324",
"l. c #877563",
"z. c #8A7963",
"x. c #9E876E",
"c. c #A48A6F",
"v. c #B49B7C",
"b. c #BCA282",
"n. c #C2A786",
"m. c #C7AA88",
"M. c #CBB18D",
"N. c #D2B48D",
"B. c #D4B590",
"V. c #D7BA94",
"C. c #DDBC94",
"Z. c #E2BA8E",
"A. c #E5BD92",
"S. c #E8BF94",
"D. c #E7C195",
"F. c #EAC296",
"G. c #E5C39A",
"H. c #EDC699",
"J. c #EEC99D",
"K. c #F0C79B",
"L. c #F2CB9E",
"P. c #EECDA1",
"I. c #F4CEA1",
"U. c #EFD0A5",
"Y. c #F6D2A5",
"T. c #F7D6A8",
"R. c #F8D7A9",
"E. c #F7D9AA",
"W. c #F8D9AC",
/* pixels */
"Y.I.K.H.Y.Y.T.Y.Y.I.I.I.K.K.Y.Y.Y.R.R.R.Y.I.I.I.T.T.Y.I.I.I.I.K.K.I.T.T.Y.I.Y.Y.R.Y.L.I.Y.Y.Y.R.Y.Y.Y.Y.Y.Y.R.Y.T.Y.T.I.",
"Y.T.Y.Y.Y.Y.Y.I.I.I.Y.R.Y.Y.Y.Y.Y.I.Y.R.I.P.Y.T.Y.Y.I.I.I.Y.Y.I.I.Y.T.Y.I.Y.Y.R.Y.Y.I.Y.Y.Y.Y.R.Y.Y.Y.Y.Y.Y.Y.Y.Y.E.Y.L.",
"Y.T.Y.Y.Y.Y.Y.L.I.I.Y.R.Y.Y.Y.Y.I.I.I.R.Y.I.T.T.Y.I.I.I.I.T.Y.Y.I.T.Y.I.I.Y.Y.Y.I.I.Y.R.Y.L.L.Y.L.L.Y.Y.Y.Y.L.L.J.Y.Y.Y.",
"Y.I.I.Y.Y.Y.Y.Y.Y.Y.Y.I.I.Y.I.Y.I.Y.I.I.Y.Y.T.T.T.Y.I.I.I.Y.Y.Y.T.T.T.Y.Y.R.Y.I.I.Y.Y.Y.Y.Y.Y.K.H.S.L.L.L.I.Y.Y.Y.I.Y.Y.",
"Y.Y.Y.Y.L.L.Y.Y.Y.Y.Y.Y.Y.Y.I.L.Y.Y.Y.I.I.Y.P.I.I.Y.T.Y.I.I.Y.Y.I.I.T.Y.Y.Y.Y.I.Y.Y.L.L.Y.Y.Y.I.L.L.L.H.S.L.Y.Y.Y.J.U.Y.",
"Y.Y.R.R.Y.Y.Y.L.L.I.Y.R.Y.Y.Y.Y.Y.Y.Y.Y.T.T.Y.I.Y.T.Y.Y.Y.T.T.Y.I.I.T.I.I.L.Y.T.R.Y.Y.Y.L.K.K.Y.Y.Y.Y.K.K.L.Y.Y.Y.Y.T.T.",
"Y.Y.Y.L.Y.Y.Y.Y.I.Y.Y.Y.Y.I.Y.Y.I.I.I.T.Y.Y.Y.Y.T.Y.I.P.Y.T.T.Y.Y.T.T.Y.I.g Y.T.Y.I.Y.Y.Y.L.L.L.L.L.K.K.L.Y.L.L.L.T.T.Y.",
"Y.Y.L.Y.Y.L.L.Y.R.Y.Y.I.L.Y.Y.I.I.I.I.T.Y.P.I.T.T.I.P.Y.T.Y.I.P.I.T.Y.Y.Y.' Y.Y.I.I.Y.I.L.Y.Y.Y.L.L.L.L.L.L.L.Y.Y.T.Y.I.",
"Y.I.Y.Y.Y.Y.L.Y.Y.Y.L.Y.Y.Y.Y.I.I.Y.Y.Y.Y.I.I.Y.T.I.I.T.I.I.T.I.I.Y.Y.Y.] Y.I.I.Y.Y.Y.Y.L.Y.R.Y.Y.L.L.Y.K.L.L.I.Y.Y.Y.I.",
"L.Y.L.Y.Y.R.Y.Y.Y.Y.Y.L.Y.Y.Y.Y.Y.I.I.Y.T.T.Y.I.Y.Y.I.I.I.T.T.I.I.I.Y.Y.b I.I.I.L.Y.Y.Y.Y.Y.Y.R.R.Y.L.L.L.Y.Y.Y.I.I.T.R.",
"L.L.Y.Y.Y.Y.Y.Y.Y.L.L.Y.I.Y.G.J.I.I.I.Y.Y.Y.P.P.P.T.I.I.I.Y.T.I.I.I.T.2 m I.I.I.Y.Y.Y.Y.Y.Y.Y.Y.Y.Y.Y.R.Y.R.Y.Y.I.I.Y.Y.",
"Y.Y.Y.Y.L.Y.Y.L.L.Y.Y.Y.T.Y.I.n C.I.T.T.I.J.Y.E.T.Y.I.T.T.I.J.I.T.T.I.2 C.I.Y.T.Y.Y.Y.Y.L.Y.Y.Y.R.Y.Y.Y.Y.Y.L.Y.T.T.I.L.",
"Y.Y.Y.Y.Y.Y.Y.L.Y.Y.T.Y.Y.Y.Y.I.n I.Y.Y.Y.I.Y.W.T.Y.L.Y.I.H.H.L.I.T.2 > Y.Y.Y.Y.Y.Y.Y.Y.L.Y.Y.Y.Y.Y.Y.T.Y.I.L.Y.Y.I.H.H.",
"L.Y.Y.Y.L.Y.Y.Y.Y.L.Y.Y.R.Y.I.I.2 < P.J.J.Y.Y.Y.Y.Y.Y.Y.P.H.J.I.K.J.2 1 Y.Y.I.Y.Y.Y.Y.L.Y.Y.Y.L.Y.Y.T.T.Y.I.Y.Y.I.K.H.L.",
"Y.Y.Y.Y.Y.Y.Y.Y.L.K.K.L.Y.Y.Y.Y.G.n , G.T.Y.L.K.Y.Y.I.I.I.L.I.I.K.c.g % Y.Y.Y.Y.Y.Y.Y.L.Y.Y.L.K.K.L.Y.T.Y.Y.I.Y.I.I.I.Y.",
"Y.R.R.Y.Y.L.L.K.S.A.A.F.H.L.I.Y.Y.2 2 2 M.T.Y.Y.Y.Y.L.L.Y.Y.I.L.K.: : l.L.L.f R.Y.Y.Y.Y.Y.L.S.Z.A.S.F.K.L.Y.L.K.I.I.Y.I.",
"Y.I.L.Y.Y.Y.Y.L.H.F.F.H.H.K.I.Y.Y.B.1 - @ - 1 V.W.Y.I.I.I.L.K.H.L.> - Y.Y.< C.Y.L.L.Y.Y.Y.L.K.F.K.K.K.K.I.Y.I.I.I.I.L.K.",
"Y.Y.I.Y.Y.L.Y.Y.T.Y.I.I.L.L.I.I.I.Y., 1 , - - o   I.I.T.Y.I.K.L.@ @ - I.B > Y.Y.I.Y.Y.I.Y.Y.Y.Y.I.I.I.K.I.Y.I.Y.R.I.L.K.",
"Y.Y.Y.Y.Y.L.Y.Y.Y.R.Y.I.H.H.L.I.Y.I., , ,   @ % $ 3 6 / B.T.I.    > : _ > > Y.Y.Y.Y.Y.I.L.Y.Y.Y.Y.L.K.F.K.L.I.Y.Y.R.Y.Y.",
"L.L.Y.Y.Y.Y.Y.Y.Y.I.I.L.H.K.Y.Y.Y.m < < O & 7 e 0 ;.9 4 y r 6 o O   O * , ( L.L.Y.Y.Y.T.R.Y.Y.Y.Y.I.K.K.I.Y.Y.Y.Y.R.Y.I.",
"Y.Y.Y.Y.Y.Y.Y.L.I.I.Y.Y.I.Y.Y.T.Y.> < O # $ w 7 y 5 &.t.*.3.$       .     > C.I.I.Y.Y.Y.Y.Y.L.Y.I.Y.Y.Y.Y.Y.Y.Y.Y.R.Y.I.",
"Y.Y.Y.Y.Y.Y.L.L.I.I.I.I.Y.Y.Y.I.Y.2 . # 3 7 4 e 0 , r V < $         P 3 5 .     T.Y.Y.I.Y.L.L.L.R.R.R.Y.Y.Y.I.I.I.Y.I.I.",
"Y.Y.Y.Y.Y.Y.Y.Y.I.H.F.H.I.I.I.I.b.v.# 4 y e i u k , < 1 1 f y r     3 A 0 5 5 D.Y.T.Y.Y.Y.Y.Y.Y.I.I.I.Y.Y.Y.Y.Y.I.K.F.K.",
"Y.Y.R.R.Y.L.Y.Y.Y.I.K.L.I.S.H.I.Y.c.t t 7 5 i 0 ~ , , g < < ; t e q *.4.$.*.7 5 6 R.Y.I.Y.Y.Y.Y.Y.Y.Y.I.I.I.I.Y.Y.L.K.K.",
"S.S.J.L.I.Y.L.K.L.Y.Y.Y.I.K.K.I.I.i e 3 u H t 0 K < < 2 x < 1 > , 4 4 D 2.4.5.F i w L.N.Y.I.I.I.Y.R.E.Y.I.I.I.H.L.Y.I.Y.",
"S.S.H.K.L.T.Y.L.K.Y.I.K.K.K.I.I.I.y t w k.6.@.G H ; < < < > < 2 1 , a 7 6 8 Q @.u e - - - N I.Y.Y.I.v.} ) 2 V.L.L.I.I.L.",
"L.L.L.L.L.Y.Y.I.Y.Y.L.H.K.K.I.I.I.i 7 9 w.r.d.u.U p < - 2 x < < < 3 y 6 a 7 8 r & = < < ; - x 2 c x < 2 Y.I.I.I.Y.I.L.K.",
"Y.L.L.K.L.Y.L.Y.T.Y.I.I.I.I.K.K.h y i S d.p.d.d.<.r > m x < 2 = 7 4 t # r e t 3 4 p < < < - x 2 < x Y.Y.Y.I.L.I.R.Y.I.I.",
"Y.L.K.F.J.L.Y.Y.T.T.T.I.I.L.P.Y.7 7 7 U T W #.f.d.L < n < 2 = & w & t 4 6 y 7 z a 7 O < > < > > I.I.Y.Y.Y.R.Y.Y.Y.R.Y.Y.",
"Y.Y.L.L.I.T.T.Y.T.T.Y.I.I.Y.Y.T.t i @.p.f.d.w.w.h.J < g < s = w a & 4 a a 4 k 3 h 7 & 1 < < < I.I.I.I.I.Y.Y.Y.Y.R.R.Y.I.",
"Y.R.Y.Y.Y.Y.L.L.I.Y.Y.I.Y.T.- % 5 i d.h.g.s.j.d.p.a f 6 a h i t +.-.6.6.7.y.*.,.X.G t = < ; V I.I.Y.Y.Y.Y.I.I.I.I.Y.Y.Y.",
"R.Y.Y.Y.Y.Y.L.Y.I.P.H.H.I.n., % 7 u d.:.T O.#.>.^ t v d 6 p 0 @.0.q.9.q.9.9.q.q.8.:.0 a - s I.Y.R.Y.Y.Y.Y.Y.Y.Y.Y.R.Y.Y.",
"L.L.Y.Y.Y.L.Y.Y.Y.L.K.K.I.1 < . u 1.w.0 i 7 i 0 t i a 3 e j 7 =.9.8.<.:.;...=.5.9.=.u & P.< Y.Y.I.I.Y.Y.I.I.Y.Y.Y.Y.I.I.",
"Y.Y.Y.R.L.Y.Y.L.Y.L.I.I.I.1 g . i f.e.e y K k h j i r a t a p P o.I ..6.y.9.9.q.9.%.t 6 Y.P.Y.I.Y.Y.R.Y.Y.I.Y.Y.Y.I.Y.Y.",
"Y.R.R.Y.Y.Y.L.L.L.L.Y.L., , < + 7 f.a.5 y y 4 7 h 4 r t h d U ..u.y.q.9.9.q.9.5.*.R 4 d Y.L.L.I.Y.R.Y.Y.Y.Y.I.I.L.Y.R.R.",
"Y.Y.Y.L.L.Y.Y.L.Y.Y.p < , < < O w =.#.7 y y i d k 7 6 t 6 h u.a.q.q.q.9.7.u.:.T 8 r 5 Y.L.I.I.Y.Y.Y.I.I.I.Y.I.I.I.Y.Y.I.",
"Y.L.L.Y.Y.Y.L.Y.b.2 - : > , < O e H q y y k 7 p j t r 4 7 L q.q.q.8.,.E P 0 5 i 6 t 5 L.L.Y.R.R.Y.I.I.Y.Y.Y.I.T.R.Y.I.I.",
"Y.Y.Y.Y.Y.L.L.Y.T.T.Y.Y.I.L.1 o 7 K y k t 7 t t 7 r j t 5 I f.8.;.J 7 j 5 k j 6 t r l K.L.Y.Y.Y.Y.I.Y.Y.I.I.I.Y.Y.Y.I.Y.",
"L.Y.Y.Y.Y.R.Y.Y.Y.T.Y.Y.Y.Y.Y.M C.y r 0 7 7 5 5 d = 4 t j F q.&.5 3 h y j p t a 6 4 Y.Y.Y.Y.Y.L.I.I.Y.Y.Y.T.I.Y.I.I.I.I.",
"Y.L.L.Y.Y.Y.Y.Y.Y.T.Y.I.Y.Y.Y.Y.Y.[ y y k r p n = t 6 h h ! 9.#.6 4 6 4 d 0 t # # a Y.Y.Y.Y.Y.Y.I.I.Y.Y.Y.Y.Y.Y.Y.I.I.I.",
"Y.I.I.Y.Y.Y.I.L.L.T.T.T.Y.Y.Y.Y.I.L.h & 6 1 2 n p = t a Y p.q.:.7 t i r e t & 7 r { Y.Y.L.L.I.I.L.L.I.Y.Y.Y.I.L.J.Y.Y.P.",
"I.Y.Y.T.T.T.Y.Y.I.Y.Y.Y.T.Y.Y.Y.Y.I.I.p < < < 2 < = 6 d :.i.y.E 5 5 7 r 4 $ 4 w # X z.Y.Y.Y.I.L.F.H.L.Y.I.L.I.L.I.I.Y.Y.",
"I.Y.Y.Y.I.Y.T.Y.Y.I.Y.Y.T.T.Y.I.Y.Y.1 < < 2 < 2 < < $ 5 q W T y 3 k 7 3 6 p 4   1 , I.Y.Y.T.Y.L.L.L.L.K.K.L.T.T.Y.I.Y.Y.",
"U.Y.Y.I.L.Y.Y.L.H.S.F.H.L.I.I.I.I.L.I., < 1 2 2 2 2 % 7 $ 3 a t 0 j r 4 3 %   > > , Y.L.L.L.L.Y.Y.I.I.H.H.L.L.T.Y.Y.Y.Y.",
"E.Y.Y.T.T.T.Y.J.A.Z.Z.S.F.L.Y.Y.I.J.L.I., m < 1 2 < 2 % 7 t k t 7 3 # 7 . @ , , ; n.Y.Y.Y.K.K.Y.I.L.L.L.I.I.I.I.I.Y.T.T.",
"T.Y.I.I.Y.T.Y.L.K.L.L.I.L.L.I.Y.Y.I.I.I.n C 1 > < < 2 Z L.I.| ( l $ r O < < < , * L.Y.Y.I.Y.Y.L.L.L.H.K.L.I.I.I.U.E.Y.I.",
"T.I.I.Y.T.Y.I.Y.T.Y.I.L.L.L.I.I.I.Y.T.I.M b 2 P.n > x.` T.I.I.L.J.I.@ < < < , < < T.Y.L.L.L.T.Y.I.I.I.I.P.J.H.I.I.T.T.I.",
"I.T.Y.I.Y.Y.T.T.Y.T.Y.J.S.H.J.Y.Y.Y.Y.2 n < I.I.2 : T.T.Y.Y.L.F.F.J.I.Y.Y.Y. .x m < Y.T.Y.Y.Y.T.E.I.I.L.L.P.T.I.I.I.I.T.",
"T.T.Y.I.P.Y.Y.T.Y.Y.Y.Y.K.L.Y.Y.T.Y.E.m > P.I.z.@ T.Y.Y.Y.Y.I.H.J.Y.T.T.Y.Y.I._ < n Y.Y.Y.Y.T.R.Y.I.I.Y.Y.T.T.Y.Y.U.T.T.",
"T.I.I.Y.Y.Y.I.L.L.I.Y.T.Y.Y.Y.Y.Y.I.I.c Y.Y.E.> > Y.L.L.I.Y.Y.Y.Y.T.Y.I.L.L.Y.Y.] 2 2 Y.Y.Y.I.Y.Y.I.I.T.Y.Y.I.L.Y.Y.Y.J.",
"T.I.I.Y.R.T.I.I.I.Y.Y.Y.Y.Y.Y.Y.I.I.| T.Y.Y.Y.2 Y.I.L.L.I.Y.Y.Y.T.T.I.I.I.Y.Y.Y.Y.Y.m.g Y.K.L.Y.Y.Y.Y.T.R.Y.I.L.Y.Y.Y.Y.",
"I.T.E.Y.I.I.I.T.I.Y.Y.T.T.Y.Y.I.Y.Y.Y.Y.Y.T.J. .I.I.Y.Y.I.I.Y.Y.T.T.Y.Y.T.Y.Y.I.Y.Y.I.F.Y.Y.Y.L.I.Y.Y.T.T.Y.Y.Y.Y.I.J.Y.",
"H.P.Y.Y.I.I.Y.Y.H.H.H.I.T.T.I.I.Y.I.K.J.J.U.m Y.L.Y.T.Y.I.U.Y.Y.L.Y.Y.Y.Y.Y.Y.L.T.Y.Y.L.J.Y.Y.Y.J.Y.T.J.I.Y.T.T.Y.P.Y.Y.",
"D.D.H.L.I.T.Y.L.D.D.D.H.H.I.Y.I.I.H.A.Z.D.J., Y.Y.Y.Y.I.T.E.E.Y.L.Y.Y.Y.L.L.Y.R.T.T.Y.Y.Y.Y.Y.Y.E.E.Y.Y.I.T.Y.Y.Y.T.E.T.",
"D.H.H.K.L.Y.Y.K.F.D.H.H.H.L.I.T.Y.F.A.F.F.H.H.J.Y.Y.I.J.Y.Y.Y.Y.Y.R.Y.Y.Y.Y.Y.Y.Y.L.L.I.Y.L.J.Y.Y.Y.Y.Y.T.E.I.L.L.Y.Y.Y.",
"L.L.L.L.L.T.I.I.I.L.L.L.H.L.I.T.Y.Y.Y.L.L.J.J.I.Y.Y.Y.Y.Y.Y.L.J.Y.T.Y.Y.Y.R.Y.L.L.L.T.Y.L.Y.Y.T.Y.U.J.L.Y.Y.I.Y.T.Y.Y.P.",
"I.I.H.H.H.P.I.T.T.T.I.L.H.D.H.P.Y.T.T.Y.Y.J.F.F.L.J.L.Y.L.Y.Y.U.I.Y.I.I.Y.Y.I.Y.Y.Y.I.I.J.J.Y.Y.Y.Y.U.Y.Y.Y.I.I.I.I.Y.Y.",
"I.I.H.D.J.I.U.I.L.I.I.P.D.H.J.I.Y.I.L.Y.U.H.F.F.Y.Y.L.J.J.Y.Y.Y.L.L.P.I.Y.L.J.L.I.P.I.Y.Y.I.L.J.Y.Y.U.J.J.P.U.P.J.L.Y.T.",
"P.P.J.J.L.I.U.P.J.J.P.P.J.J.Y.I.I.J.J.J.P.J.J.J.Y.Y.L.U.P.U.Y.J.U.J.U.I.J.J.J.J.J.U.P.U.U.L.J.Y.Y.U.J.J.P.P.Y.P.P.U.P.P.",
"J.J.P.J.P.P.H.F.H.J.P.U.P.P.J.J.J.H.J.J.U.U.P.J.J.J.J.J.U.J.G.G.J.U.J.J.J.J.U.J.J.J.J.J.J.J.J.U.P.J.J.P.P.J.J.J.P.P.P.J."
};
