/* XPM */
static char *result[] = {
/* columns rows colors chars-per-pixel */
"60 60 176 2 ",
"   c #110F0F",
".  c #13110F",
"X  c #141313",
"o  c #191615",
"O  c #1B1A15",
"+  c #1B1718",
"@  c #1C1B1B",
"#  c #211E1E",
"$  c #24221B",
"%  c #29251D",
"&  c #29281E",
"*  c #201F20",
"=  c #232222",
"-  c #292626",
";  c #2D2A25",
":  c #2C2A29",
">  c #322D26",
",  c #322D2D",
"<  c #392E2F",
"1  c #343327",
"2  c #3C3227",
"3  c #36312D",
"4  c #3A342C",
"5  c #373829",
"6  c #3B392C",
"7  c #362D30",
"8  c #3A2E31",
"9  c #363131",
"0  c #3A3433",
"q  c #3E3936",
"w  c #3F3A38",
"e  c #423A2D",
"r  c #4B3E2B",
"t  c #543D27",
"y  c #523E2C",
"u  c #413536",
"i  c #433B34",
"p  c #493E35",
"a  c #433639",
"s  c #433C3B",
"d  c #4B3D3D",
"f  c #4E422D",
"g  c #53442D",
"h  c #5A462D",
"j  c #5D492C",
"k  c #474535",
"l  c #4A4335",
"z  c #494936",
"x  c #46413E",
"c  c #4B433D",
"v  c #4B4B38",
"b  c #544432",
"n  c #594531",
"m  c #554934",
"M  c #5B4933",
"N  c #51433D",
"B  c #534C3C",
"V  c #5C4D3A",
"C  c #5D5137",
"Z  c #56533F",
"A  c #5E513D",
"S  c #614C2C",
"D  c #614F35",
"F  c #645235",
"G  c #61533D",
"H  c #69563C",
"J  c #67583E",
"K  c #6B5B3C",
"L  c #775730",
"P  c #765936",
"I  c #7C5C34",
"U  c #755A3D",
"Y  c #795D3C",
"T  c #7D603A",
"R  c #4C3F40",
"E  c #474240",
"W  c #4B4442",
"Q  c #4E4945",
"!  c #534544",
"~  c #544A46",
"^  c #5A4C45",
"/  c #554B49",
"(  c #5A4C4A",
")  c #565441",
"_  c #5A5343",
"`  c #5D5A45",
"'  c #56514B",
"]  c #5B524D",
"[  c #5D5451",
"{  c #5E5953",
"}  c #614F4A",
"|  c #665645",
" . c #6C5741",
".. c #665940",
"X. c #6C5B43",
"o. c #64534D",
"O. c #68544F",
"+. c #64594E",
"@. c #6B5C4C",
"#. c #725C44",
"$. c #785F40",
"%. c #715D49",
"&. c #635553",
"*. c #695551",
"=. c #645A55",
"-. c #6B5A55",
";. c #655C59",
":. c #6A5D5A",
">. c #64614D",
",. c #6F604D",
"<. c #766045",
"1. c #7A6344",
"2. c #74634C",
"3. c #7A654A",
"4. c #78684D",
"5. c #676550",
"6. c #6B6555",
"7. c #66615A",
"8. c #6C635D",
"9. c #6D695E",
"0. c #726B54",
"q. c #70615C",
"w. c #726E5B",
"e. c #75745D",
"r. c #7C745A",
"t. c #6D6660",
"y. c #6D6962",
"u. c #6D6D68",
"i. c #726C64",
"p. c #766F68",
"a. c #737167",
"s. c #787566",
"d. c #73736B",
"f. c #7A736C",
"g. c #7C7A6B",
"h. c #767672",
"j. c #7F7770",
"k. c #7C7C72",
"l. c #7C7E7A",
"z. c #81633A",
"x. c #857A55",
"c. c #817D6D",
"v. c #807E74",
"b. c #7F8071",
"n. c #7E817C",
"m. c #9C8D5C",
"M. c #A3945E",
"N. c #88836F",
"B. c #858172",
"V. c #8A8675",
"C. c #8B8874",
"Z. c #81837C",
"A. c #86897D",
"S. c #8D8C7C",
"D. c #918972",
"F. c #928A7C",
"G. c #91907F",
"H. c #898E8C",
"J. c #978D81",
"K. c #8C918D",
"L. c #979580",
"P. c #9A9485",
"I. c #999887",
"U. c #949A8D",
"Y. c #979F92",
"T. c #A59A8C",
"R. c #A1A99D",
"E. c #BCB494",
"W. c #C7BB8A",
"Q. c #CDC08E",
"!. c #D0C38E",
"~. c #CEC5A5",
"^. c #D0C8A6",
"/. c #D1C5A9",
"(. c #D2C8A9",
"). c #DACEAF",
/* pixels */
"=./ t.-.-.;.[ :.-.-.;.[ t.:.-.;.{ :.-.-.&.( 8.:.-.&.[ -.-.-.&.[ q.:.-.;.&.:.*.:.&.( 8.-.-.&.[ :.-.:.&.&.t.:.-.;.;.:.&.-.",
":.[ -.*.-.-.[ -.O.*.t.&.-.*.-.;.[ -.*.-.:.[ -.&.-.;.&.-.*.-.:.&.-.*.-.:.&.-.*.-.;.[ -.&.-.-.&.-.&.-.8.=.-.*.-.;.&.-.*.*.",
"=.&.-.} } &.[ *.o.=.w.=.*.o.O.*.( *.*.*.&.;.-.} o.&.[ -.} -.&.;.*.} *.&.&.-.*.*.&.&.*.} *.[ &.*.} :.t.*.+.o.-.&.&.*.O.*.",
"} ( -.} *.-.! *.o.*._ B _ o.*.=.! *.} *.} ( *.o.*.&.! *.} *.! [ &.O.*.-.R *.} *.} [ *.o.-.&.! *.} &.( B _ ] *.&.! *.} *.",
"R R R ( ( R a ! ` ^ c i ! ^ ( W a ! ! ( R R R ( ( R R ! ! ! R R ! R ( R R R ! / R R R ( ( R a ! o.~ c a ! ~ _ ! R R ! ( ",
"-.&.:.' ;.&.*.:.=.8.i.7.=.^ ] *.( / / ;.-.&.:.[ -.[ [ :.[ :.&.&.:./ 8.;.! / / :.*.&.:.[ :.&.&.:.=.w.w.;.=.^ ] &.! / / 8.",
"! *.q.{ :.*.*.-.7.f.R.K.d.~ ^ o.&.-.[ :.*.*.q.&.:.*.} q.&.q.*.*.q.&.q.o.*.:.[ q.*.*.q.&.:.*.O.:.=.B.R.H.d.c ^ O.*.:.[ q.",
"0 } -.! *.*.o.-.+.i.K.H.l.v ^ } } -.[ -.*.*.-./ O.*.&.-.( -.*.*.-.( &.} } -.( -.*.*.-.! &.O.O.-.+.d.K.H.d.p ^ } } -.( -.",
"u } -.! } *.*.:.o.+.d.l.7._ _ o.*.:.( &.*.*.-.W ( *.*.:.R *.*.*.-.! *.o.} :.[ &.*.*.-.W } O.O.:._ =.d.b.5.~ _ O.O.-.~ *.",
"0 d R d ! ! ! ! c u.H.d.y.8.( ( ! ! a R ! R R R ( R ( ! u R ( R ! R ! ( ( ! u W ! R R R ( ( ~ ! W d.A.d.y.7.( ~ ( ! 0 ! ",
"[ ! :.-.=.;.[ &.7.N.I.Z.k.g.7.] &.:.o.-.&.! -.:.:.;.[ -.[ &.-.[ q.-.=.;.&.-.&.-.( ( :.-.-.[ [ +.9.V.U.n.g.g.=.] &.;.&.-.",
":.] -.o.o.-.[ +.g.).S.k.F.^.s.&.[ -.*.-.:.[ -.| } &.R R a R R R ( O.~ c ! -.*.-.;.[ -.} o.;.&.o.V./.V.k.T.~.9.=.&.-.*.*.",
"=.&.-.} } *.[ o.g.).P.Y.P./.s.] ( *.*.*.*.&.-.! i w : 9 R 0 , x c s s ] s p c ! ( ;.*.} o.&.&.( C./.I.U.T.^.9.( [ *.*.*.",
"( ( *.*.*.=.! o.B.E.L.b.J.(.c.[ R *.*.o.( ( W < 0 ' x 7 [ =.0 ' u.s ' p.[ 3 Q =.R ! } } *.=.! &.C.E.S.l.T.^.a.' R *.*.} ",
"R a ! ! ( ! u ;.S.!.N.h.D.Q.A.[ a ( ! R u < : 0 Q t.t.0 ' d.s x i.x / f.y.q ' i.9.Q u R ( R s 9.L.W.v.d.G.W.B.^ R ! ! ( ",
"=.&.:.! -.=.&.=.w.M.0.a.r.m.6.+.=.:.! u - , - s ' 7.t.0 s 7.Q 0 { w E i.i.i x [ 7.f./ < ' *.&.;.e.M.0.u.x.M.7.=.-.:.( 8.",
"*.*.8.&.:.*.*.-.y.b.a.9.a.9.o.o.! a < - s / 3 9 Q ' 7.W 0 Q x 0 Q 0 s { i.' q Q ' { Q Q ~ l *.-.u.b.u.t.d.8.[ *.o.:.&.q.",
"*.*.-.( } o.( *.' +.o.] ] ] o.! : < 7 < ' y.' : q Q { ~ 0 x : 0 W 3 w Q ] x 0 ' ' q q 7.u.~ W *.' +.o.o.+.( } &.*.&.[ :.",
"*.*.*.! } o.o.-.( &.O.o.*./ d > 3 E x - s 7.d.~ 9 w ' q 9 x : q a ; : i W q 0 W x , x Q y.y.~ x ! o.O.} -.! O.} *.-.R &.",
"( R ( d ! ( ! ( R W ~ ! ~ u : q E Q / q - w =.' , - ; @ @ : 5 3 # X X # 0 3 w x 0 9 x ' ' W q Q Q c ! R ( R ( ! ( ! R ! ",
"&./ :.;.=.;.( -.=.-.;.( =.9 : 3 Q ' { 7.x = 9 : k > .   . X v k .     . 2 l > 6 = 0 E Q Q 9 w y.f.Q E [ q.-.-.&.;.-.[ -.",
":.[ -.o.*.-.[ -.O.*.8.[ c 3 s , 9 E [ y.' $ O O Z 2   .   . z k .       5 Z o o X 9 E E w 0 ' y.7.s 7 ~ *.*.-.:.&.*.*.*.",
";.&.-.} o.=.[ *.} *.-.R 3 x [ { 9 : s / E +   o Z 2     . . k l .       5 Z O   X , x 9 9 W ' ' s 0 / ' R } *.&.O.*.O.O.",
"( ( *.O.o.-.! o.o.o.! : : w / d.t., k < = o   o Z 2       . z k .       5 Z .     X ; z - q E w q ' t.' u } -.;.R *.( O.",
"R R ! / ( R a ( ~ R 7 w w : 3 Q >.q A %       o Z 5       . k k .       5 Z o       & ` # @ > 0 Q ;.{ 0 : s ! W R R ! ( ",
"-.*.:.[ :.&.&.:.[ W 0 Q ' W , 9 0 > A &       o ` 5       . v z .       6 Z o       & ` $   # W E E w w { 7.Q &.( ( / 8.",
"*.*.q.&.:.*.o.-.[ s q ' { y.[ , @ $ ` &       o ) 5       . z l .       5 Z o       & A #   # W W 0 q ' p.p.s ^ *.:.[ q.",
"*.*.-.! } *.*.( 9 1 : s x ' { x o $ Z $     . o Z 5       X z k .       6 Z o .     % J #   X > q x Q ' 7.' 0 N o.-.( :.",
"*.O.-.W } *.o.a , W Q E 0 , q q o $ ` &       X Z 2       X k l .   .   5 Z o       & ` $     - q E E E s 9 , ~ *.-.( &.",
"! d d R ! ( R , q Q { y.7.s @ o   $ ` $       X Z 2       . l k .       5 Z o       $ ` #     1 E E w 3 w ~ s a ( R 8 ! ",
"&.~ :.:.-.&., 7 x E [ 7.{ x +     $ ` &       o ) 5     . . z z . .     5 A o   . . & ` #   X @ 0 9 : q [ f.;.d :.&.&.-.",
"-.[ -.( o.;.0 8 E s w 9 = @ X     $ ` &       O ) 5   .   X z l .       5 Z o     . & ` $     X o * 9 x W { ] s -.*.*.*.",
"-.[ -.( o.;.0 8 E s w 9 = @ X     $ ` &       O ) 5   .   X z l .       5 Z o     . & ` $     X o * 9 x W { ] s -.*.*.*.",
"=.&.-.} } -.8 , w E ~ 9 +         & >.&       @ ` 5 X     X v v X       6 ` @ X     & 5.&         + , , 9 s s 0 ( *.*.+.",
"=.&.-.} } -.8 , w E ~ 9 +         & >.&       @ ` 5 X     X v v X       6 ` @ X     & 5.&         + , , 9 s s 0 ( *.*.+.",
"=.&.-.} } -.8 , w E ~ 9 +         & >.&       @ ` 5 X     X v v X       6 ` @ X     & 5.&         + , , 9 s s 0 ( *.*.+.",
"=.&.-.} } -.8 , w E ~ 9 +         & >.&       @ ` 5 X     X v v X       6 ` @ X     & 5.&         + , , 9 s s 0 ( *.*.+.",
"=.&.-.} } -.8 , w E ~ 9 +         & >.&       @ ` 5 X     X v v X       6 ` @ X     & 5.&         + , , 9 s s 0 ( *.*.+.",
"=.&.-.} } -.8 , w E ~ 9 +         & >.&       @ ` 5 X     X v v X       6 ` @ X     & 5.&         + , , 9 s s 0 ( *.*.+.",
"=.&.-.} } -.8 , w E ~ 9 +         & >.&       @ ` 5 X     X v v X       6 ` @ X     & 5.&         + , , 9 s s 0 ( *.*.+.",
"=.&.-.} } -.8 , w E ~ 9 +         & >.&       @ ` 5 X     X v v X       6 ` @ X     & 5.&         + , , 9 s s 0 ( *.*.+.",
"=.&.-.} } -.8 , w E ~ 9 +         & >.&       @ ` 5 X     X v v X       6 ` @ X     & 5.&         + , , 9 s s 0 ( *.*.+.",
"=.&.-.} } -.8 , w E ~ 9 +         & >.&       @ ` 5 X     X v v X       6 ` @ X     & 5.&         + , , 9 s s 0 ( *.*.+.",
"=.&.-.} } -.8 , w E ~ 9 +         & >.&       @ ` 5 X     X v v X       6 ` @ X     & 5.&         + , , 9 s s 0 ( *.*.+.",
"=.&.-.} } -.8 , w E ~ 9 +         & >.&       @ ` 5 X     X v v X       6 ` @ X     & 5.&         + , , 9 s s 0 ( *.*.+.",
"=.&.-.} } -.8 , w E ~ 9 +         & >.&       @ ` 5 X     X v v X       6 ` @ X     & 5.&         + , , 9 s s 0 ( *.*.+.",
"=.&.-.} } -.8 , w E ~ 9 +         & >.&       @ ` 5 X     X v v X       6 ` @ X     & 5.&         + , , 9 s s 0 ( *.*.+.",
"=.&.-.} } -.8 , w E ~ 9 +         & >.&       @ ` 5 X     X v v X       6 ` @ X     & 5.&         + , , 9 s s 0 ( *.*.+.",
"=.&.-.} } -.8 , w E ~ 9 +         & >.&       @ ` 5 X     X v v X       6 ` @ X     & 5.&         + , , 9 s s 0 ( *.*.+.",
"=.&.-.} } -.8 , w E ~ 9 +         & >.&       @ ` 5 X     X v v X       6 ` @ X     & 5.&         + , , 9 s s 0 ( *.*.+.",
"=.&.-.} } -.8 , w E ~ 9 +         & >.&       @ ` 5 X     X v v X       6 ` @ X     & 5.&         + , , 9 s s 0 ( *.*.+.",
"=.&.-.} } -.8 , w E ~ 9 +         & >.&       @ ` 5 X     X v v X       6 ` @ X     & 5.&         + , , 9 s s 0 ( *.*.+.",
"( ( *.} *.=.7 s Q { d.7.-       X 5 e.k X     & e.) X     @ 5.5.$     O ) u.& X   . 6 b.5 .       X + , x ' ;.Q c o.o.} ",
"R a ! R ( W > c E s [ ' #       X @ 9 * o X X @ 5 &   X @ @ 5 : X @ O X & 5 @ @ X X $ 5 O           = q E ' 7.W a ! ! ( ",
"-.*.t.( :.=.d q : - 0 - X     X X X X @ * X @ * @ @ X @ * * o X @ * * @   @ * * O @ O             X = 0 9 9 w 3 / t.( t.",
"*.*.q.[ :.*.a , - ; : @       X @ @ X @ @ X X @ @ X   @ @ @ X X X * @ X X @ @ @ X @ X X X X         o 0 Q =.7.' ( :.[ t.",
"*.*.q.( } *.a 0 x { u.q   . X + X @ * @ X @ @ X X @ * * X   o * @ X   @ @ @ X X X X @ * $ X   X     o 9 / t.g.{ ( :.[ -.",
"*.*.-.! ( O.a 0 W Q ;.x X + @ @ @ * = @ @ @ * @ o * * * @ o * * * @ O @ * * @ o * * * * @ X O @ X   o 0 x Q { W ! -.! &.",
"! R ( a R ( 8 4 s q w 9   + * @ X @ = = @ @ = * o * = = * o * = = @ @ * = = * o * * * = * X @ * + X o = : 0 w 0 d ~ a ! ",
"8 8 7 a 7 7 , a c &.[ l U V ..#.Y I V K U M ..#.U U C H U P Y V H #.U I D H U %.1.T #.V | U P <.m | U e w E =.W , 8 , 8 "
};
