/* XPM */
static char *result[] = {
/* columns rows colors chars-per-pixel */
"60 60 197 2 ",
"   c #0F0E0E",
".  c #110F0F",
"X  c #12100F",
"o  c #110F10",
"O  c #151313",
"+  c #191716",
"@  c #1A1915",
"#  c #191718",
"$  c #1D1B1B",
"%  c #211E1D",
"&  c #24211D",
"*  c #2A251D",
"=  c #29291F",
"-  c #1F2020",
";  c #1F313A",
":  c #232222",
">  c #292626",
",  c #2C2A24",
"<  c #2D2A2A",
"1  c #312C26",
"2  c #32272C",
"3  c #322D2D",
"4  c #392D2D",
"5  c #35312E",
"6  c #3B342D",
"7  c #3E382E",
"8  c #333125",
"9  c #392E32",
"0  c #352D30",
"q  c #21333C",
"w  c #363231",
"e  c #3B3533",
"r  c #3D3936",
"t  c #3F3A38",
"y  c #333E3F",
"u  c #433A2C",
"i  c #493D2D",
"p  c #43372D",
"a  c #413535",
"s  c #433C34",
"d  c #4A3E32",
"f  c #433639",
"g  c #433C3B",
"h  c #4A3D3D",
"j  c #573F27",
"k  c #4E412D",
"l  c #52422C",
"z  c #5B462C",
"x  c #5E492D",
"c  c #464333",
"v  c #4A4333",
"b  c #4A4936",
"n  c #46413E",
"m  c #4A423D",
"M  c #4B4B38",
"N  c #524432",
"B  c #564932",
"V  c #5B4C34",
"C  c #51433C",
"Z  c #554C3E",
"A  c #5C4D3C",
"S  c #5D523E",
"D  c #57523C",
"F  c #634C2C",
"G  c #6B512E",
"H  c #71532C",
"J  c #7A582F",
"K  c #624F3A",
"L  c #6B5233",
"P  c #64543C",
"I  c #675A3C",
"U  c #6B5C3E",
"Y  c #6E5839",
"T  c #7B5B34",
"R  c #71573B",
"E  c #745A3C",
"W  c #7A5C3A",
"Q  c #735735",
"!  c #71653C",
"~  c #766B3C",
"^  c #7A6E3D",
"/  c #7E613B",
"(  c #7D713E",
")  c #253741",
"_  c #263841",
"`  c #2D3D43",
"'  c #4B3F41",
"]  c #324145",
"[  c #36454A",
"{  c #3C4749",
"}  c #474240",
"|  c #4C4342",
" . c #4E4945",
".. c #534545",
"X. c #584745",
"o. c #534A45",
"O. c #5B4C46",
"+. c #554B4A",
"@. c #5A4C4B",
"#. c #524748",
"$. c #5D5142",
"%. c #5D5A44",
"&. c #55514B",
"*. c #5B514E",
"=. c #5D5351",
"-. c #5E5953",
";. c #614F4B",
":. c #645542",
">. c #685641",
",. c #655A44",
"<. c #6C5B44",
"1. c #65524D",
"2. c #68544E",
"3. c #625C4B",
"4. c #6C5B4B",
"5. c #735C43",
"6. c #715D4B",
"7. c #635553",
"8. c #695551",
"9. c #645A56",
"0. c #6B5A55",
"q. c #655C59",
"w. c #6C5D59",
"e. c #705F5A",
"r. c #63624C",
"t. c #6E624C",
"y. c #6F6246",
"u. c #736344",
"i. c #7A6344",
"p. c #7B6C44",
"a. c #74624B",
"s. c #7C6B4E",
"d. c #766845",
"f. c #67615A",
"g. c #6C625D",
"h. c #6F6151",
"j. c #71625D",
"k. c #766855",
"l. c #79765F",
"z. c #77755F",
"x. c #6E6660",
"c. c #6E6861",
"v. c #746762",
"b. c #746A64",
"n. c #766F69",
"m. c #777069",
"M. c #7A736C",
"N. c #82663B",
"B. c #81753F",
"V. c #866B40",
"C. c #867A41",
"Z. c #897D42",
"A. c #8B7E4A",
"S. c #817444",
"D. c #8A796B",
"F. c #848245",
"G. c #8D8144",
"H. c #918347",
"J. c #958B4B",
"K. c #9A8C4C",
"L. c #97914F",
"P. c #9F904E",
"I. c #8B8657",
"U. c #968E52",
"Y. c #969453",
"T. c #9C965C",
"R. c #9B9455",
"E. c #A0924F",
"W. c #A39551",
"Q. c #A69954",
"!. c #AC9E57",
"~. c #AAA35C",
"^. c #B2A45C",
"/. c #8C8C69",
"(. c #999073",
"). c #ABA661",
"_. c #AFAA64",
"`. c #A4A562",
"'. c #B2B16B",
"]. c #A9A577",
"[. c #BEBE79",
"{. c #9E8D81",
"}. c #ABA880",
"|. c #C9C982",
" X c #D6D58D",
".X c #C7C797",
"XX c #DCDA90",
"oX c #E4DC93",
"OX c #EAD995",
"+X c #EDE29B",
"@X c #DBDBA9",
"#X c #EFE2AA",
"$X c #F6E4AA",
"%X c #F6E5B8",
"&X c #FEE2C4",
"*X c #FFE3CC",
"=X c #FFE7D5",
/* pixels */
"@.b.e.v.7.x.w.w.b.=.b.e.v.9.x.w.w.v.=.b.w.v.9.w.w.w.b.=.b.w.v.q.w.j.w.v.=.b.e.v.q.w.j.w.v.=.v.w.v.w.q.e.w.v.=.b.e.e.v.=.",
"7.w.2.0.9.0.8.;.0.=.w.1.8.q.8.2.;.0.7.e.2.8.q.0.8.;.0.=.w.8.8.q.8.8.;.0.7.w.2.8.q.8.8.;.0.=.w.8.8.w.8.8.;.8.7.e.1.8.w.7.",
"+.0.8.0.@.;.;.;.0.=.0.1.1.7.@.1.8.0.@.0.8.0.7.@.8.;.8.*.0.2.1.8.;.2.7.0.@.0.7.8.8.@.7.;.9.=.8.8.;.9.@.2.1.0.*.0.8.8.9.X.",
"f @.;.;...X.;.;.7.' ;.@.;...X.;.;.7.h @.;.;.....;.;.8.' @.@.;.+.' ;.;.7.' @.;.;.X.' ;.;.8.| @.;.@.@.' 1.;.7.h +.;.;.@.h ",
"..=.' =.@.@.@.+.*.X.=.| @.=.@.=.+.*...=.' @.=.X.*.#.=.@.=...+.=.@.=.+.=...=.#.+.=.X.*...=.+.@.#.#.7.@.=.#.=.+.@.+.+.=.+.",
"8.v.@.w.0.0.w.7.0.8.j.9.w.w.0.w.7.w.0.e.*.e.0.0.w.7.w.8.e.9.w.w.0.j.7.w.8.w.=.0.w.8.v.=.e.8.e.q.q.w.8.v.7.w.8.e.7.7.0.9.",
"8.w.=.w.;.1.7.=.8.1.0.=.w.;.8.7.=.8.1.w.=.w.1.;.9.=.8.;.0.7.w.;.2.8.=.8.2.0.7.0.;.;.0.@.8.;.0.7.w.1.2.8.@.0.2.8.7.0.2.@.",
";.8.X.0.1.1.q.+.8.1.2.O.4.1.8.w.X.8.;.8.X.0.1.;.0.X.8.;.8.X.8.;.2.q.X.8.;.8.@.0.8.;.w.+.8.;.2.O.2.1.1.w.+.8.;.8.+.8.8.:.",
"..X.' ..+.X...f X.<.p.I.F.d.O.| f #...+.' ..+.@.#.f #.+.@.f ' X.....g ....X.' ' ..+...f ..>.~ I.I.d.;...f ....X.' ' +.X.",
"#.g.7.g.=.q.9.8.t.( Q.].].L.! 4.@.@.@.v.7.w.7.q.7.7.g.=.j.7.w.9.q.w.@.=.+.x.9.0.q.9.0.8.0.~ Y.].].Q.^ ,.7.@.+.x.0.0.q.#.",
"} s O.0.q.0.1.1.t.A.}./.I.).S.<.8.0.*.w.8.8.0.q.8.;.w.7.e.8.0.q.9.2.8.0.=.e.8.8.w.9.0.1.t.S.]./.I.).A.<.1.0.@.w.2.O.t 3 ",
"} 6 X.0.O.@.2.y.^ U.T..X/.Q.W.! ;.0.=.0.8.8.@.X.8.8.0.@.0.8.8.7.X.1.@.0.=.8.8.8.7...8.<.~ J.J..X(.Y.!.( :.w.=.0.8...5 3 ",
"| t C 1...X.<.~ H.!._. XY.Y.^.G.<.7.h 1.@.;.X.+.1.1.1.h ;.1.;.@...;.;.8.| *.1.1.X...2.! Z.!.~. X`.J.^.L.! 7.' @.1.C t 3 ",
"|  .f o.@.@.S ! W.).@X#XXX[.^.K.U +.| @.' ..@.@.@...@.| @.#.=.@.@.=.@.@.' @.h | +.@.$.I K.~..X%XXX|.^.Q.! O.| @.| |  .s ",
"0.j.@.g.0.8.~ ( Q.'.$X*X$XXX~.P.B.4.8.v.=.w.w.1.g.=.*...7.| =.0.4.=.@.e.0.e.*.w.0.1.u.~ P.).+X&X%X+X'.E.Z.u.0.e.7.q.w.| ",
"1.w.=.w.@.O.y.p.^.'.+X=X&X+X).L.^ 4.8.0.=.0.:.h g 0 4 t 4 0 t ' h n g C O.@.7.w.1.O.y.! !.).oX&X=X+X'.R.( u.2.8.7.q.2.X.",
"1.1...0.7.2.g.~ Q.L.|.OXoX[.Y.K.! 4.2.2.X.7.f 3 o.t w -.&.r c.&.n c.f.< m &.g *.1.2.g.U W.L.[.oXOX|.Y.P.! 4.7.8.;.8.w.X.",
"X...a ....X...V H.L.F.F.F.F.K.Z.S o.....4 3 1 | f.b.w -.c.< -.q.n c.m.r -.M.f.t f O...B Z.K.F.F.F.F.J.H.U X.X.#.f ' ' X.",
"+.w.7.w.@.q.8.0.s.G.G.B.C.Z.p.d.0.w.' 3 < < w &.-.c.w } f.r  .&.e f.M.s n -.f.M.r m w.9.k.A.G.Z.G.B.C.a.0.w.+.g.8.0.q.; ",
"7.w.8.0.q.0.2.1.j.3.p.p.p.d.a.2.m e < 4 o. .> n &.g. .r  .5 n n e &.g.&.r &.&.*.n *.f O.0.3.p.p.p.p.a.8.1.0.7.j.8.8.j.X.",
"@.8.8.0.=.;.;.;.0.=.0.1.1.=.@.h < e w e f.c.g < n -. .r n < } n 3 | &.n e o.| w  .c.g.o.*.*.0.1.$.9.@.1.1.0.*.0.2.8.8.) ",
"f 7.;.8.+.X.;.;.1.| 1.1.1.+.f 3 e | n > n c.c.r 5  .< 5 r > 5 < $ 3 n e t | t w n *.f.&.r n *.1.1.*...1.1.8.' @.1.1.@.X.",
"' @.' @.+.+.+.#.@...@.| @.g > t  .&.=.t > t  .5 = $ X O - $.* . . O , 7 r } 1 t &.&.n 5 *.g.n | +.&.X.@.#.=.' #.#.X.@._ ",
"8.v.+.x.w.0.w.7.w.0.g.=.w.w e > g &.g.c.r $ $ b c .     @ %.*   X   , %.$ : $ s n  .w n g.M.| r w.j.0.j.7.e.0.e.=.q.e.X.",
"8.w.=.w.;.1.9.7.8.;.0.*.h 5 o. .< e  .r.5 X X c c . . . O %.* . .   = %.X X @ g g 5 t &.-. .w n ..;.2.0.@.0.8.8.9.0.1.X.",
";.8.X.w.1.1.0.X.8.1.8.f > t &.n.-.> n w : X X c i . . . @ %.* . X . , %.X . . & r 5 e m } w  .c.o.h 7.j.+.8.;.8.@.0.8.X.",
"X.X.' ..X.@...t +.+.g 5 g , 5 &.f.r D @ X X   c c   . . X %.* .     = %.O X . . c c # 3 w } f.-.3 3 C X.f ..X.@.' ' X.X.",
"#.g.7.w.=.q.7.;.w.@.r g &. .3 0 r 8 S O . X X b v   . . @ r.*   X X , 3.O X X . c c   # n }  .r n w.o.&.=.+.+.w.9.0.q._ ",
"@.w.2.e.q.w.8.;.w.+.e  .&.c.f.< # = %.O . .   c c   X . @ %.= X . . = %.X . .   c c   O n  .5 t -.M.q.f ;.0.=.e.8.8.e._ ",
"@.0.2.8.@.@.8.8..., 3 5 t | -. .O = %.X . X . c c   . . O %.*   . . = %.O X . . b c . X : w m o.-.q.n r ;.0.=.0.8.8.7.; ",
"' 7.1.2...@.8.;.5 t  .&. .< 5 5 O = %.O X   X c c . X   O %.*   X . = %.O X . . b c . . > t n } r 5 0 f 8.8...@.8.;.=.; ",
"' @.h ' +.+.@.9 < n &.c.m.=.& X X = ,.O . X   c c . X X O %.* X . . = I O . .   c c . . : n n 5 r &.q.e #.X.h +.' h +.X.",
"8.j.@.g.0.0.w.< g } } o.} w $ X . , %.O X X . b c   X   @ r.=   X X = ,.O X . . b c . . O : , < } -.m.} 9.0.0.e.7.9.e.X.",
"2.w.=.0.;.O.7.4 3 t r w $ O O . . = %.O . . . b c X O   O %.* X     = %.X   X . c c . . . . % t r t  .r +.0.2.0.7.9.2.X.",
"2.8.@.0.2.8.w.2 t  .c.c.5     . . c z.= . . O r.3.O     = l.r     . c l.=     + r.%.+ o o o O $ < n  .} s 8.8.7.@.8.8.X.",
"@.' a X.X.@...>  .n &.g.e O . . . 8 M $ O . O c s O O O - D , O + O 1 D $ O o + c c X . o o o & n  .f.x.e ..X.X.h h X.X.",
"#.q.;.q.#.9.7.r g , w r # . X O O O O - $ O $ $ $ . $ - $ + O $ - $   # - - + $ O o o o . o . , r w t t t w.+.q.;.7.7.; ",
"7.e.8.w.q.w.8.a < > > : O     O # - + # $ O $ - + X O $ $ O O $ - # O + $ - + # O O O o . . o # t o.=.-.| v.=.v.8.8.g.X.",
"@.8.8.8.=.;.1.a t  .c.q.O O   $ # # - # o $ # o + - $ O O $ $ $ O + - $ O o # + $ $ O O o o o @ t -.m.n.| w.@.0.8.8.9.X.",
"' 7.7.8.@.X.1.9 t } o.=.$ O $ $ # - - - # - - # - - - $ $ - - - + $ - - # # - - - : # O % @ . # t h &.&.g 8.| 1.8.8.1.; ",
"h +.' +.....+.3 r t e e O O - $ o - - : $ : - # - > - $ # : > : O - > : - + - - : : O O - - o O : : e t e @.h ..#...@.X.",
"8.v.@.e.w.e.q.> < r & $ O O + $ # # $ $ # $ $ O + $ - # O # $ $ O O - $ + O - # $ + O O # O o o $ 5 g.m.@.g.0.w.7.9.e.{ ",
"8.w.=.w.;.1.9.2 r  .&.< # - < w 3 - # - > O - < - $ + > < - + - < : - O > > - : - O - > - $ # o > &.f.b.| 0.2.0.9.9.2.X.",
"1.8.X.e.1.;.0.1  .g.M.r # : w e w 3 $ - 3 $ : w w > # 3 w 3 # - w w > # < w 3 w > $ > w $ # - o ,  .&.&.t 1.1.2.@.9.8.X.",
"X.@.' X.X.@.+.> g n -.w - $ $ > > - # # # # # # $ # # # # $ # + # $ $ + # $ - - $ # $ $ : : # O > t e n 2 ..@.@.' ' @.} ",
"#.w.=.9.@.9.7.e > > t < - < > - $ > 3 < - < > - - 3 3 - - < 3 < - - < < : - : : < 3 - - 0 w < $ : , 3 w h @.+.q.8.7.9.X.",
"@.e.8.0.q.g.8.r e &.=.3 < w w < - 3 w 3 : w 3 - < w w > : w w 3 - < w w > - 3 < w w < > w w w > < =.m.n.+.w.*.w.8.0.g.X.",
"@.0.2.0.@.;.7.r } x.M.t > < < > - > < : : < > - - < > - - > < : : - < < > - - - < < > - < < < - > } o.9.| g.=.8.8.8.8.m ",
"' 8.2.8.X.@.2.a t n -.e < > < 5 < > : < 3 : 3 3 * - , 3 > - : 3 0 - & > w , - : & > < 5 3 > < 3 , t n g s w.+.1.8.2.;.X.",
"' @.' ' ' @.+.2 > : r < w 3 5 k u 7 < 7 u 5 7 c 5 : 5 i s > < 7 s w : 5 u s , 5 , 6 u u 7 > 7 6 3 &.m.m.' ..h | ' h ..#.",
"9.j.#.g.w.0.0.< r &.-.5 w w 7 s 7 6 w 6 s e 7 s r 5 5 s s 5 w 7 g 7 5 e s s 5 7 5 6 p 5 6 5 5 5 3 n  .q.h w.9.w.7.9.e.8.",
"1.w.7.0.;.O.9.0 n -.M.n 3 7 c u m Z C u e c u w m ..s 6 r o.m p 6 | o.s 6 t Z m Z Z v g o.m 7 6 , e w r f 0.2.0.9.9.1.Z ",
"2.2.@.0.1.8.0.3 r e n 3 0 A <.Z A 6.4.L c 1.F v 5.6.R k O.5.4.F i <.6.5.k A 5.5.E i.V N T 5.o.6 3 &.q.=.f 0.2.2.@.8.8.2.",
"O.@.f X.X.;.+.> n q.f.r 6 G H i i L L F d L F k H L G l F H Q F i H L L l x H H H H z p G L c 5 < } g.m.g @.@.O.h ' @.@.",
"..q.X.q.+.=.;.e | 9.m.h i u P :.>.P k I O.N :.:.V v V ,.P N l :.,.V k V :.:.z S v k :.<.P B <.O.5 r g  .g q...0.;.7.@.+.",
"h ..' ..' ..' 4 5 t n 6 P l 1.5.5.a.U a.,.U k.4.a.<.d.4.6.a.U k.0.N.U i.6.5.p.a.u.k 0.6.i.U k.1.5 t  .| w ..h ..' ..| ..",
"2 f h a f f a 2 n q.n.m Q P >.W 6.5.:.a.Q P 5.T i.Y a.W 5.5.,.a.5.W R a.5.E V.6.5.K 5.E i.P u.R r o.n.m.6 h 9 f h f a ' ",
"2 9 9 2 a 4 2 2 |  .c.m 5.P :.5.W N.A W R V 6.5.5.P P W W W A 5.5.T L >.5.6.5.N.<.K 5.W W A <.E 6 t &.f.3 9 2 9 9 4 9 f ",
"f ' f 4 a a a 3 p p 6 4 z j B F V V l x N i V j x l B F j B k B l x k l x d V x N d A B V u z C p 6 5 7 3 a a e 9 f a f ",
"{.(.D.N B P B d s.N.U P E E <.E A :.E E L F T J E O.s.V.u.A E E 4.E D >.E R Q F T J R :.s.V.i.K Q R <.R K B P B N j.n.D."
};
