/* XPM */
static char *result[] = {
/* columns rows colors chars-per-pixel */
"60 60 177 2 ",
"   c #090606",
".  c #0B0906",
"X  c #0C0B0B",
"o  c #120E0D",
"O  c #14120D",
"+  c #151313",
"@  c #1F1C14",
"#  c #1A1718",
"$  c #1B1A1A",
"%  c #241C1D",
"&  c #242318",
"*  c #242121",
"=  c #292524",
"-  c #2E2922",
";  c #2E2929",
":  c #392E22",
">  c #342C2C",
",  c #343524",
"<  c #35312A",
"1  c #383628",
"2  c #392F30",
"3  c #373130",
"4  c #3D3634",
"5  c #3E3B35",
"6  c #3E3B3B",
"7  c #403729",
"8  c #413336",
"9  c #433931",
"0  c #403738",
"q  c #423B3A",
"w  c #4B3D3E",
"e  c #464432",
"r  c #494132",
"t  c #4A4A35",
"y  c #45403E",
"u  c #4A413A",
"i  c #554534",
"p  c #5C4C37",
"a  c #524B39",
"s  c #5D5034",
"d  c #55523D",
"f  c #614E32",
"g  c #695539",
"h  c #66593E",
"j  c #69593B",
"k  c #775833",
"l  c #7D5C31",
"z  c #765A3A",
"x  c #7E6037",
"c  c #413F42",
"v  c #454343",
"b  c #4B4542",
"n  c #4D4947",
"m  c #474548",
"M  c #4A4749",
"N  c #4D4A49",
"B  c #524342",
"V  c #534945",
"C  c #5A4B43",
"Z  c #504748",
"A  c #534D4C",
"S  c #5A4B49",
"D  c #5A5241",
"F  c #5D5A43",
"G  c #55504B",
"H  c #5B514C",
"J  c #4A4E51",
"K  c #504F50",
"L  c #594F50",
"P  c #555252",
"I  c #5C5351",
"U  c #5E5853",
"Y  c #5E5B5C",
"T  c #614E49",
"R  c #665543",
"E  c #64524C",
"W  c #68534E",
"Q  c #64584D",
"!  c #735C43",
"~  c #635452",
"^  c #695450",
"/  c #645A54",
"(  c #6B5A54",
")  c #605758",
"_  c #645C59",
"`  c #6A5D5A",
"'  c #66634E",
"]  c #796243",
"[  c #696553",
"{  c #65615B",
"}  c #6C635D",
"|  c #6D695E",
" . c #736B53",
".. c #71615C",
"X. c #736E5B",
"o. c #76755D",
"O. c #635E60",
"+. c #656363",
"@. c #6C6562",
"#. c #6C6963",
"$. c #6B6768",
"%. c #6D6C6A",
"&. c #716665",
"*. c #736B65",
"=. c #736D6C",
"-. c #747267",
";. c #797667",
":. c #75736B",
">. c #7A726D",
",. c #7D7B6B",
"<. c #6E6F71",
"1. c #736E71",
"2. c #747272",
"3. c #7B7473",
"4. c #7D7C75",
"5. c #79777A",
"6. c #7D7B7B",
"7. c #867B54",
"8. c #827E6D",
"9. c #807675",
"0. c #827C76",
"q. c #847D7C",
"w. c #887E7E",
"e. c #7E827D",
"r. c #9D8E5C",
"t. c #A4955E",
"y. c #828172",
"u. c #8A8674",
"i. c #8C8975",
"p. c #83817E",
"a. c #878A7F",
"s. c #8E8D7D",
"d. c #938B78",
"f. c #7F7E83",
"g. c #807E81",
"h. c #887F80",
"j. c #848282",
"k. c #8C8383",
"l. c #8C8987",
"z. c #868689",
"x. c #8A878A",
"c. c #8B8C8B",
"v. c #908685",
"b. c #918A87",
"n. c #948C8B",
"m. c #8D928E",
"M. c #9A9684",
"N. c #969188",
"B. c #92918F",
"V. c #959B8E",
"C. c #9A9988",
"Z. c #8F8F91",
"A. c #969493",
"S. c #9A9393",
"D. c #9A9997",
"F. c #969699",
"G. c #9B9A9A",
"H. c #A69B8D",
"J. c #98A093",
"K. c #A2AB9E",
"L. c #BDB595",
"P. c #9D9EA2",
"I. c #A2A2A4",
"U. c #A9A5A5",
"Y. c #ADAAAA",
"T. c #B3AFAE",
"R. c #B5B4B3",
"E. c #B6B4B6",
"W. c #B9B8B7",
"Q. c #BDBBB9",
"!. c #C8BC8B",
"~. c #C2BEBB",
"^. c #D1C48F",
"/. c #CFC6A6",
"(. c #D2C6AB",
"). c #D2C9A9",
"_. c #DBCFB1",
/* pixels */
"/ V @.( ( ` H ` ( ( _ I &.( ( _ U ` ( ( ~ S | ` ( ~ I ( ( ( ~ E ..` ( _ ~ ` ^ ` ~ S &.( ( ~ H ` ( ` ~ ~ @.` ( ` _ ` ~ ( ",
"` I ( ^ ( ( I ( W W | ~ ( ^ ( _ H ( ^ ( ` I ( ~ ( / ~ ( ^ ( ` ~ ( ^ ( ` ~ ( ^ ( _ S ( ~ ( ( ~ ( / ( } / ( W ( _ ~ ( W ^ ",
"/ ~ ( T E ~ I ^ E / o./ ^ E W ^ S ^ ^ ^ ~ ` ( T E ~ I ( T ( ~ _ ^ T ^ ~ ~ ( ^ ^ ~ ~ W T ^ I ~ ^ T ` @.W Q E ( ~ ~ ^ W ^ ",
"T S ( T W ( B ^ E W d a D E ^ / B W E ^ T S ^ E ^ ~ B ^ T ^ B I ~ W ^ ( w ^ T ^ T I ^ E ( ~ B W T ~ S a D H W ~ B ^ T ^ ",
"w w w S S w 8 B F C u 9 B C S u 8 B B S w w w S S w w B B B w w B c T w w w c S w w w S S w 8 B E V u 8 B V d B c w B S ",
"( ~ ` G _ ~ W ` / } *.{ _ C H W S V S _ ( ~ ` I ( I I ` I ` ~ ~ ` Z .._ i S S ` ^ ~ ` ~ ` ~ ~ ` / X.X._ / C H ~ B V S ..",
"B W ../ ` ^ ^ ( { >.K.m.:.V C E ~ ( I ` ^ W ..~ ` ^ T ..~ ..^ ^ ..~ ..W ^ ` I ..^ ^ ..~ ` ^ W ` / y.K.m.>.u C W W ` ~ ..",
"3 T ( B ^ ^ E ( Q *.m.c.e.t C T T ( I ( ^ ^ ( V W ^ ~ ( S ( ^ ^ ( S ~ T T ( T ( ^ ^ ( B ~ W W ( Q -.m.m.:.9 C T T ( S ( ",
"4 T ( B T W W ` E Q :.e.{ D D E ^ ` S ~ ^ ^ ( u S ^ ^ ` w ^ ^ ^ ( c ^ W T ` W ^ ^ ^ ( v T W W ` D _ :.y.' S d W W ( V W ",
"< w w w B B B B u =.c.:.#.} S S B B 8 w B w w w S w S B 8 w S w a w B T T c 8 c B w w w S S V B u :.a.:.#.{ S V S B < B ",
"I B ` ^ / _ I ~ { u.C.p.0.,.{ H ~ ` Q ( ~ B ( ` ` _ H ( I ~ ( ~ ..( / _ ^ ( W ( S S ` ( ( I ~ Q | i.V.e.,.,.Q H ~ _ / ( ",
"` H ( E E ( I Q ,._.i.e.d.).;.~ I ( ^ ( ` I ( R T ~ w w 8 w w w S W V u c ..W ( / ~ ( T E / ~ E u.(.i.4.H./.| / ~ ( ^ ^ ",
"/ ~ ( T T ^ I E ,._.C.J.C.).;.H S ^ ^ ^ ^ ~ ( B 9 5 = ; w 3 ; q u 6 q H q 9 u B S _ ^ T ~ ~ ~ S i.(.C.V.H./.| S I ^ ^ ^ ",
"S S ^ ^ ^ / B E y.L.s.y.M.).8.I w ^ ^ E _ U.b > v G.P.5.n.b.u G %.q H :.H > V / w B T T ^ / B ~ i.L.s.e.H./.-.G w ^ ^ T ",
"w 8 B B S B 8 / s.^.u.:.d.!.k.I 8 S B w F.+.F.Y.6.%.<.+.%.%.+.n *.b A ,.#.4 G *.X.b 8 w C u q | M.!.e.:.s.!.y.V c B B S ",
"/ ~ ` B ( / ~ / X.t. .-.7.r.[ Q / ` B w 2.P 6 M M Y Y ; 3 Y m v A v u *.*.9 q I { >.V > G ^ ~ _ o.t. .#.r.r.{ / ( ` T ` ",
"^ W } ~ ` ^ ^ ( | y.-.| -.| E E B 8 > q 1.1.0 ) h.h._ _ L >.9.) q U c / *.G 4 n A ) b b V r W ( %.0.%.| :.} I ^ E ` ~ ..",
"^ W ( S E E S ^ G Q E H H H E V = > > Z 1.=.O.Z h.n.L 3.) O.v._ w 2.0 n H q < H H 1 4 } %.V u W G Q E E Q S T ~ ^ ~ ~ ` ",
"^ ^ W B T E E ( S ~ W E ^ V w & > y q c 1.1.q.I h.9.L v.&.` h.O.+.k.; 9 b 4 < v y ; y b #.#.V y a T W T ( B W T ^ ( w ~ ",
"S w S w B S B S c u V B V 8 = 4 y b S A =.2.k.w.n.` &.v.w.S 9.h.k.g.X # 3 > 5 q < > y G G u 5 b B u B w S w S B S B w B ",
"~ V ` _ / ` S ( ( ( _ S Q > = > b G / { -.$.w.b.q.H =.b.S.S &.b.k.q.  . : r - 1 $ 4 y b b < 4 #.>.n y I ..( ( ~ _ ( H ( ",
"` I ( E W ( H ( W ^ } I w < 5 ; < y I b.#.U p.k.&.H q.l.S.=.) g.k.3.    , d o o X > y y 4 3 G #.{ 0 > V ^ W ( ` ~ W ^ ^ ",
"_ ~ ( T E / I ^ T W ( w > y H U > = 0 ~.A P 6.k.3.=.b.k.z.z.$.k.5.O.;   , d O   X ; y > > v G A q < V G w T ^ ~ W ^ W ^ ",
"S S ^ W E ( B E E E B = = 5 A :.| ; e j.A Y +.%.5.j.k.z.z.j.j.6.%.U U   , d .     X & t * 4 y 5 8 A | G 4 T ( ` w ^ S W ",
"w w B V S w 8 S V w > 4 5 = < b ' q s J O.$.Y O.c Y 5.f.f.<.m P +.O.%.  , d o       & F # + - 3 b _ ~ < = 0 B b w w B S ",
"( ^ ` I ` ~ ~ ` I u 3 b S v ; > < & d < <.2.Y c.m 6.F.z.z.P.J <.q.)     1 d o   .   & F %   $ u y y 4 5 U { b ~ S S A } ",
"^ ^ ..~ ` ^ E ( H q 4 G U #.H ; # @ F & F.6 m j.P F.P.z.z.E.+.<.1.X     , d o       & p #   $ v b < 4 G -.-.q C ^ ` H ..",
"^ ^ ( B T ^ ^ S > , = 0 y G / q o @ [ f.J 3 m $.f.Z.x.z.Z.Z.5.f.M       1 d o .     & j #   . - 4 y b G { H 3 u E ( S ` ",
"W W ( v T ^ W 8 ; u n y < ; 4 4 o @ p.N $.4.P A O.2.h.g.f.f.5.N v       , d o       & F @     % 4 y y y q > ; V ^ ( S ~ ",
"i w w w B S w ; 4 b U #.{ q + X   k.N %.B.n.q.@.S Z A K K M N I L N ;   , d o       @ F $     , y y 5 > 8 V q 8 S w 2 B ",
"~ V ` ` ( ~ ; > y y I { U y +   . 3.y :.q.k.h.0.@.) _ ~ I ) _ 2.h.k.c.2., f o   . . & F $ . X + 3 > = 4 H >./ w ` ~ ~ ( ",
"( L ( S E _ 2 > y 0 5 > $ + X .   #.n U S >.v.v.h.=.>.>.3.>.9.k.k.n.n.A.Y F o     . & F $     . o $ < y u U S q ( ^ ^ ^ ",
"( I ( S W ) 2 2 c 8 4 > $ # .   2.5 G G 6 G 9.k.k.v.v.v.v.h.h.v.v.h.h.k.=.q O     . & F @     X o # > v v ~ H q ( ^ ^ ^ ",
"/ ~ ( T W ( > ; 8 w V > + .     c.5 P N > 5 { 3.k.k.v.w.v.v.v.v.w...~ O.+.b = X     & ' &         + ; ; > q 0 3 S W ^ Q ",
"/ ~ ( T T ^ > ; 4 y V > +       m.N Y P = = A 3.v.v.v.h.v.v.v.v.3.L q I +.A %.X     & ' &         + ; ; > 0 0 3 S ^ ^ Q ",
"/ ~ ( T T ^ 2 ; 4 y V > o       B.v { O.6 ; 4 S &.w.v.v.v.v.9.O.L 2 > O.=.Y D.X     & [ &         o ; ; > 5 0 3 S ^ ^ Q ",
"( ~ ( T T ( 2 ; 5 y Z > o       A.6 O.P c * q ) &.w.n.n.N.n.9.` c % = &.x.&.j..     & ' &         + ; ; > q q 3 S ^ ^ Q ",
"/ ~ ( T T ( > ; 5 v V > +       =._ P P 4 % 0 _ ..w.v.v.v.h.1.` S ; q g.n.O.q.X   . & ' &         o ; ; > 0 q 3 S ^ ^ Q ",
"/ ~ ( T T ( > ; 4 q B > o         W.+.+.n ; m O.~ +.=.=.>.&.` I c 2 L h.q.P G.X     & ' &         O ; ; > 0 q < S ( W Q ",
"/ ~ ( T T ( > ; 5 v V > +         & [ 4.~.v I _ ) L B n V c V ~ T 8 O.v.5.M D.X     & [ &         + ; > > 0 0 3 S ^ W Q ",
"_ ^ ( T T ( > ; 4 q V > O         & F & 5.P A $.$.L 4 q.I < P { N 4 N %.<.6 2.X     & ' &     .   + ; ; > 0 0 3 S ^ ^ Q ",
"~ ^ ( T T ^ > ; 4 v V > +         & ' & N v I 3.6.A A R.B.; A G N ; A %.U j.+ X     & ' & .       o ; ; 3 0 q 3 S ^ ^ Q ",
"/ ~ ( T T ( 2 ; 5 v V > o         & Q &   -.M 4.q.b v   A.; m U P 6 N :.c.F $ X     & [ &         + ; ; > 0 0 3 S ^ ^ Q ",
"/ ~ ( T T ( > ; 4 q V > +         & ' &   Y.n 5.1.n k.  c.4 U %.+.A l.N , F + X     & ' &         + ; ; > 6 0 3 S ^ W Q ",
"/ ~ ( T T ( 2 ; 4 v V > o         & ' & # %.c +._ 6 T.  c.N p.l.b.=.Y 6 1 F + X     & ' &         o ; ; > q 6 3 S ^ ^ Q ",
"/ ~ ( T T ( > ; 5 q V > +         & ' & E.M I +.$.b S.  j.Y 6.j.q.j.P j.1 F + X     & ' &         o ; ; > 8 q 3 S ^ ^ Q ",
"/ ~ ( T T ( > ; 4 y V > o         & ' & $.v 2.x.j.P A * . Y.%.P Y U <.3 1 F + X     & ' &         + ; ; > 5 0 4 S ^ ^ Q ",
"/ ~ ( T T ^ > > 4 y V > +         & ' 4 1.K 6.2.6.%.A Y . X J.Q.R.Q.v . 1 F + X     & [ &         + ; ; > 0 0 < S ^ ^ Q ",
"/ ~ ( T T ( > ; 5 q V > +         & ' & A.v M m J c <.=   X t t X       1 F + X     & ' &         O ; ; ; 0 q 3 S ^ ^ Q ",
"/ ~ ( T T ( 2 ; 4 y V > +         & ' & N I.V.c.c.J.F.    X t t X       1 F + X     & ' &         + ; ; > 6 0 3 S ^ ^ Q ",
"/ ~ ( T W ( > ; 4 y V > o         & ' &       + F , X     X t t X       1 F + X     & ' &         + ; ; > q 0 4 S ^ W Q ",
"/ ~ ( T T ^ > ; 5 y V > +         & Q &       + F , X     X t t X       1 F + X .   & ' &         O ; ; > q 6 < S ^ ^ Q ",
"S S ^ T W ^ > 8 n ) :.{ *       X , ;.e X     & o.D X .   + [ [ @ . . O D %.& X . . 1 e., .       X + ; q G _ b w E E T ",
"w 8 B w S c - w q 6 H G $       X + < $ + X X + 1 & . X + + , = X + O X & , # + X X @ , O         . $ 4 y G { u 8 B B S ",
"( ^ #.S ` / w 8 = * 3 * .     X X X X + $ X + $ + + X + $ $ X X + $ $ + . # $ $ O + O             X $ 3 > > 5 > A } S &.",
"^ ^ ..E ` W 8 ; & = * #       X + + X + + X X + + X   + + + X X X $ + X X + + + X + X X X X         O 3 b / { G S ` E ..",
"^ ^ ..S T W 8 2 q U %.4     X o X + $ + X + + X X + $ $ X   o $ + X . + + + X X X X + $ $ X   X     o > A &.,.U S ` I ( ",
"^ ^ ( B S W 8 2 b B _ q X O # + + $ $ + + + $ + O $ $ $ + O $ $ $ + O + $ $ + O $ $ $ $ + X O + X   o 3 q n U u a ( B ~ ",
"B w S 8 w S 2 < 0 4 5 >   + $ + X + * $ + + $ $ O $ $ $ $ X $ $ $ + + $ $ $ $ X $ $ $ $ $ X + $ + X o $ = 3 5 3 w B 8 c ",
"> > > 8 ; > ; 8 u ~ I r z p h ! x l d h z p h ! z z s h z k x p h ] j x s g z ] ] x ! p R z k ] i R z 7 4 y / u - > ; 8 "
};
