/* XPM */
static char *result[] = {
/* columns rows colors chars-per-pixel */
"60 60 177 2 ",
"   c #090606",
".  c #0B0906",
"X  c #0C0B0B",
"o  c #120E0D",
"O  c #14130D",
"+  c #151313",
"@  c #181616",
"#  c #1F1C14",
"$  c #1B1A1A",
"%  c #211E19",
"&  c #242117",
"*  c #242318",
"=  c #242121",
"-  c #282524",
";  c #2E2921",
":  c #2E2929",
">  c #342C2D",
",  c #392B2E",
"<  c #343424",
"1  c #35312E",
"2  c #383628",
"3  c #3A392B",
"4  c #373130",
"5  c #3D3634",
"6  c #3D3A37",
"7  c #3E3B3B",
"8  c #403729",
"9  c #413336",
"0  c #433A31",
"q  c #423B3A",
"w  c #4B3D3E",
"e  c #464432",
"r  c #494132",
"t  c #4A4A35",
"y  c #45403E",
"u  c #4A413A",
"i  c #4C4C3B",
"p  c #524436",
"a  c #5C4B36",
"s  c #524B39",
"d  c #5D5034",
"f  c #55523E",
"g  c #5E503A",
"h  c #66593E",
"j  c #69593B",
"k  c #775833",
"l  c #765A3A",
"z  c #7E6037",
"x  c #413F40",
"c  c #3F4040",
"v  c #444342",
"b  c #4B4542",
"n  c #4A4846",
"m  c #494749",
"M  c #4D4C4B",
"N  c #524342",
"B  c #534945",
"V  c #5A4B43",
"C  c #504648",
"Z  c #534D4B",
"A  c #5A4B49",
"S  c #545342",
"D  c #5A5241",
"F  c #5D5A43",
"G  c #55504A",
"H  c #5B514C",
"J  c #514F51",
"K  c #545252",
"L  c #5D5351",
"P  c #565B57",
"I  c #5E5852",
"U  c #5D5B5A",
"Y  c #614E49",
"T  c #665543",
"R  c #64524C",
"E  c #68534E",
"W  c #64584D",
"Q  c #735C43",
"!  c #635452",
"~  c #695450",
"^  c #645A54",
"/  c #6B5A54",
"(  c #605758",
")  c #645C59",
"_  c #6A5D5A",
"`  c #66634E",
"'  c #796243",
"]  c #6C6855",
"[  c #65615B",
"{  c #6C635D",
"}  c #6D695E",
"|  c #736B53",
" . c #71615C",
".. c #736E5B",
"X. c #76755D",
"o. c #675E61",
"O. c #656262",
"+. c #6D6662",
"@. c #6D6963",
"#. c #696768",
"$. c #6D6C69",
"%. c #736C64",
"&. c #736C6B",
"*. c #7B6E6E",
"=. c #747267",
"-. c #797666",
";. c #74736B",
":. c #7B746D",
">. c #7D7B6B",
",. c #7A6E70",
"<. c #6F7170",
"1. c #757372",
"2. c #7B7373",
"3. c #7B7A75",
"4. c #797878",
"5. c #7D7C7A",
"6. c #867B54",
"7. c #827E6D",
"8. c #807475",
"9. c #817C76",
"0. c #807778",
"q. c #837C7C",
"w. c #887D7E",
"e. c #7E817E",
"r. c #9D8F5C",
"t. c #A4955E",
"y. c #828273",
"u. c #8A8674",
"i. c #8C8975",
"p. c #84827E",
"a. c #88807E",
"s. c #878A7E",
"d. c #938B78",
"f. c #877F81",
"g. c #8B7E81",
"h. c #858382",
"j. c #8C8384",
"k. c #848A86",
"l. c #8B8886",
"z. c #8C8689",
"x. c #918486",
"c. c #958E82",
"v. c #958689",
"b. c #938B8B",
"n. c #998B8D",
"m. c #8D928E",
"M. c #929180",
"N. c #9A9684",
"B. c #959B8E",
"V. c #9A9988",
"C. c #998F90",
"Z. c #959493",
"A. c #9A9393",
"S. c #9E9D96",
"D. c #9E9C9B",
"F. c #A69B8D",
"G. c #98A093",
"H. c #A4A39E",
"J. c #A2AB9E",
"K. c #BDB595",
"L. c #A6A3A4",
"P. c #A3A9A4",
"I. c #B2ADAE",
"U. c #AFB1B0",
"Y. c #B4B2B3",
"T. c #BAB4B3",
"R. c #BAB9B6",
"E. c #BDBCBB",
"W. c #C8BC8B",
"Q. c #D1C48F",
"!. c #CFC6A6",
"~. c #D2C6AB",
"^. c #D2C9A9",
"/. c #C2C1BF",
"(. c #DBCFB1",
"). c #C1BEC0",
"_. c #C3C2C2",
/* pixels */
"^ B +./ / ) H _ / / ) R +._ / ) ^ _ / / ! A { _ / ! L / / / ! H  ._ / _ ! _ ~ _ ~ A _ / / ! ! _ / _ ! ! +._ / ) ^ _ ! / ",
"_ L / ~ / / L / E E +.! / ~ / ) H / ~ / _ L / ! / ) ! / ~ / _ ! ~ ~ / _ ! / ~ / _ L / ! / ~ ! / ! / _ _ / ~ / _ ! / ~ ~ ",
"^ ! / Y Y ! L ~ R ^ ..^ E R W ~ A ~ ~ ~ ! _ / Y Y ! L / Y / ! _ ~ Y ~ ~ ! / ~ ~ ! ! ~ Y ~ E ~ ~ Y _ o.~ W R / ! ! ~ E / ",
"Y A / Y ~ / N ~ E E f s D R ~ ^ N ~ Y ~ Y A ~ R ~ ! N ~ Y ~ N L ~ ~ ~ / x ~ Y ~ Y L ~ E  ./ x ~ Y ! A s D H E ! N E Y E ",
"w w w A A w 9 N F V u 0 N V A u 9 N N A x x w A Y w x x N N w w x x Y x x x N B x w x Y A w 9 x R B u 9 N B D N w x N A ",
"/ ! _ G ) ! E _ ) { %.[ ) V H E A B B ) / ~ _ L / ! ~ _ H _ ! ^ _ A  ._ Y B B _ ~ ~  .! _ E ! _ ^ ....) ^ V H ! N B A { ",
"N E  .^ _ ~ ~ / [ -.J.m.;.B V R ! / L _ ~ ~  .~ _ E Y  .!  .~ ~  .!  .E E / H  .~ ~  .~ _ E E _ ^ y.J.m.;.u V E ~ _ L  .",
"4 Y / N ~ ~ R / R %.m.m.e.t V R Y / L / ~ ~ / A E ~ ! / A / ~ ~ / A E Y Y / A / ~ ~ / x ! E E / W ;.m.m.;.0 V Y R / A / ",
"5 Y / u Y ~ ~ _ R W ;.5.[ D D R ~ _ A ! E / / w A ~ ~  .w ~ ~ ~ / N ~ R Y _ H ! ~ ~ ~ b Y E E _ f ^ ;.y.` B g E ~ / B ~ ",
"4 w w w N N N N u $.m.;.@.{ A A N N 9 w N w w w A w Y x 9 w Y w N w N A A N 9 b N w w w A A B N u :.s.;.@.[ A B A N 4 N ",
"! N _ / ^ ^ L ! [ u.V.p.3.>.[ H ! _ R / ! N /  ._ ) L / ! ! ~ !  ./ ^ ) ! / ! / A A _ / / H L W @.i.B.e.>.>.^ H ! ) ! / ",
"_ A / E R / L W >.(.i.e.d.^.-.! L / ~ / _ R / T Y E x w 9 w w w A E B u N / E / ) L / Y R _ ! R u.^.i.3.F.!.} ^ ! / ~ ~ ",
"^ ! / Y Y E ! R >.(.V.G.V.^.-.H A ~ ~ ~ E ! / x 0 6 c > w , : q u 6 q H q 0 u N A ) ~ R W ! ! A i.~.V.B.F.^.} A L E ~ ~ ",
"A A ~ ~ ~ ^ N Y u.K.d.e.d.^.7.L w ~ ~ R A A b > 4 G M > L ^ 4 G $.6 G =.R < n ^ w N Y Y E ^ N ! i.K.i.e.F.^.=.G w ~ ~ Y ",
"w 9 N N A N 5 ) i.Q.u.1.d.W.l.H 9 A N w 5 , - 4 m 9.c v U <.b m K v B :.#.5 H %.} b 9 w A w q } N.W.y.;.M.W.y.V w N N A ",
"^ ! _ N / ^ ! ^ X.r.| =.6.t.] W ^ _ N 9 = : x M 1.U : 4 m ) U 6 O.4 q %.%.0 q H [ :.B > G ~ ! ) X.t.| $.6.t.[ ) / _ A { ",
"~ ~ { ! _ ~ ~ / @.y.=.} =.} R R N 9 > % q B Z U Z : 6 &.z.q.M ) 2.n ) b %.Z 5 n G I b n B r E / @.e.&.{ =.{ L E R _ !  .",
"~ E / A Y R A ~ G R R H H H R N - > > , Z @.G 1.4.Z K f.b.:.Z 2.&.C 2.%.M q 4 G G 5 5 [ @.B b E S W R E W A Y ! E ! L _ ",
"~ ~ ~ N Y R W / V ! E R ~ B q ; > y w = q ) ;.1.q.o.L g.A.n.0.x.2.Z a.q.L 5 4 b y : q B @.@.B y N R ~ Y / N E Y ~ / w ! ",
"A w A w N A N A w b B N B 9 - 6 y C B 4 = 5 ^ 5.3.j.q.x.v.n.x.j.:.B q.9.&.5 5 q 4 > q S Z b 5 b n u N x A w A N A N w N ",
"! B _ ) ^ ) A / ^ / ) A ^ > - > b G I [ q % > I o.f.z.n.x.w.v.v.8.L a.l.1.b ; 2 $ 5 v n b > 5 @.>.b v L  ./ / ! ) / L / ",
"_ L / R E / H / ! E { L u > 0 : > y L @.G % O $ o.f.g.j.x.x.v.w.a.q.q.j.9.b o o X > q v 0 4 S @._ 0 > B ~ E / _ ! ~ ~ E ",
") ! / Y R ^ ! E Y / / w < q H I > - 0 B y +   % o.f.z.z.x.j.n.x.j.q.&.&.1.Z O   X : y > > b Z G q 4 N G w Y E ! E ~ E E ",
"A A ~ E R / N R Y R N - - 6 Z ;.} : e > $ o   : U 5.z.z.f.0.q.w.j._ @.O.U C .     X * t = 5 y 6 5 G +.G 9 Y / _ w ~ A E ",
"w w N B A w 9 A B w > 5 5 - > b ` 5 g &       o 4.#.k.4.m J <.4.1.&.j.) Z U o       * F @ + ; 4 b ) ! 4 - q N b x w N A ",
"/ ~ _ L _ ! ! _ L u 4 b Z b : > 1 ; g *       o U.U m.<.c Z.P.4.&.%.%.Z ) 3.o       * F #   $ w y y 5 5 I [ b ! A A A  .",
"~ ~  .! _ ~ R / H q 5 Z I @.L : + # F *       o ).P e.4.P P.P.e.O.+.b 0 T.f o       * g $   $ b u 4 5 S &.-.q V ~ _ L  .",
"~ ~ / N Y ~ ~ A > < - q q G ^ y o # f #     . o P.#.#.e.e.m.k.k.2.L > 1 L.` o .     * j @   X - 5 y n G [ Z 4 u Y / A _ ",
"E R / b Y ~ R 9 : u b y 4 : 5 5 o # F *       X S b.x o.1.5.h.1.^ q w v v ) -       * F # .   * 5 y y y 0 > : B ~ / A ^ ",
"x w w w N A w > 5 n ^ @.[ 6 + o   # F #       X f z.- 4 m K L n q b ) 5.5.1.m 4     % F @     < y y 5 > 9 B q 9 A w > N ",
"~ V _ _ / ! : : y y H [ ! y +     # F *       o f A.x A L ! B ) +.:.a.p.C.Z.#.P % . & F $   X + 1 > - 5 L :.) w _ ! ! / ",
"/ ! / A R ) 4 , q q 6 1 $ + X     # F *       O f C.L ,.*.8.*.8.9.v.q.j.b.z.q.v 5.X & F #     X o $ > q b I H 0 / ~ ~ ~ ",
"/ L / A Y _ , , x q 6 > $ + X     # f * .     O f e.@.l.g.j.n.g.j.x.9.@.#.;.f.K K 1.* F #     X o $ > x x ^ A q / ~ ~ ~ ",
"^ ! / Y Y / > : 5 w B > +         * ` *       @ /.v I l.z.v.g.x.v.x.w.H 6 n 5.&.v ;.* ` * .       o : : 4 9 q 4 A ~ ~ W ",
"^ ! / Y Y / , : 6 y B > + .       * ` *       _.4.: K 0.g.x.v.n.x.w.1.b 4 ^ K 1.M @.* ] *         + : : > q q 4 A ~ ~ W ",
"! E / Y Y ~ > : 5 y B > o         % ` *   = P.[ y - > #.v.g.8.,.+.+.Z 5 H F q O.#.m O.` * .       o : : > q q > A ~ ~ W ",
"^ ! / Y Y _ , : 6 y B > +         * ` * . E.K J M m - G x.b.g.&.! ) b 5 y F M U 3.P m.` *         + : : > q q 4 A ~ ~ W ",
"^ ! / Y Y / , : 5 y B > o         * ` %   /.n J v 1 - 7 ,.A.w.o.#.O.x 1.3 c.U $.h.$.4.` *         + : : > q 6 4 A ~ ~ W ",
"^ ! / Y Y / , : 5 y B > +         * ` *   R.y G n 6 7 : I 0.&.+.) C 4 I.2 A.M f.z.O.#.] *         o : : > q 5 , A ~ ~ W ",
"^ ! / Y Y / > : 5 y B > o         * ` *   _.P c M Z.k.y 7 ( o.( C 5 4 T.2 l.6 1.e.J m.` *         o : : > q q 4 A ~ ~ R ",
"^ ! / Y Y / , : 6 q B > O         * ` *     E.m.S.< b.x L q.&.C 1 1 : Y.2 Y.J J M Z.Z.] *         o : : > q q 4 A ~ ~ W ",
"^ ! / Y Y ~ , : 6 v B > o         * ` #       + F S O.Z f.f.( 4 7 y 4 @.B F L.U._.5.* ` *         + : : > 9 q 4 A ~ ~ W ",
"^ ! / Y Y / > : 5 y B > +         * ` *       + F D.7 #.f.O.4 - v m y v R.F @ X     * ` *         + : : > q q , A ~ ~ W ",
"^ ! / Y Y / > : 5 y B > +         * ` *       + F z.b 5.1.M $ > 7 Z M n P.F + X     * ` *         o : : > q 6 4 A ~ ~ W ",
"^ ! / Y Y / , : 6 q B > o         * ` *     . + F p.O.1.I : U D.m c M m c Y.+ X     * ` *         + : : > 5 q 4 A ~ ~ W ",
"^ ! / Y Y / , - 6 v B > +         * ` &     . + H.m &.h.G 6 E.h.4 4 K K 4 Z.@ X   X * ` *         o : : > q q 4 A ~ ~ W ",
"^ ! / Y Y / , : 9 y B > +         * ` *       D.P $.h.h.5.U B.1 - 7 c v O./.+ X     * ` *         + : : > q 0 4 A ~ ~ W ",
"^ ! / Y Y / , : 6 y N : +         * W *     o 5.U 3.1.1.O.<.Z.J c m J Z.I F + X     * ` *         + : : > 6 q 4 A ~ ~ W ",
"^ ! / Y Y / > > 0 q B > + X       * ` *       U e.<.1.<.4.- t i $ @     1 F @ X     * ` *         + : : > q q 4 A ~ ~ W ",
"/ ! / Y Y / > : 6 y B > o         * W *     . + F 3 X     X t t X       2 F + X     * ` *   .     o : : > 6 q 4 A ~ ~ W ",
"^ ! / Y Y / > : 6 q B 1 +         * ` *       + F < X     X t t X       2 F + X     * ` *         + : : : q q 4 A E E W ",
"^ ! / Y Y / > : 5 y B > o         * ` *       + F < X     X t t X       2 F + X   X * ` *         o : : , 6 q , A ~ ~ W ",
"A A ~ Y E / > 9 n I ;.[ =       X < X.e X     * -.f X   X + ` ` $     O S $.* X . X < y.< .       X + : q G ) C u E R Y ",
"w 9 N w A x ; w y 9 H G $       X @ : $ o X X + < *   X + + < - X + O X * < + + X X # < O           $ 5 v Z [ u 9 N N A ",
"/ ~ +.A _ ^ w 5 - = 1 = X     X X X X @ $ X @ $ @ + X + $ $ o X + $ $ @   + $ $ O + O       .     X % 4 > > 6 > B +.A { ",
"~ ~  .H _ E 9 > = - - +       X + + X + + X X + + X   + + + X X X $ + X X @ + + X + X X X X         o 1 n ^ [ G A _ L { ",
"~ ~  .A Y E 9 4 q I $.5   . X + X + $ + X + + X X + $ $ X X o $ + X   + + + X X X X + $ # X   X     o > A @.>.I A _ L / ",
"~ ~ / N A E 9 , b b ) q X o + + + $ = + @ + $ @ o $ $ $ + X $ $ $ + O + $ $ + O $ $ $ $ + X O + X   o 1 q b I u N / N ! ",
"x w V q w V , , q 5 q >   + $ + . + $ $ + + $ $ X $ $ $ $ O $ $ $ + + $ $ $ $ o $ $ $ $ $ X + $ + X o % - 4 5 4 w B 9 N ",
"9 , : 9 > , ; 9 u ! L r l a h Q z z f h l a h Q l l d h l k z a h ' l z d h l Q ' z Q a T j k ' p T l 8 5 v ^ u : > : , "
};
