/* XPM */
static char *result[] = {
/* columns rows colors chars-per-pixel */
"60 60 179 2 ",
"   c #090606",
".  c #0B0906",
"X  c #0C0B0B",
"o  c #120E0D",
"O  c #14130D",
"+  c #151313",
"@  c #1F1C14",
"#  c #1B1A1A",
"$  c #221F1D",
"%  c #242117",
"&  c #242318",
"*  c #242222",
"=  c #282524",
"-  c #2E2922",
";  c #292728",
":  c #2E2929",
">  c #342C2C",
",  c #382B2E",
"<  c #343424",
"1  c #373128",
"2  c #393628",
"3  c #373130",
"4  c #3D3634",
"5  c #3C3836",
"6  c #3D3C3B",
"7  c #403729",
"8  c #413336",
"9  c #443A32",
"0  c #423B39",
"q  c #4B3D3E",
"w  c #464432",
"e  c #494132",
"r  c #4A4A35",
"t  c #45403E",
"y  c #4A413A",
"u  c #554731",
"i  c #5B4730",
"p  c #5C4C37",
"a  c #50403A",
"s  c #534B39",
"d  c #5D5034",
"f  c #55523D",
"g  c #5E503A",
"h  c #695539",
"j  c #66593E",
"k  c #69593B",
"l  c #775833",
"z  c #7D5C31",
"x  c #765A3A",
"c  c #7A5D39",
"v  c #7E6037",
"b  c #454343",
"n  c #4B4542",
"m  c #4C4A45",
"M  c #4A4748",
"N  c #4E4B4A",
"B  c #524342",
"V  c #534945",
"C  c #5A4B43",
"Z  c #524C4B",
"A  c #5A4B49",
"S  c #545246",
"D  c #5A5241",
"F  c #5D5A43",
"G  c #55504B",
"H  c #5B524D",
"J  c #5F5C48",
"K  c #5B4F51",
"L  c #555352",
"P  c #5D5351",
"I  c #5D5852",
"U  c #5D5A5A",
"Y  c #614E49",
"T  c #665543",
"R  c #64524C",
"E  c #68534E",
"W  c #64584D",
"Q  c #725C43",
"!  c #635452",
"~  c #695450",
"^  c #645A54",
"/  c #6B5A54",
"(  c #605758",
")  c #645C59",
"_  c #6A5D5A",
"`  c #66634E",
"'  c #776043",
"]  c #7B6342",
"[  c #646452",
"{  c #6A6653",
"}  c #65615B",
"|  c #6C635D",
" . c #6D695E",
".. c #736B53",
"X. c #71615C",
"o. c #736E5B",
"O. c #76755D",
"+. c #615F60",
"@. c #646161",
"#. c #6C6562",
"$. c #6D6963",
"%. c #6D6B69",
"&. c #726B65",
"*. c #736C6C",
"=. c #796D6D",
"-. c #747267",
";. c #797666",
":. c #74736B",
">. c #7A746C",
",. c #7D7B6B",
"<. c #757372",
"1. c #7B7574",
"2. c #7D7B75",
"3. c #7D7679",
"4. c #7D7B7A",
"5. c #867B54",
"6. c #827E6C",
"7. c #827A76",
"8. c #817778",
"9. c #847C7C",
"0. c #897E7D",
"q. c #7E827D",
"w. c #9D8E5C",
"e. c #A4955E",
"r. c #828172",
"t. c #8A8674",
"y. c #8C8975",
"u. c #83827E",
"i. c #89807E",
"p. c #878A7E",
"a. c #8E8D7D",
"s. c #938B78",
"d. c #857F81",
"f. c #8A7F81",
"g. c #858282",
"h. c #8C8384",
"j. c #8A8987",
"k. c #8C8688",
"l. c #8D8C8B",
"z. c #918586",
"x. c #918788",
"c. c #938B8B",
"v. c #988E88",
"b. c #8D928E",
"n. c #9A9684",
"m. c #959B8E",
"M. c #9A9988",
"N. c #939192",
"B. c #9C9794",
"V. c #999896",
"C. c #9D9B9A",
"Z. c #A69B8D",
"A. c #98A093",
"S. c #A5A19C",
"D. c #A2AB9E",
"F. c #BDB595",
"G. c #A4A3A3",
"H. c #AAA7A6",
"J. c #ACAAA4",
"K. c #ACABAB",
"L. c #B3AFA7",
"P. c #B1AEAD",
"I. c #B1B0AE",
"U. c #B4B4B4",
"Y. c #BBBAB5",
"T. c #B9B7B9",
"R. c #BDBBBA",
"E. c #C8BC8B",
"W. c #C2BFBD",
"Q. c #CEC08F",
"!. c #D1C48F",
"~. c #D2C6AB",
"^. c #D2C9A9",
"/. c #C2C1BE",
"(. c #DBCFB1",
"). c #C9C5C4",
"_. c #CECBCA",
"`. c #D2CECD",
"'. c #DCD8D7",
/* pixels */
"^ V #./ / ) H _ / / ) ! | _ / ) J _ / / ! A | _ / ! P / / / ! H X._ / ) ! _ ~ _ ! A | / / ! P _ / _ ! ! #._ / _ ) _ ! / ",
"_ P / ~ / / P / E ~ #.! / ~ / ) P / ~ / _ P / ! / ) ! / ~ / _ ! / ~ / _ ! / ~ / _ H / ! / ~ ! / ! / | ^ / E / ) ! / ~ ~ ",
"^ ! / Y R ! P ~ R ^ o.^ ~ R E E A ~ ~ ~ ^ ) / Y Y ! ! / Y / ! ) ~ Y ~ ^ ! / ~ ~ ! ! ~ Y ~ ! ! E Y _ #.E R W / ! ! ~ E ~ ",
"Y A / Y E / B ~ R ~ D s D R ~ ) B ~ Y ~ Y A ~ R ~ ! B E Y E B ! ! E ~ ~ q E Y ~ Y P ~ R / ! B E Y ! A s D H E ! B ~ Y ~ ",
"q q q A A q 8 B F A y 7 B C A n 8 B B A q q q A A q q B B B q q B q A q q q B Z q q q A A q 8 B R V y 4 B V D B q q B A ",
"/ ! _ G ) ! E _ ^ | &.} ^ C H ! A Z A ^ / ! _ H / P P _ P _ ! ! _ Z | _ B V V _ ~ ! _ K _ ! ! _ ^ o.o.^ ^ C H ! B Z V X.",
"B E X.^ _ ~ ~ / [ >.D.b.:.V C R ! / P _ ~ ~ X.! _ ~ Y X.! X.~ ~ X.^ X.R ~ _ R X.~ ~ X.! _ / E _ ^ r.D.b.:.y C E ~ _ P X.",
"1 R / B ~ ~ R / W &.b.b.4.r C R Y / P / ~ ~ / Z E ~ ! / A / ~ ~ / A ! Y Y / A / ~ ~ / B ! E E / W :.b.b.:.9 C Y Y / A / ",
"4 A / B Y E E _ R W :.q.} g D R ~ _ A ! ~ R / n A ~ / _ q E ~ ~ / B E R Y _ H ! ~ ~ / n R E E _ D ^ :.r.` V f E E / V E ",
"3 q q q B B B B y %.b.:.$.| A A B B 8 q B q q q A q A B 8 q A q B q B A A B 8 n B q q q A A V B n :.p.:.$.} A V A B 3 B ",
"! B _ / ^ ) P ! [ t.M.u.7.,.) H ! _ R / ! B / _ _ ) H / P ! / ! X./ ^ ) ! / ! / A A _ / / H H W $.t.m.q.,.,.^ H ! ^ ! / ",
"_ H / Y R / P R ,.(.a.2.a.^.;.! P / ~ / _ P / T Y ! q q 8 q q q A E V y B / E / ) P / Y R ) ! R y.~.y.2.Z.^. .^ ! / E / ",
"^ ! / Y Y ~ ! R ,.(.M.A.M.^.;.H A ~ ~ ~ ~ ! / B 4 6 ; > q 3 : 0 b 6 5 L 0 9 y B A _ E Y R ! ! A y.~.M.m.Z.^. .A P ~ ~ ~ ",
"A A ~ ~ ~ ^ B Y r.F.s.q.n.^.6.P q ~ ~ R A A q , 3 G 6 @.U q.0 I b.q.+.N.'.N.U.^ q B Y Y E ^ B ! y.F.a.q.Z.^.-.G q ~ ~ Y ",
"q 8 B B A B 4 ) a.!.t.>.s.E.p.! 8 A B q 4 > = 1 m C.<.6 U 5 M N b 3 6 L @.@.l.&. .n 8 q A q 0  .n.E.7.:.a.Q.r.C q B B A ",
"^ ! _ B / ^ ! ^ o.e...-.5.w.{ R ^ _ B 8 * : * 0 C.M M 6 +.L U 4.+.b : ; M @.c.H } >.V , G E ! ) O.e...%.5.e.[ ^ / _ A | ",
"~ ~ | ! _ ~ E / $.r.-. .-. .R R B 8 , $ 0 V > T.b U 8.A 1.#.n 1.f.*.q B 1.%.W.m G I m n V e E / %.r.%.#.:.| P E R _ ! X.",
"E E / A Y R A / S W R H H H R B = , : , G &.H 4.L 9.x.K &.9.^ =.z.0.U +.x.#.k.Z Z 4 4 } %.V n E Z W W R W A R ! ~ ! ! _ ",
"~ ~ E B Y R R / A ! E R E V 0 - > 0 q & 6 ) ).M #.z.h.K *.v.0.k.0.x.9.d.d.<.N q t : t y $.$.V q a R E Y / B E Y ~ / q ! ",
"A q A q B A B A q y V B V 8 = 4 b n Z 4 * 4 ).Z 8.x.f.K &.i.h.h.z.x.k.h.#.P.4 q 1 > t H G n 2 n m y B q A q A B A B q B ",
"! B _ ) ^ ) A / ^ / ) A ^ > = 1 m A I } t $ `.) 9.z.f.#.8.k.x.h.x.h.h.9.^ W.& 2 # 3 b m n > 5 &.>.B t H X./ / ! ) / P / ",
"_ ! / E ~ / P / ~ ~ | P y > 5 : > t H $.Z @ `.I f.z.f.f.h.x.h.x.h.h.h.9.P ).+ o X > 0 b 5 3 G $.} 0 , Z ~ E / _ ! E ~ E ",
") ! / Y R ^ P ~ Y ~ / q > q P J > = 5 V t + _.Z #.+.+.8.d.k.d.l.x.k.k.3.) ).O   X : t > > y G G 0 3 V S q Y E ! E ~ E E ",
"A A ~ E R / B R R R B = = 4 Z :.$.: w , @ O W.M ( +.*.#.3.d.<.%.*.0.k.1.I S..   . X & r * 4 b 4 4 G  .Z 8 Y / ) q ~ A E ",
"q q B V A q 8 A V q > 5 0 = > m ` 0 p &     6 j.K K 9.3.<.<.4.%.4 *.k.%.9.W o   . . & F # + - 3 n ) I 3 = 0 B y q q B A ",
"/ ~ _ P _ ! ! _ P n > n Z y : > 1 & g &       C.d.n +.%.%.g.U.K.Z %.h.+.B.f o     . & f @   # n t y 5 4 I } m ! A A V | ",
"~ ~ X.! _ E R / H 0 4 Z ^ $.P : + @ F &       + '.N > I %.<.V.G.) 4.g.I S.f o       % p #   # y n 1 4 G -.=.0 C ~ _ P X.",
"~ ~ / B Y E / A > < = 0 0 G I t o @ S @     @.R.3.0 3 M <.g.j.k.g.d.U +.2.f o       $ h #   X - 4 q m Z } H 1 q R / A _ ",
"E E / n Y ~ R 8 : y m t 3 : 4 4 + @ F &   K.%.L Z ( Z 3 M #.:.<.#.Z = %.< f o       & F @     = 4 t t t 0 > : V ~ / A ! ",
"B q q q B A q : 4 n I $.} 0 + o   @ F @ + k.L 9.c.f.=.( M n n m m 0 > 3.< f o       @ F #     - t t 5 > 4 V 0 8 A q , B ",
"! B _ _ / ! : > t t P } I 0 o     @ F & `.M *.N.c.x.i.0.=.| #.#.U U Z 1.< g o   . . % F #   X + 1 > = 4 P >.^ q _ ! ! / ",
"/ H / A R ) , , t 0 5 > $ + X     @ F & k.M 8.h.0.f.0.z.z.9.8.9.9.g.$.u.< f o   . . & F @     X o # > 0 n J H 8 / ~ E E ",
"/ P / A R ^ 3 , 0 0 5 > # + X     @ F J.M U 9.$.L ) 8.f.0.x.h.h.h.z.#.#.:.f o .   . & F @     X o + , 0 n I L 0 / ~ ~ ~ ",
"^ ! / Y Y / , : 5 t V > + .       & ` /.b :.4.N = n 9.x.v.z.h.z.k.h.+.> C.F + X     & ` & .       + : : , 0 0 3 A ~ ~ R ",
"^ ! / Y Y / , : 5 y V > +         & [ <.G <.G 4.) 3 ) >.0.h.h.h.f.8.V = Z P.%.X     & { &         + : : > 0 8 3 A / ~ W ",
"^ ! / Y Y ~ , : 4 t V > o .       & J.U %.%.L K.H.3 V #.^ #.7.x.c.+.: 5 b N %.l.    & ` &         o : : > 6 0 1 A ~ E W ",
"^ ! / Y Y / , : 4 b V > +         & I.L q.+.L b W @.5 } ) &.8.c.z.( = 3 N L M K.    & { &         + : : > 0 0 3 A E E W ",
"^ ! / Y Y / , : 5 0 V > o         & 4.+.j.2.@.g.F C.t U ) ) 3.c.1.4 $ 4 b L N A.  . & ` &         + : : > 8 0 , A E / W ",
"^ ! / Y Y / , : 4 t V > +         & q.N j.g.N q.F &.4 0 ) ) @.$.Z > %.) 6 N 6 K.    & ` &         o : : > 0 0 3 A / E W ",
"^ ! / Y Y / , : 4 t Z > o         * R.+.%.+.3 q.F $.6 - t P ) %.b 0 T.T.%.b %.<.    & ` &         + : : > 6 0 3 A E E R ",
"^ ! / Y Y / , : 5 t V > +         & J L %.U <.; F q.3 5 > 6 $.u.<.b *.X S Y.L X     & { &         o : : , 0 0 > A ~ E W ",
"^ R / Y Y E , : 5 t V > O         & ` & X + . + F +.3 6 b > t <.k.) b R.2 J + X     & ` & .       + : : > 8 6 4 A ~ ~ W ",
"^ ! / Y Y / , : 8 t V 1 o         & ` &     . + { U b L b * ; L 9.1.6 4.2 F + X     & ` &         + : : > 0 0 1 A ~ ~ W ",
"^ ! / Y Y / , : 4 t V > +         & ` &       + j.b N N 3 L : 4 @.k.L q.f J + X     & ` &         o : : > 6 8 3 A ~ ~ W ",
"^ ! / Y Y / , : 4 t M > o         & J &     . @.6 N L 6 6 J.A.; m 1.#.) ).J + X     & { &         + : : > 8 0 3 A ! E W ",
"^ ! / Y Y / , : 4 b V > +         & ` &       q.6 b N b : M I.+.L 9.f.N *.L.+ X   . & ` &         + : : > 0 0 3 A ~ ~ W ",
"^ ! / Y Y / , : 4 t V > +         & [ &     . # b.L b ; ; ; j.#.=.v.0.3.@.g.1 X     & ` &         o : : > 0 0 3 A E ~ W ",
"^ ! / Y A / , > 5 t V > o         & [ &     . + F U j.<.2.2.J.b.U U +.@.L l.: X     & ` &         + : : > 6 0 1 A / ~ W ",
"^ ! / Y Y / , : 4 t V > O         $ ` &       + F < X     X r [ K.K.G.G.U.S.+ X     & ` &         O : : > 6 0 > A ~ ~ W ",
"^ ! / Y Y / , : 5 t V > +         % ` &       + F < X     X r r X       1 F + X     & ` &       . O : : > 0 0 3 A ~ ~ W ",
"^ ! / Y Y / , : 4 t V > O         & ` %     . + F < X     X r r X       < J + X     & ` &         o : : > 0 0 , A ~ E W ",
"^ ! / Y Y ~ , : 5 t V > +         % ` %       + F < X     X r r X       2 J + X     & ` &         + : : > 0 0 3 A ~ ~ W ",
"A A ~ Y ~ ^ : 0 n I :.} *     . X < O.w X     & O.S X   . + [ ` @     O f %.& X   X 2 q.< X       X + : 0 G ) m y R R R ",
"q 8 B q A n & q t 0 H G #       X + 1 # o X X + < &   X + + < = X + O X & < + + X X @ < O           # 4 t G } y 8 B B A ",
"/ / #.A _ ^ q 8 = * > * X     X X X X + # X + # + + X + # # o X + # # + X + # # O + O             X # 4 > > 0 > Z | A | ",
"E E X.P _ E 4 > * = = +       X + + X + + X X + + X X + + + X X X # + X X + + + X + X X X X   .     o 3 n ^ [ G A _ H | ",
"/ E X.A Y ~ 8 3 0 P %.4     . + X + # + X + + X X + # # X . o # + X X + + + X X X X + # @ X . X     o > Z &.,.U C _ P / ",
"E E / B A Y 8 3 n V ) t X + + + + # $ + + + # + + # # # + o # # # + O + # # + + # # # # + X O + X   o 3 0 n ! y B / B ! ",
"B q A 8 q A , 1 0 4 4 > . + # + X + # $ + + # # X # # # # o # # # + + # # @ # X # # # # # X + + + X o # = 3 4 3 q V 8 B ",
", , , 8 , : : 8 y ! H e x p j Q v z f T x i j Q x v d j x l c f k Q x v p k x ' ] v Q s T x x ' u T x 7 0 0 ^ n : , : , "
};
