/* XPM */
static char *result[] = {
/* columns rows colors chars-per-pixel */
"60 60 170 2 ",
"   c #090606",
".  c #0B0906",
"X  c #0C0B0B",
"o  c #120E0D",
"O  c #14130D",
"+  c #151313",
"@  c #1F1C14",
"#  c #1B1A1A",
"$  c #221E1E",
"%  c #242117",
"&  c #242318",
"*  c #242121",
"=  c #292524",
"-  c #2E2922",
";  c #2B2728",
":  c #2E2929",
">  c #342C2C",
",  c #333424",
"<  c #35312C",
"1  c #383628",
"2  c #373130",
"3  c #3D3634",
"4  c #3F3A35",
"5  c #3D3739",
"6  c #3E3A3A",
"7  c #403729",
"8  c #413336",
"9  c #433B33",
"0  c #403738",
"q  c #423B3A",
"w  c #4B3D3E",
"e  c #464432",
"r  c #494132",
"t  c #4A4A35",
"y  c #45403E",
"u  c #4A413A",
"i  c #544731",
"p  c #5B4730",
"a  c #5C4C37",
"s  c #50413A",
"d  c #524B39",
"f  c #5D5035",
"g  c #55523D",
"h  c #5E503A",
"j  c #695539",
"k  c #66593E",
"l  c #6B5B39",
"z  c #775833",
"x  c #765A3A",
"c  c #7E6037",
"v  c #454242",
"b  c #4B4543",
"n  c #4B4846",
"m  c #4A4748",
"M  c #4D4B4A",
"N  c #524342",
"B  c #534945",
"V  c #5A4B43",
"C  c #504748",
"Z  c #524C4C",
"A  c #5A4B49",
"S  c #5A5241",
"D  c #5D5A43",
"F  c #55504B",
"G  c #5B514C",
"H  c #534F51",
"J  c #555252",
"K  c #5D5351",
"L  c #5E5853",
"P  c #5D5A59",
"I  c #614E49",
"U  c #665543",
"Y  c #64524C",
"T  c #68534E",
"R  c #64584D",
"E  c #735C43",
"W  c #635452",
"Q  c #695450",
"!  c #645A54",
"~  c #6B5A54",
"^  c #615758",
"/  c #645C5A",
"(  c #6A5D5A",
")  c #66634E",
"_  c #776043",
"`  c #676450",
"'  c #6B6554",
"]  c #66615B",
"[  c #6B625D",
"{  c #6D695E",
"}  c #736B53",
"|  c #71615C",
" . c #736E5B",
".. c #77755D",
"X. c #7C755A",
"o. c #615F60",
"O. c #695F60",
"+. c #666261",
"@. c #6C6462",
"#. c #6D6963",
"$. c #696768",
"%. c #6D6B69",
"&. c #716666",
"*. c #736C64",
"=. c #706769",
"-. c #736B6B",
";. c #796F6F",
":. c #737267",
">. c #797664",
",. c #75736B",
"<. c #7B736D",
"1. c #7C7B6B",
"2. c #716E70",
"3. c #786F70",
"4. c #767372",
"5. c #7C7474",
"6. c #7D7C74",
"7. c #7D7A7A",
"8. c #867B54",
"9. c #827E6D",
"0. c #827776",
"q. c #817778",
"w. c #847C7C",
"e. c #8A7E7E",
"r. c #7E817D",
"t. c #9D8E5C",
"y. c #A4955E",
"u. c #828173",
"i. c #8A8674",
"p. c #8C8975",
"a. c #83827E",
"s. c #89807E",
"d. c #878A7E",
"f. c #8E8D7D",
"g. c #938B79",
"h. c #847E80",
"j. c #858382",
"k. c #8D8383",
"l. c #8E8987",
"z. c #8C8D8B",
"x. c #918585",
"c. c #998E82",
"v. c #918788",
"b. c #948A8A",
"n. c #8D928E",
"m. c #9A9684",
"M. c #93918E",
"N. c #959B8E",
"B. c #9B998B",
"V. c #959392",
"C. c #9C9494",
"Z. c #9B989A",
"A. c #A69B8D",
"S. c #98A093",
"D. c #A2AB9E",
"F. c #BDB595",
"G. c #ABA9A3",
"H. c #AFACAE",
"J. c #B0ADAD",
"K. c #B1AFB0",
"L. c #B5B1B0",
"P. c gray74",
"I. c #C8BC8B",
"U. c #CEC08F",
"Y. c #D1C48F",
"T. c #D2C6AB",
"R. c #D2C9A9",
"E. c #DBCFB1",
"W. c #C5C4C4",
"Q. c #CCCBC9",
/* pixels */
"! B @.~ ~ / G ( ~ ~ ! W { ( ~ ( L ( ~ ~ W A { ( ~ W K ~ ~ ~ W K | ( ~ / W ( Q ( W A [ ~ ~ W K ( ~ ( W W @.( ~ / / ( W ~ ",
"( K ~ Q ~ ~ K ~ W Q @.W ~ Q ~ / G ~ T ~ ( G ~ W ~ ( W ~ Q ~ ( W ~ Q ~ ( W ~ Q ~ / K ~ W ~ ~ W ~ W ~ { W ~ Q ~ ~ W ~ Q Q ",
"! W ~ I Y W G Q Y !  .! W Y T T A Q Q Q W / ~ I Y W G ~ I ~ W / Q I Q W W ~ Q Q W W T I T K W Q I ( { T R Y ~ W W Q T Q ",
"I A ~ I Q ~ N Q Y Q S d S Y Q ! N T Y Q I A T Y T W N Q I Q N G W T Q ~ w Q I Q I W Q Y ~ W N Q I W A d S G Q W N Q I Q ",
"w w w A A w 8 N D V w 7 N V A b 8 N N A w w w A A w w N N N w w N w A w w w N B w w w A A w 8 N Y B u 3 N N g N w w N A ",
"~ W ( F / W Q ( ! [ *.] ! V G Q A B B / ~ W ( K ~ K K ( W ( W W ( A [ / N B B ( Q W ( K ( W W ( !  . ./ ! A G W N B B { ",
"N Q | ! ( Q Q ~ ] 1.D.n.,.B V Y W ~ K ( Q Q | W ( T I | W | Q Q | W | Y ~ ( K | Q Q | W ( T T ( ! u.D.z.1.u V T Q ( W | ",
"< Y ~ N T Q Y ~ R *.n.n.7.t V I I ~ K ~ Q Q ~ A T Q W ~ A ~ Q Q ~ A W I I ~ A ~ Q Q ~ N W T T ~ T ,.n.z.,.9 V Y I ~ A ~ ",
"3 I Q N I Q Q ( Y R ,.r.] S S Y Q ( A W Q Q ~ b A Q Q ( w T T Q ~ N Q T Y ~ G W Q Q ~ u Y T T ( S ! ,.r.) B g T T ~ B T ",
"2 w w w N N N N u %.n.,.#.[ A A N N 8 w N w w w A w A N 8 w A w N w N A A N 3 b N w w w B A B N b ,.d.>.{ ] A B A N 2 N ",
"K N ( ~ ! ! W W ] i.B.r.6.1.] G W ( I ~ W N ~ ( ( / K ~ W W ~ K | ~ ! ! W ~ W ~ A A ( ~ ~ K G R { i.N.r.1.1.! G W ( W ~ ",
"( A ~ Y Y ~ K R 1.E.f.6.g.R.1.W K ~ Q ~ ( W ~ U I W w w 8 w w w A T B u N ~ Q ~ / K ~ I Y / W Y i.R.i.6.A.R.{ ! W ~ Q Q ",
"! W ~ I I Q G Y 1.E.m.S.m.T.>.G A Q Q Q Q W ~ N 9 3 = < w < : q u q q G q 9 u N A / Q I T W W A i.R.m.N.A.R.{ Z G Q Q Q ",
"A A Q Q Q ! N Y u.F.m.u.c.R.9.K w Q Q Y A A u > 2 F y > G &.2 F %.0 F ,.R < b ! w N I I T ! N W p.F.f.r.A.R.:.F w Q T I ",
"w 8 N N A N 3 / f.Y.i.,.g.U.d.G 8 A N w 3 > = < b @.| 2 F 4.q y *.q B ,.@.3 F *.{ b 8 w A w q { B.I.u.,.f.U.u.V w N N A ",
"! W ( N ~ ! W !  .y.} >.X.t.' R ! ( N 8 * : * q F ] #.< q K n < L 3 u *.*.9 q K ( 1.B > F T W / ..y.} %.8.y.] ! ~ [ A [ ",
"Q T [ W ( Q W ~ #.u.:.{ :.{ Y Y N 8 > $ q B / J 4.P l.4.M L b n n 2 0 K *.F 3 n F L b b B r T ~ #.r.%.&.,.{ G T Y ( W | ",
"Q T ~ A I Y A Q F R Y G G G Y N = > > > F #.+.P 3 F n G L %.F G w q 0 J G y 2 G F 3 4 ] %.B u Q F R Y Y R A I W Q W K ( ",
"Q Q T N I Y Y ~ A W Y Y T B w - > y w $ 0 ] +.2.M v <.w.b.b.a.w.=.v 0 2.n 4 < u y : q b %.#.B y s R T I ~ N T Y Q ~ w W ",
"A w A w N A N A w u B N B 8 = 7 y b B 8 * 3 %.7.+.F w.l.x.s.s.k.7.m K w.q > q q < < y F F u 3 b b u N w A w A N A N w N ",
"W B ( / ! / A ~ ! ~ / A ! < = : b F K ] y # / w.h.;.h.b.x.x.x.k.l.O.q.k.9 r - 1 $ < y b b < 3 #.1.b v R | ~ ~ W ! ~ W ~ ",
"( W ~ Y Q ~ R ~ Q Q [ K u : q : > u R @.F @ +.5.h.v.C.A.x.s.s.x.v.h.k.w.q g o O X > y y 6 2 F #.] 8 > B Q T ~ ( W Q Q Q ",
"/ W ~ I Y ! K Q I T ~ w < y K L < = 6 B y + P +.h.x.x.b.x.x.x.x.e.x.k.5.9 g O   X : y > > u F F 0 < B Z w I Q W Y Q T T ",
"A A Q T Y ~ N Y Y Y N = = 4 B ,.#.: e > # O q $.b.h.x.e.x.e.x.f.x.k.4.] 4 g       X = e & 6 v 3 6 F @.F 8 I ~ / w Q A T ",
"w w N B A w 8 A B w > 6 4 = : b ) q h & . . 2 $.h.h.e.c.b.h.h.c.h.h.-.^ w d o       & D # + - 2 b ! K < ; q s b w w N A ",
"~ T ( W ( ^ W ( G b 2 b F u : > 2 & h &     J P 0.b.b.h.e.e.c.h.v.3./ &.P V o     . & D @   # b u y 4 6 L ] b W A A B @.",
"Q Q | W ( Q Y ~ G 0 2 F L #.K : + $ D &     J 4.&.q.h.x.h.e.h.h.q.O.^ $.u g O .     % f #   # u v < 8 F :.,.q V Q ( K | ",
"Q Q ~ N I Q T A > , ; 0 q F ! y o @ d $     M P W &.-.0.e.0.0.0.$.^ / y 1 g X .     $ j #   X - 3 y b F ] F < s Y ~ A ( ",
"T T ~ b I Q Y 8 : u n y < : 4 2 o @ h &     < $.v ^ &.+.8.O.&.Q O.O.M 5 , g o   .   % D @     * 3 y y y q > : B Q ~ A Q ",
"N w w w N A w : 4 b ! #.] q + o   @ D % X 6 $.J 0 C ^ / Q ( O.O.^ P q > , g o       @ D #     - y y 3 > 8 B q 8 A w > N ",
"Y N ( ( ~ W : > q y K ] ! q +     @ D & 3 m P o.K J Z O.O.O.O.O.K 5 P K 9 h O   . . & D #   X + < > = 4 G 1.! w ] W W ~ ",
"~ K ~ A I / 2 > y 6 6 < # + .     @ D & M 5.V.l.j.4./ / O./ O.O.$.%.w.a.,.P O   . . & g @     X O # > q b K G 8 ~ Q Q Q ",
"~ K ~ A T ~ 2 > w 8 6 > # + . .   @ D J P a.b.k.k.k.w.-.&.&.| &.0.w.x.v.b.b.;       & D @ .   X o # > q b L G q ~ Q Q Q ",
"! W ~ I I ~ > : 5 w B > +         & ) J M ] 5.q.h.k.x.e.e.e.e.w.x.v.b.x.k.k.$.X     & ) &         + : ; > 0 0 2 A Q Q R ",
"! W ~ I I ~ > : 5 y N > +         & ) v F K M ^ 0.x.s.e.e.x.x.e.v.h.h.h.4.%./ +     % ` &         o : : > 0 q 2 A Q Q R ",
"! W ~ I I ~ > : 3 y B > +         & %.y +.F : 5 O.0.e.w.e.e.e.0.h.h.3.A 2 Z $.y     & ` &         + : : > 6 q < A Q Q R ",
"! W ~ I I ~ > : 6 v B > o         & 4.J 2.y > n w @.3.3.w.x.x.-.0.&.H w 5 w 4.J n   & ` &         o : : < 0 0 2 A T Q R ",
"! W ~ I I ~ > : 3 y B > +         & 7.P 7./ n Z w ^ / &.0.x.h.&.^ W N -.7.C -.4.J   & ` &         + : : > q 0 2 A Q T R ",
"~ W ~ I I ~ > : 3 y B > +         & 3.m w.j.m > C O./ =.0.k.k.-.O.&.w v L y %.a.M X & ) &         + : : > 0 q 2 A Q Q R ",
"! W ~ I I ~ > : 3 y C > o         & M.m 7.%.6 ; Z / O.3.k.v.k.5.O.O./ 2 $ P j.%.M 4 & ` &         + : : > q 0 2 A Q Q R ",
"Q W ~ I I ~ > : 3 y B > O         & ) j.J v : 5 ^ ^ O.5.k.k.l.w.O.K / 0 v 7.z.o.m v & ` &   .     o : ; > 8 q < A Q Q R ",
"^ T ~ I I ~ > : 4 y B > +         & ) & J $.h.v ^ P Z @.w.k.7.$.Z / 4.M F j.a.M +.* & ` &         + : > < 0 q 2 A Q Q R ",
"~ W ~ I I ~ > > 3 y B > o         & ) &     3 J -.-.C v M C M v m =.w.q v J H o.n.  & ` &         + : : > 0 q 2 A T Q R ",
"! W ~ I I ~ > : 3 y B > +         @ ) &     : m 3.h.P v 7.C.j.m Z -.%.6 $.n.N.j.    & ) &         o : : > 6 0 2 A Q Q R ",
"! W ~ I I ~ > : 3 y B > o         & ) &     = J O.7.o.M L.X T.P H J 5 = n.D O X     & ` &         + ; : < q 0 2 A Q Q R ",
"! W ~ I I ~ > : 3 q B > +         & ) %       h.v O.P v G.X V.o.w m y = F G.+ X     & ) &         + : : > 0 q 2 A Q Q R ",
"W W ~ I I ~ > : 3 v B > +         & ) $     $ 7.> M H m L.. N.P J K M 2 2 W.O X     & ` &         O : : > 0 0 2 A Q Q R ",
"! W ~ I I ~ > : 3 y B > +         & R $   X 2.; 5 o.^ m J.. N.L H %.P v y Q.+ X     & ) &         + : : > q 0 2 A Q Q R ",
"! W ~ I I ~ > : 3 y B > O         & ) %   + M 3 P r.2.M H.X r.J H 7.7.6 P S.+ X     & ) &         O : : > 0 q < A Q Q R ",
"( W ~ I I ~ > : 6 y B > +         & ) &   X o.m 7.Z.2.v H.X t V.v M m P W.D + X     & ) &         O : : > 6 0 2 A Q Q R ",
"! W ~ I I ~ > : 6 q B < o         % ) %     v J J $.v H $.X t n W.P.P.j.< D # X     & ) &         + ; : > q q 2 A Q Q R ",
"! W ~ I I ~ > : 3 y B > +         % ) %       K.$.2.4.K.  X t t X       1 D + X     & ) &         + : : > q q 2 A Q Q R ",
"A A T I Q W > 0 b L ,.] *       X , >.e X     $ >.D X   . + ` ` # X X O S %.& X X X 1 r., .       X + : q F ! n u T Y I ",
"w 8 N w I w - w y 6 G F #       X + < # o X X + 1 & X X + + , = . + O X & , + + X X @ , O           # 3 y F ] b 8 N N A ",
"~ Q @.A ( ! w 3 = * 2 * .     X X X X + # X + # + + X + # # X X + # # + X + # # O + O             X $ 2 > > 6 , N @.A { ",
"Q Q | G ( T 8 > * = = +     . X + + X + + X X + + X   + + + X X X # + X X + + + X + X X X X         O < b ! ] Z A ( K { ",
"Q Q | A I Q 8 2 w W %.4     X + X + # + X + + X X + # # .   O # + X   + + + X X X . + # @ X   .     o > Z | 1.L A ( G ~ ",
"Q Q ~ N A T 8 > w n / q X O + + + # $ + + + # + + # # # + o # # # + O + # # + O # # # # + . + + X   o < q n ! b N ~ N W ",
"N w A 8 w A > 1 6 4 6 >   + # + X O $ # + + # # O # # # # O # # # + + # # # # X # # # # # X + # + X o # = 2 3 2 w N 8 N ",
"> > > 8 > : > 8 u W G r x a U x c c g k x p D _ x x f k x z x a k _ l c a k c _ _ c E h U x z _ i U x 7 0 q ! b : 2 : > "
};
