/* XPM */
static char *result[] = {
/* columns rows colors chars-per-pixel */
"60 60 142 2 ",
"   c #1E1919",
".  c #292524",
"X  c #2E2A29",
"o  c #342E2E",
"O  c #34312F",
"+  c #353232",
"@  c #3B3534",
"#  c #3D3937",
"$  c #3E3B3A",
"%  c #423D3C",
"&  c #483E3F",
"*  c #43413F",
"=  c #49403F",
"-  c #413F41",
";  c #3F4140",
":  c #444342",
">  c #4B4645",
",  c #4A4947",
"<  c #494749",
"1  c #4E4C4B",
"2  c #504846",
"3  c #5C4F46",
"4  c #504748",
"5  c #534D4C",
"6  c #51514F",
"7  c #514F51",
"8  c #545252",
"9  c #5B5454",
"0  c #565B57",
"q  c #5B5956",
"w  c #5D5B5A",
"e  c #64584F",
"r  c #635757",
"t  c #605758",
"y  c #635C5B",
"u  c #685E5F",
"i  c #63615F",
"p  c #69615F",
"a  c #71665A",
"s  c #675E61",
"d  c #656262",
"f  c #6C6564",
"g  c #6D6967",
"h  c #696768",
"j  c #6C6B6A",
"k  c #786F67",
"l  c #736C6B",
"z  c #7B6E6E",
"x  c #75706E",
"c  c #7C736D",
"v  c #7A6E70",
"b  c #6F7170",
"n  c #757372",
"m  c #7B7373",
"M  c #7B7876",
"N  c #7D7778",
"B  c #747978",
"V  c #7D7B7A",
"C  c #807475",
"Z  c #817977",
"A  c #807778",
"S  c #837C7C",
"D  c #887D7E",
"F  c #7D807E",
"G  c #98836E",
"H  c #84817E",
"J  c #88817F",
"K  c #9E8B77",
"L  c #99897A",
"P  c #B1977A",
"I  c #877F81",
"U  c #8B7E81",
"Y  c #858282",
"T  c #8C8384",
"R  c #848A86",
"E  c #8B8886",
"W  c #8C8688",
"Q  c #8E8C8B",
"!  c #918486",
"~  c #948C84",
"^  c #958689",
"/  c #948B8B",
"(  c #998B8E",
")  c #8C918D",
"_  c #998F90",
"`  c #959494",
"'  c #9B9393",
"]  c #9F9991",
"[  c #9F9A9A",
"{  c #AC9982",
"}  c #BEA78E",
"|  c #ABA59F",
" . c #A7A4A3",
".. c #A3A9A4",
"X. c #ABA9A5",
"o. c #AAACAB",
"O. c #B4AFAD",
"+. c #AFB1B0",
"@. c #B4B2B3",
"#. c #BBB5B4",
"$. c #BFB8B6",
"%. c #C6B39C",
"&. c #D5B795",
"*. c #D3BA9C",
"=. c #D8BD9A",
"-. c #E2BA8E",
";. c #E5BD92",
":. c #E8BF95",
">. c #E0BF99",
",. c #C2B9AE",
"<. c #C4BCB9",
"1. c #E7C195",
"2. c #EAC296",
"3. c #EDC599",
"4. c #EEC99D",
"5. c #F0C79B",
"6. c #F2CB9E",
"7. c #DBC1A1",
"8. c #D1C0AC",
"9. c #C2C1BF",
"0. c #CBC2BC",
"q. c #D0C2B3",
"w. c #DECBB5",
"e. c #E5C9A6",
"r. c #EECDA1",
"t. c #E2C9AC",
"y. c #F4CEA1",
"u. c #F0CFA9",
"i. c #EFD0A4",
"p. c #F6D2A5",
"a. c #F6D5A9",
"s. c #F8D7A9",
"d. c #F7D9AA",
"f. c #EBD0B4",
"g. c #C1BEC0",
"h. c #C3C2C2",
"j. c #D6CCC3",
"k. c #D1CFCC",
"l. c #DED6CE",
"z. c #EDDAC5",
"x. c #E9DBC9",
"c. c #E9E2D8",
/* pixels */
"p.y.5.3.y.p.a.p.p.p.y.y.5.6.p.p.p.p.s.s.p.6.p.p.a.a.a.p.y.p.6.6.6.y.p.a.p.y.p.s.p.y.6.p.s.s.p.s.p.6.6.p.p.s.p.p.p.a.a.y.",
"p.a.p.p.p.a.p.y.6.p.p.p.y.y.p.p.p.p.p.s.p.4.p.p.p.p.y.6.6.p.p.y.y.p.p.p.p.p.s.s.p.p.p.p.p.p.p.s.s.p.p.p.p.s.p.p.p.d.y.r.",
"p.a.p.p.p.p.p.6.6.p.p.p.p.p.p.p.y.y.y.s.p.6.a.a.p.y.6.6.y.a.p.p.p.a.p.y.y.p.p.p.6.p.p.a.y.6.6.y.6.6.y.s.s.p.6.6.r.a.p.y.",
"p.y.y.p.p.p.p.p.p.p.p.p.p.p.p.p.y.y.y.y.p.p.a.a.s.p.y.y.y.p.p.p.s.a.p.p.p.s.p.6.6.y.y.p.p.p.p.6.2.2.6.6.6.6.p.y.y.p.p.p.",
"p.p.p.p.6.6.p.p.p.p.p.p.p.p.6.6.y.s.u.6.y.p.6.p.p.a.a.a.y.y.p.u.y.p.p.p.p.s.p.y.a.p.6.6.6.p.y.p.6.6.6.5.2.5.p.s.y.r.y.p.",
"p.s.p.p.p.p.p.6.6.6.p.s.s.p.p.p.s.y.p.s.a.a.p.y.p.p.p.a.p.a.s.p.y.y.p.p.6.6.6.s.s.a.p.p.p.6.6.y.y.p.y.5.6.6.6.p.p.a.a.a.",
"p.p.p.p.6.p.p.p.p.p.s.p.p.6.p.p.y.y.y.s.p.a.p.a.p.p.6.6.p.p.p.p.p.a.s.p.p.6.p.a.p.p.6.p.y.p.6.y.y.6.5.5.y.y.y.6.6.p.p.a.",
"p.y.6.p.p.p.6.p.s.p.p.6.6.p.p.6.y.y.u.p.p.6.6.a.p.p.r.p.a.p.p.y.p.s.p.p.p.s.p.y.6.p.p.y.6.6.p.y.y.6.6.6.y.6.6.y.p.d.p.6.",
"p.y.p.p.p.p.6.p.p.p.p.6.p.p.p.p.y.p.p.p.p.y.y.p.p.p.p.p.p.p.p.r.p.a.p.y.p.a.p.p.p.p.p.p.y.p.s.p.s.y.6.6.6.5.6.y.p.p.p.y.",
"y.y.y.p.p.p.p.p.p.p.6.p.p.6.p.p.p.y.6.p.a.p.p.y.i.p.p.p.6.p.a.p.y.y.p.p.p.p.6.p.p.6.p.p.p.p.p.s.s.y.y.6.6.y.p.p.y.y.a.d.",
"y.y.y.p.p.p.p.p.6.p.p.6.p.p.s.p.p.y.y.p.p.p.r.r.p.p.p.4.p.p.p.r.y.y.p.p.y.y.y.y.6.p.p.p.p.p.p.s.s.y.p.s.p.s.p.p.6.p.p.p.",
"p.p.p.p.p.p.6.6.6.p.p.p.p.p.p.y.y.y.a.a.y.r.p.d.p.p.p.p.a.y.6.y.p.s.p.y.6.y.p.p.p.p.p.p.p.6.6.p.s.y.y.s.p.s.y.y.a.a.y.6.",
"p.p.p.p.p.y.p.p.p.p.s.p.p.p.p.y.6.y.p.p.y.y.p.d.a.p.i.p.r.5.2.6.u.y.y.y.p.p.p.p.p.p.p.p.y.p.6.p.s.y.p.p.p.p.y.y.p.6.5.3.",
"6.p.p.p.6.p.p.p.p.p.y.a.s.p.y.y.a.p.r.4.r.p.p.a.p.p.=.p.6.5.6.y.>.5.y.p.p.p.y.y.p.p.6.p.p.s.p.p.y.p.a.a.y.y.p.p.p.5.5.6.",
"p.p.p.p.p.6.p.6.6.5.5.6.a.a.p.p.a.a.a.p.a.p.y.4.y.%.: , { } &.G 9 P y.p.p.p.p.p.p.p.p.p.p.p.6.5.5.5.p.a.p.p.y.r.y.y.y.y.",
"p.s.s.p.p.p.p.5.;.-.;.:.3.5.6.p.r.6.p.a.a.a.e.c n w X + , i 0 # s o a y.6.6.p.p.s.p.y.p.6.6.:.-.;.2.3.3.y.y.y.6.r.y.p.y.",
"p.6.6.p.p.p.p.6.2.2.2.5.5.6.y.a.p.p.p.p.p.y.7.l 1 X # l W H 1 y m > y > p.p.p.p.6.6.p.p.p.p.5.2.2.5.5.5.y.s.y.y.y.y.6.5.",
"p.p.6.y.p.6.6.p.p.p.p.y.6.6.6.y.y.p.a.a.p.6.y.J M 5 6 T / m 5 c x 2 m g 5 a.a.y.6.p.p.6.6.p.p.p.y.y.6.5.6.y.p.p.p.p.6.5.",
"p.p.s.s.p.6.p.p.s.a.p.6.3.5.6.6.p.6.6.p.a.p.p.N S y 9 D ] ( C T c 5 J H 9 5.p.p.p.p.p.p.6.p.p.p.p.y.5.3.5.6.y.p.p.p.p.p.",
"6.6.6.p.s.s.p.p.y.p.y.6.2.5.p.p.p.y.6.y.a.p.y.U N T D ! ^ ( ! T c 2 Z Z g G 6.6.p.p.p.s.s.p.p.p.p.y.5.5.y.p.p.p.p.s.p.p.",
"p.6.p.p.p.p.p.p.6.y.p.p.p.p.p.p.p.p.s.s.s.p.p.t.s I ! ^ ! U ^ ( C 9 J E m p p.y.p.p.p.p.p.p.6.p.p.s.p.y.p.p.p.p.s.p.p.y.",
"s.s.s.p.p.p.6.6.y.y.y.p.p.p.p.p.y.y.p.s.p.6.y.s.f I I W ! U ! D J Z J T Z , p.p.p.p.p.p.p.6.6.6.p.s.s.p.p.y.y.y.p.p.y.y.",
"p.p.p.p.p.p.p.y.p.5.2.5.6.p.6.u.p.p.p.6.6.6.p.s.s I W W W T ( ! J S k x m 1 p.y.p.p.p.p.p.p.p.p.y.y.p.p.p.p.p.y.y.5.2.5.",
"6.p.s.s.y.y.y.p.p.6.5.6.6.2.2.y.p.a.a.p.p.p.p.y.w N W W I N D U T p f i y , p.p.s.s.p.y.p.p.p.p.p.y.p.y.y.y.p.p.p.6.5.6.",
":.2.3.6.p.p.6.5.6.p.p.p.6.5.5.y.y.6.y.p.s.s.p.y.B h R B < 7 b B x l T i 5 w ;.:.5.y.y.y.y.y.y.y.p.s.s.p.p.y.y.5.5.p.p.p.",
";.2.3.5.6.p.p.6.6.y.y.6.5.5.y.y.y.y.y.p.p.y.p.y.+.w ) b ; ` o.B x k k 1 y *.;.:.2.5.6.y.p.y.y.y.p.p.p.p.y.p.y.6.y.y.y.5.",
"6.y.6.6.y.p.p.y.p.y.6.5.5.6.y.y.y.p.s.p.p.y.p.p.g.0 F B 0 ....I p p = % <.4.4.y.6.6.6.p.s.p.s.p.p.y.y.y.y.y.y.y.p.p.6.5.",
"p.6.6.6.6.p.6.p.s.p.y.y.y.y.5.5.p.p.p.p.y.y.p.p.j.h h F V ) R R M 3 o O O.a.p.y.6.5.6.y.y.p.p.p.p.y.p.p.p.y.y.y.p.p.y.y.",
"p.y.5.2.3.6.p.p.s.a.p.y.y.5.5.p.p.p.p.y.y.y.p.p.p.Q - y n V Y n q & % = * i e.p.5.2.2.6.p.p.p.y.y.y.p.p.p.p.p.p.p.s.p.y.",
"p.y.6.6.p.p.p.a.p.a.p.y.p.p.s.p.p.p.6.y.y.y.y.p.a.^ . @ < 8 9 2 & 2 r Z V x , &.6.6.y.p.s.y.y.y.y.y.y.y.p.s.p.p.p.s.p.p.",
"p.a.p.y.p.p.y.y.y.u.y.y.p.p.p.p.y.y.y.y.y.p.p.y.p._ - 5 3 e 5 r p c J J / ` g 0 p.p.p.p.p.y.6.p.p.p.p.p.p.y.p.y.y.s.s.p.",
"p.p.s.p.p.y.y.y.y.y.5.5.p.p.p.p.y.y.p.5.3.6.y.p.u.' 9 v v C z C Z ~ H E / E H * ] y.p.p.y.y.p.p.p.p.p.p.p.p.y.y.p.p.p.p.",
"y.y.s.y.y.y.p.p.p.6.5.5.y.5.5.6.p.p.6.5.3.6.6.3.4.H g T T U ^ U T ! A g f l I 8 8 w.3.4.p.p.a.p.y.y.p.p.p.y.p.p.p.p.y.y.",
"y.s.p.s.p.y.y.y.y.y.6.p.y.5.5.y.p.y.6.p.6.p.5.3.9.: 9 E W ^ ! ! ^ E J 3 % > V n : 8.3.3.p.p.p.6.p.p.p.p.y.p.p.p.p.y.p.p.",
"p.s.s.y.p.p.y.6.6.p.y.y.6.5.6.y.6.6.y.y.p.6.5.c.B o 9 A U ! ^ _ ~ J x > 3 { k M 6 L 4.6.p.6.6.6.p.s.p.p.p.p.y.6.6.p.p.s.",
"s.s.6.y.y.y.y.6.y.y.y.5.5.5.y.y.6.6.y.y.6.y.X.d % . X f ^ U C v f f 5 @ } y.K d g i f.p.y.6.p.p.p.p.y.y.y.p.p.y.p.p.p.p.",
"y.6.6.y.p.y.y.y.p.p.6.5.6.6.y.6.y.p.p.y.4.9.8 6 1 , . 6 ! ~ U l r y > r u.y.L q M q ,.y.6.p.s.s.p.y.y.p.p.y.p.p.p.p.y.6.",
"y.p.p.s.y.y.y.p.p.p.p.p.y.6.3.6.r.p.p.a.p.h., 1 : O . % m _ D y f y - ~ p.w.f j Y j B 3.6.s.p.p.p.y.p.p.p.p.6.p.p.p.p.p.",
"6.p.p.p.s.s.y.y.p.s.p.p.p.p.y.p.p.p.a.a.p.#.* 6 , # $ X 9 A l f y 4 + <.p.] 1 D Y d d p.p.p.6.6.6.y.p.p.p.p.p.p.p.y.6.y.",
"y.y.y.p.p.p.p.p.p.s.p.p.p.p.p.p.p.p.a.a.p.k.q * 1 ..q.* % r u t 4 @ + #.y.^ # n F 8 _ p.s.p.p.p.y.y.p.p.p.p.p.p.p.y.y.y.",
"a.y.6.a.p.p.y.6.y.p.a.p.a.a.y.p.6.y.s.p.6.6.<.) ,.u.| : 9 V l 4 + o o O.y.0.7 5 1 ` z.p.y.y.6.p.6.6.p.p.p.p.6.5.6.p.p.y.",
"y.y.p.d.d.p.p.p.p.p.p.p.a.y.p.p.y.y.6.5.3.6.y.6.6.a.d 1 D T t o # % + j a.y.j.#.h.x.p.p.p.p.y.5.3.3.6.p.y.6.p.p.y.r.p.p.",
"y.p.y.y.y.p.d.p.p.y.y.p.p.a.y.y.s.p.y.5.5.6.6.2.6.| % f Y d O . : 1 % : l.a.p.y.p.u.y.y.p.p.p.y.5.5.6.3.3.6.p.p.p.y.i.p.",
"p.d.p.y.y.p.p.6.5.1.2.5.y.y.y.p.6.6.y.p.y.y.6.5.6.W : V m 1   O # 5 1 <  .y.y.a.s.s.y.y.y.6.6.p.p.p.p.5.3.6.p.p.p.p.p.p.",
"p.a.a.p.a.d.y.5.-.-.-.1.3.4.y.a.6.5.6.p.6.5.5.6.p.H i M 9 o w [ < - 1 < - @.y.p.p.p.p.p.p.6.5.y.y.6.6.6.6.y.y.y.i.d.p.p.",
"a.y.y.y.a.d.p.6.6.6.y.y.6.6.y.p.p.p.y.6.6.3.3.6. ., g T 6 $ $.Y + + 8 7 + ' p.u.6.6.6.p.6.p.p.p.p.3.2.3.6.y.y.r.p.p.p.p.",
"a.y.i.y.a.p.y.p.p.p.y.y.6.6.y.y.6.p.a.p.6.p.p.X.0 g J Y V q [ O . $ - : f g.p.p.p.s.p.p.6.y.p.p.p.y.y.p.4.4.4.y.p.p.d.r.",
"y.a.p.p.p.p.p.d.p.p.y.4.2.3.6.y.p.p.p.a.p.y.y.V w M B n f j | 1 - < 7 ` u.p.6.6.p.p.p.p.p.p.p.p.p.p.y.6.6.y.p.p.y.y.p.p.",
"p.d.a.6.6.p.a.p.p.p.p.y.6.6.p.p.p.p.p.d.p.y.y.f.H x n x M i.y.3.e.a.s.p.p.p.p.6.6.y.p.s.s.p.s.s.s.6.y.p.p.p.d.p.y.p.d.d.",
"p.p.y.p.p.p.y.y.y.y.p.p.y.p.p.p.p.p.p.s.p.p.p.p.p.p.r.y.p.p.a.6.y.u.p.p.6.6.p.s.s.y.y.y.y.6.6.s.s.6.p.p.p.p.y.y.y.d.y.6.",
"d.y.6.y.d.y.y.p.y.p.a.a.p.p.p.y.p.y.p.p.p.p.d.p.p.p.6.y.p.a.p.a.s.a.p.6.6.p.p.p.s.y.y.s.y.6.6.p.s.p.p.s.p.p.y.6.p.p.p.y.",
"p.p.d.a.y.p.p.p.y.p.y.p.d.p.p.p.p.p.p.p.p.p.d.p.y.y.y.y.4.r.p.p.a.a.p.p.p.p.p.p.s.y.y.6.p.s.y.y.6.y.p.p.d.p.p.p.y.r.y.p.",
"3.6.p.p.y.y.p.p.6.3.3.y.d.y.y.y.p.y.6.5.r.p.a.y.y.p.d.a.y.r.p.a.y.y.p.p.p.p.6.p.p.p.p.y.y.d.a.r.i.p.p.y.y.p.d.p.p.i.y.p.",
"1.1.3.6.y.p.p.6.1.1.1.2.3.p.a.y.y.5.-.-.2.5.r.y.p.y.y.y.a.d.d.p.y.y.p.p.p.6.p.p.a.s.p.p.p.p.y.a.d.d.p.y.y.p.p.p.y.d.d.d.",
"1.3.3.3.6.p.p.6.2.1.3.3.3.3.y.a.6.3.1.2.3.3.5.6.p.p.6.6.p.a.y.p.p.s.p.p.y.p.p.p.p.y.y.y.y.y.4.p.y.p.p.p.p.a.y.y.6.p.a.y.",
"6.6.5.6.6.p.p.p.y.6.6.6.6.6.y.p.p.p.r.6.6.4.6.6.a.y.y.p.a.y.r.6.u.s.p.p.p.s.p.y.6.y.p.y.y.y.p.a.a.r.6.y.p.a.y.p.a.a.y.6.",
"p.p.3.2.3.6.y.p.d.p.y.r.3.1.3.r.p.a.a.p.y.6.2.3.4.6.r.y.y.a.p.y.y.p.y.y.p.p.p.p.p.p.y.y.6.6.p.p.y.p.p.i.p.y.y.y.y.y.p.i.",
"y.i.3.1.3.i.y.y.i.y.y.4.1.2.r.y.p.r.y.r.r.3.2.3.r.y.r.6.3.i.p.i.6.6.y.y.i.y.3.6.y.y.p.i.r.p.3.4.y.p.i.6.4.r.i.6.6.6.i.d.",
"6.r.3.6.6.i.i.r.4.4.r.i.4.6.r.y.r.6.6.6.r.r.4.r.y.y.y.6.i.i.r.6.4.r.r.y.4.4.r.4.4.i.4.r.i.6.r.p.i.i.r.r.6.i.y.i.r.y.i.r.",
"4.4.r.6.6.r.4.2.5.4.r.i.r.r.6.4.4.3.3.4.i.i.r.4.r.4.4.r.i.4.2.4.i.i.4.4.4.3.r.4.4.4.r.4.4.3.4.i.r.r.4.6.i.r.3.3.r.i.r.4."
};
