/* XPM */
static char *result[] = {
/* columns rows colors chars-per-pixel */
"60 60 121 2 ",
"   c #221E1D",
".  c #252322",
"X  c #2A2424",
"o  c #2D2826",
"O  c #292729",
"+  c #2D2C2B",
"@  c #312D2D",
"#  c #353232",
"$  c #393434",
"%  c #3C3837",
"&  c #3D3C3B",
"*  c #423C3C",
"=  c #43413E",
"-  c #454342",
";  c #4A4543",
":  c #4A4847",
">  c #494749",
",  c #4D4B4A",
"<  c #504846",
"1  c #524C4B",
"2  c #52514F",
"3  c #5B4F51",
"4  c #555352",
"5  c #5B5554",
"6  c #595857",
"7  c #5D5A5A",
"8  c #605657",
"9  c #605855",
"0  c #605758",
"q  c #625C5B",
"w  c #63605E",
"e  c #615F60",
"r  c #646161",
"t  c #6B6464",
"y  c #6A6966",
"u  c #6D6B6A",
"i  c #726867",
"p  c #736D6C",
"a  c #796C6D",
"s  c #74716E",
"d  c #7A716D",
"f  c #757372",
"g  c #7B7474",
"h  c #7B7876",
"j  c #7D7679",
"k  c #7E7B7A",
"l  c #817876",
"z  c #807778",
"x  c #847C7C",
"c  c #897E7D",
"v  c #83817F",
"b  c #8A827E",
"n  c #857F81",
"m  c #897F80",
"M  c #858382",
"N  c #8C8384",
"B  c #8B8986",
"V  c #8C8688",
"C  c #8D8A8A",
"Z  c #918586",
"A  c #918987",
"S  c #918788",
"D  c #938B8B",
"F  c #988F8D",
"G  c #9C948F",
"H  c #939192",
"J  c #999896",
"K  c #9D9C9B",
"L  c #AAA29E",
"P  c #A4A3A3",
"I  c #ABA7A6",
"U  c #ACABAB",
"Y  c #B3ADAB",
"T  c #B2B0AE",
"R  c #B4B3B4",
"E  c #BEB9B5",
"W  c #B9B7B9",
"Q  c #BDBCBB",
"!  c #E3BA8E",
"~  c #E5BD92",
"^  c #E8BF95",
"/  c #C4B6A7",
"(  c #CAB9A5",
")  c #C1B5AC",
"_  c #C7BCAE",
"`  c #C8BAA8",
"'  c #E7C195",
"]  c #EAC296",
"[  c #EDC599",
"{  c #EEC99D",
"}  c #F0C79B",
"|  c #F2CB9E",
" . c #DCCCBC",
".. c #EECDA1",
"X. c #E2CBAE",
"o. c #F4CEA1",
"O. c #EFD0A4",
"+. c #EFD2AF",
"@. c #F6D2A5",
"#. c #F7D5A9",
"$. c #F8D7A9",
"%. c #F7D9AA",
"&. c #EBD3B5",
"*. c #EBD5BB",
"=. c #F3D9B5",
"-. c #F1DABD",
";. c #C9C5C4",
":. c #CECAC6",
">. c #CECBCA",
",. c #D2CDC4",
"<. c #D1CDCC",
"1. c #DAD1C5",
"2. c #DBD3CB",
"3. c #D5D1D0",
"4. c #DCD8D7",
"5. c #E3D4C4",
"6. c #EADAC4",
"7. c #E0D7CF",
"8. c #E9DBCF",
"9. c #F2DCC3",
"0. c #EFE2D0",
/* pixels */
"@.o.} [ o.@.#.@.@.o.@.| } } o.@.$.@.$.$.@.o.o.o.#.#.@.@.o.o.o.} | o.@.#.@.o.o.$.$.@.| @.$.@.$.$.@.| | @.@.$.@.@.#.#.@.o.",
"@.#.@.@.@.#.$.| | o.@.$.@.@.@.@.@.@.@.$.@.o.@.@.#.@.o.o.o.$.@.o.o.@.@.@.o.@.$.#.@.o.@.@.@.@.@.$.$.@.@.@.@.$.@.@.o.%.o.o.",
"@.#.@.@.@.@.o.| | o.$.$.@.@.@.@.o.o.o.$.@...@.#.@.o.| | @.@.@.@.@.#.@.o.o.o.@.@.o.| @.#.@.| | @.| | o.$.@.@.| | | #.#.O.",
"@.o.o.@.| @.@.$.$.@.o.| @.o.@.@.o.o.@.o.@.@.#.#.#.@.o.o.o.@.@.@.$.$.@.@.$.$.@.o.| @.o.@.@.@.@.| ] ] } o.| | @.@.@.o.o.@.",
"@.@.$.| | | $.@.@.@.@.@.$.| | @.@.@.o.o.o.@.o.o.o.#.#.@.o.o.@.o.o.o.@.@.@.@.o.@.#.@.| | @.@.@.| | | | } ] } $.$.@.O.O.@.",
"@.$.$.@.@.@.@.| | | @.$.$.@.@.@.@.@.@.#.#.#.o.o.@.@.#.@.@.#.#.@.o.@.@.@.o.o.o.@.#.#.@.@.@.} | | @.@.o.| } | o.o.@.@.@.#.",
"@.$.$.@.| @.@.| @.@.@.$.@.| | @.o.o.o.#.#.@.@.#.#.@.o...@.@.#.@.@.@.$.@.o.o.@.#.@.@.o.o.| | | @.o.| } } | @.o.| | @.#.@.",
"@.| | | @.@.| $.@.$.@.| | @.@.@.o.o.o.#.o...o.#.@.@...@.#.#.o...@.$.o.@.$.$.@.@.| o.@.o.| @.$.| o.} } | o.| | o.@.#.@.o.",
"@.| @.@.@.@.| @.@.$.| @.@.@.@.| | @.@.@.@.| o.#.@.@.o.@.@.@.@.{ o.#.@.@.@.#.@.o.@.@.@.@.o.o.@.@.$.o.| o.| | | o.@.@.@.@.",
"| @.@.@.@.@.$.@.@.| | @.@.@.@.@.@.o.| @.#.#.@.o.@.@.@.| o.#.#.@.o.o.o.@.@.o.o.o.o.o.@.@.@.@.$.$.$.o.o.| | o.@.@.o.o.#.#.",
"@.| | @.@.@.@.@.@.| | @.@.| $.@.@.@.o.@.#.@.......@.@.o.@.@.#.o...o.o.#.@.o.o.o.o.o.@.@.@.@.@.$.$.| @.@.@.$.@.@.| @.@.@.",
"@.@.@.@.@.@.| | | @.@.@.$.@.o.o.o.| #.#.o.{ @.%.#.@.@.@.#.@.{ | #.#.#.o.o.o.o.@.@.@.@.@.o.o.o.@.$.@.@.$.@.@.o.@.#.#.o.| ",
"@.$.@.| @.@.@.| @.@.#.@.@.@.@.o.| | @.@.O.@.@.%.@.@.@.@.o.[ [ | ..o.o.O.o.@.@.@.$.@.@.o.o.o.o.@.$.@.@.@.@.@.o.o.@.| ] } ",
"| | @.@.| @.@.$.@.| o.#.$.@.@.| #.#.@.| { @.@.@.@.@.@.L 6 B { @. .v e H 4.H 2.o.@.@.o.o.@.$.@.o.o.o.#.#.o.o.@.o.@.[ } o.",
"@.@.$.@.@.@.@.@.| } } | #.#.@.@.@.#.@.@.#.@...{ @._ f # 7 & - 2 - @ $ 6 t e V @.@.@.@.@.@.@.o.} } } @.@.@.o.o.o.o.o.o.o.",
"$.$.@.@.@.| | } ^ ! ~ ] [ } o.@.@.{ @.#.#.@.@.@.K : > = e 2 6 h e - # O > e D $.$.@.@.o.@.} ^ ! ~ ] [ } o.@.o.| o.o.@.o.",
"@.@.| @.@.@.@.| } ] ] [ [ | @.@.@...@.@.@.o.o.W - 6 z 3 d t ; l m p * < z i 7.o.o.o.o.@.@.o.^ ^ ] } } } o.@.@.| o.o.| } ",
"@.| | @.@.| | @.@.@.@.o.| } o.@.@.@.#.#.@.o.@.h 5 n D 3 i x 9 a S c 8 e V t 9.o.o.o.@.o.o.@.$.@.o.o.| } | @.o.@.@.@.| } ",
"@.@.$.@.@.| @.@.@.$.@.| [ [ } o.o.o.| @.#.@.,.: e Z m 3 i F c A m S x m x a +.o.@.@.@.o.@.@.@.@.@.o.} ] | | o.@.@.@.@.@.",
"| | | @.$.$.@.@.@.o.o.| ] | @.@.@.o.| o.@.@.>.1 z D m 3 i b N N N S S N u Y o.o.@.@.@.$.@.@.@.o.@.o.} } o.@.@.@.@.%.@.o.",
"@.| @.@.@.$.o.@.o.o.o.$.@.o.@.@.@.@.@.$.$.@.3.q x Z m t l N S N S N N x 6 2.@.o.o.@.@.@.@.@.o.o.@.@.@.@.@.@.@.@.@.%.@.o.",
"$.$.$.@.$.o.| | o.o.o.o.@.#.@.@.o.o.$.@.@.o.<.5 m Z c m N S N V V N N x 5 ;.@.#.$.@.@.@.@.o.| @.@.%.@.@.@.@.@.o.@.o.o.o.",
"| @.@.$.@.@.@.@.o.} ] } | o.o.o.@.@.@.o.| | ,.1 i e r j n V n D V Z N h q :.@.o.@.@.@.@.@.@.@.@.o.o.@.@.@.@.@.@.o.} ] } ",
"@.o.$.$.o.o.o.@.@.| } | o.] ] o.@.#.#.@.$.o.,.1 0 e p t j M f u p x S g 5  .@.@.$.$.@.o.o.@.@.@.@.@.@.@.o.o.o.o.@.| } | ",
"^ ^ [ @.| @.| } | @.@.o.o.} } o.| o.o.@.$.$.=.V 3 1 x j f f v u % i B u n ] ~ ' } | o.o.@.o.| o.@.@.@.@.@.o.o.} o.@.o.@.",
"~ ] } } | #.@.| | o.| | } | o.o.o.o.o.@.#.@.o.0.m ; q u t M R U 1 i N r L ~ ~ ~ ] } | @.@.o.o.@.@.@.@.@.@.@.| | | o.o.| ",
"} @.| | | @.@.@.@.@.| } } | | | o.@.$.@.o.o.o.o.4., @ 5 u f J P w h b w Y } | o.| | | @.@.@.$.@.@.@.| @.o.o.o.o.@.@.| } ",
"@.| } } | @.o.| @.@.@.| | o.| | o.@.@.o.o.@.9.Q j * # , f v B C b v w d *.#.@.o.| } | o.o.@.@.@.@.@.@.@.@.o.| @.@.@.o.o.",
"@.o.} ] [ | @.@.@.#.#.@.| } | @.#.@.@.o.o.2.u 6 1 8 < * > t s f i 2 . b @.$.@.@.} ] ] | @.@.@.o.o.o.@.@.@.@.@.@.@.%.@.o.",
"@.@.} } @.#.@.#.#.#.@.| @.o.$.$.@.o.o.o.+.V 2 x F c a 9 1 = = ; = & @ b @.o.@.@.o.| o.@.@.@.o.o.o.| o.@.@.@.@.@.@.$.@.@.",
"@.$.$.@.o.$.o.| o.@.o.@.$.$.@.@.o.| | @.>.> p G D m b c a t y w w 9 < v | | @.@.@.$.o.$.@.o.o.@.@.@.@.@.o.@.@.@.@.@.@.@.",
"$.@.@.@.@.@.o.o.@.| } } | o.@.@.o.o.@.} V > n m c m c Z Z b l b v b w b o.@.} ] } o.o.o.o.o.o.@.@.@.@.@.@.@.o.o.@.$.@.@.",
"| | @.@.| @.@.$.| | } } | | } | @.@.o.1., 7 x t 2 q l b c A b b Z Z t t &.@.{ } { | } [ @.@.@.@.@.o.@.@.@.o.@.@.@.@.o.o.",
"o.$.@.$.@.| @.| @.| | @.| } } o.o.o.o.Q ; f k 1 o ; x F F A Z Z Z N e @ J o.o.o.@.| [ } o.@.@.o.o.@.@.@.o.@.@.@.@.o.@.@.",
"$.$.$.@.@.@.| | | | @.@.| } | o.{ { O.f 1 f 2 h q $ 9 d c b b B m z < X 2 U -.@.o.} } o.o.o.| o.@.%.@.@.@.@.o.o.| @.@.%.",
"@.@.| | @.@.| | @.@.| } } | o.o.o.o.6.6 y u 6 8.I $ < w q t l A F e o % - , u 5.[ } | @.o.o.o.@.@.@.o.o.o.@.o.o.@.@.@.@.",
"@.| | @.@.| @.@.@.o.o.} } | o.| o.@.T 4 v r 2 &.o.q * w q i l D Z 0 X $ , 1 : I } | o.| o.#.$.#.@.o.o.@.@.o.o.$.@.@.o.| ",
"| $.@.@.@.| | | $.$.@.o.o.| } | ..@.k e B h w G } ) * 0 q 9 l D j $   & - 4 2 K o.o.} [ | o.o.o.o.@.@.@.@.o.o.@.@.@.o.@.",
"| | @.@.$.@.@.@.@.$.@.@.@.@.@.@.@.@.v 2 B M 2 h @.&.$ * q 9 t t 1 o t 0 & , % U o.o.@.@.@.@.@.o.o.o.@.@.@.$.@.o.@.o.o.o.",
"@.@.@.@.@.$.@.@.@.@.@.o.@.@.@.#.@.#.Q 7 u r # M $.&.* X ; 5 q i ; * W 7.s - u *.o.$.@.@.$.@.@.o.o.o.o.@.@.@.@.@.@.o.o.o.",
"@.o.o.@.@.@.o.| o.@.#.@.@.#.@.o.| @.@.X.i 7 f @.@.` # $ # % y v s ; p o.@.,.=.#.@.$.@.@.o.| | @.@.| @.@.@.o.o.} { @.@...",
"o.o.@.#.$.@.@.@.@.@.@.@.#.@.@.@.@.| | } ] o.| @.o.w # & = @ - s V 7 ; Q @.@.o.@.@.o.@.@.$.@.o.| ] [ | @.o.o.@.O.o.o.@.@.",
"@.O.@.o.o.@.$.#.@.o.o.#.#.#.o.@.$.@.o.} [ | | ] ..6 : 2 : . o 2 n g = j @.@.@.| @.@.o.o.@.@.@.| } } | } ] | @.@.@.o.o.@.",
"@.@.@.o.o.@.@.| [ ' ] [ ..o.o.o.| | o.@.@.@.} [ M - : 2 # 2 @ # e V 2 M #.o.o.#.$.@.o.o.o.| | @.@.@.@.} [ o.@.@.@.@.@.#.",
"%.@.%.@.#.$.@.} ~ ! ! ' ] } o.@.| } | @.o.{ [ ( & , 4 & & I K o : j t q >.| @.@.@.@.@.@.@.} } @.o.o.} } o.O.o.o.O.%.@.%.",
"@.@.@.o.#.#.o.| } | | | | o.o.$.@.@.@.| { ] [ / = > , = + : T w 5 z N : s 5.#.@.| o.o.o.o.o.o.@.o.} ] } | o.o.| @.@.@.o.",
"@.@.O.o.#.@.o.@.#.@.o.| | { o.o.| @.#.o.o.o.@...C 2 - O . + B y f F x z w b $.o.@.@.@.o.| o.$.@.@.o.o.O.| [ { o.@.@.@.O.",
"@.@.@.o.@.@.@.$.$.@.@.| ' } | o.@.@.@.#.@.@.O.{ O.*.B f k k E C 0 0 q r 3 D $.o.@.@.@.@.@.o.@.$.@.@.o.| | o.@.@.o.o.@.@.",
"%.%.@.....o.#.#.o.@.@.o.} | @.@.$.$.$.$.o.o.o.@.#.#.@.o.@.@.o.O.U U P P R 6.o.o.| | @.@.$.@.$.$.@.| | @.@.$.#.@...@.#.%.",
"@.o.o.@.@.@.o.| | o.$.@.@.@.@.$.o.| @.$.o.@.@.$.@.@.| | o.@.@.o.o.@.@.@.o.| @.@.#.@.@.@.@.| | $.@.@.@.@.@.@.o.o.@.@.o.| ",
"@.@.o.@.%.@.o.o.o.@.@.@.@.@.@.o.@.| @.$.o.@.$.@.@.o.| | o.#.@.@.#.#.@.o.o.o.@.@.@.@.@.@.@.| | @.@.$.@.$.$.@.| o.@.%.o.O.",
"@.@.#.#.o.@.o.$.@.@.@.#.%.@.o.@.@.@.@.@.@.$.$.@.o.o.@.@.o.o.o.#.#.#.@.@.@.$.$.o.@.o.@.o.| $.@.| | @.@.@.@.@.@.@.o.o.o.o.",
"{ | @.#.o.o.@.@.} [ [ o.#.#.o.o.o.o.[ [ } #.#.o.o.o.%.@.o.O.@.@.o.o.@.@.@.@.@.@.#.@.@.| o.#.#.o...@.o.o.o.@.#.$.@.o.@.@.",
"' ' [ | @.@.@.} ' ' ' ] [ o.@.o.o.] ' ' ] [ | o.@.@.o.@.@.%.%.@.o.@.@.@.| | | $.#.#.@.@.@.@.@.#.%.%.@.o.@.@.@.o.o.#.%.%.",
"' ] [ } o.@.@.} ' ' ] ] [ { o.#.o.} ' ' ] } } | @.@.| | @.@.@.o.@.#.@.@.o.@.@.@.@.| @.| o.| { @.#.o.o.#.#.#.@.| | #.@.@.",
"| | } } o.@.@.o.o.o.o.| | | o.#.o.@.o.o.| | [ | o.@.@.%.@.@.| { o.#.@.@.@.$.@.o.| | @.@.| @.@.#.@.o.{ o.#.@.o.@.#.#.o.{ ",
"@.o.[ [ ] | o.@.%.@.@.| [ ' [ | #.%.#.@.o.[ ] ] | | o.o...@.%.@.o.o.o.o.@.@.o.o.@.@.o...{ o.o.@.@.#.O.o.#.o.o.o.o.@.@.#.",
"o...] ] { o.O.o.o.o.....' [ { O.o.o.o.o.O.] ] { O.O.o.{ { O.@.....} o.#.o.o.{ o.o.o.o.@.@.{ { { o.@.O.{ { ..o...{ | O.@.",
"....| | | ..O.| { { o...{ { O.o...| { | ....{ | O.o.| ..O.O.| ........o...{ ..{ ..........o.o.O.O.............o.....O.o.",
"{ [ ........{ ] [ { ..O.....| { { [ [ ..O.......| | [ ..O.[ [ { ......{ [ [ ..{ { { ..{ { { { O.O.{ { ....{ { { ..O...{ "
};
