/* XPM */
static char *result[] = {
/* columns rows colors chars-per-pixel */
"60 60 126 2 ",
"   c #241E1E",
".  c #2C2625",
"X  c #2B2728",
"o  c #2E282A",
"O  c #332C2D",
"+  c #363333",
"@  c #393434",
"#  c #3D3739",
"$  c #3E393A",
"%  c #403738",
"&  c #433D3D",
"*  c #43403F",
"=  c #454242",
"-  c #4B4445",
";  c #4C4847",
":  c #4A4748",
">  c #4D4A4A",
",  c #504748",
"<  c #534C4C",
"1  c #584E48",
"2  c #55514F",
"3  c #58524F",
"4  c #534F51",
"5  c #555252",
"6  c #5B5555",
"7  c #5C5957",
"8  c #5D5A59",
"9  c #655B54",
"0  c #605758",
"q  c #645C5B",
"w  c #685E5F",
"e  c #65615E",
"r  c #69615E",
"t  c #716357",
"y  c #695F60",
"u  c #666261",
"i  c #6B6463",
"p  c #696768",
"a  c #6D6A69",
"s  c #716666",
"d  c #726A63",
"f  c #706769",
"g  c #736B6B",
"h  c #796F6F",
"j  c #797163",
"k  c #74716E",
"l  c #716F70",
"z  c #786F70",
"x  c #767272",
"c  c #7C7474",
"v  c #7D7979",
"b  c #847464",
"n  c #827569",
"m  c #847B6F",
"M  c #817676",
"N  c #827B70",
"B  c #817779",
"V  c #847C7C",
"C  c #8A7E7E",
"Z  c #84807F",
"A  c #8A817C",
"S  c #938373",
"D  c #9C8770",
"F  c #A89178",
"G  c #B39B7E",
"H  c #8A7F80",
"J  c #858281",
"K  c #8D8383",
"L  c #8D8B89",
"P  c #918584",
"I  c #908A82",
"U  c #918788",
"Y  c #948B8A",
"T  c #9A9184",
"R  c #92918E",
"E  c #959392",
"W  c #9B989A",
"Q  c #A29789",
"!  c #AD9C89",
"~  c #A19693",
"^  c #BCA284",
"/  c #B4A38D",
"(  c #B9A794",
")  c #B3A699",
"_  c #B8AEA4",
"`  c #B0AEAF",
"'  c #B1AFB0",
"]  c #BDBEBD",
"[  c #C4A98B",
"{  c #C6AE92",
"}  c #CFB69B",
"|  c #D7B894",
" . c #DCBC96",
".. c #D3BA9D",
"X. c #E2BA8E",
"o. c #E5BD92",
"O. c #E8BF94",
"+. c #E7C195",
"@. c #EAC296",
"#. c #EDC599",
"$. c #EEC99D",
"%. c #F0C79A",
"&. c #F2CB9E",
"*. c #DBC4AB",
"=. c #CDC4BF",
"-. c #D4C9BA",
";. c #EECDA1",
":. c #E9CAA9",
">. c #F4CEA1",
",. c #EFD0A4",
"<. c #F6D2A5",
"1. c #F7D5A9",
"2. c #F8D7A9",
"3. c #F7D9AA",
"4. c #F8D9AC",
"5. c #E2D2BD",
"6. c #F3D7B3",
"7. c #F5DCB9",
"8. c #C5C4C4",
"9. c #D5CCC5",
"0. c #D0CECB",
"q. c #DAD0C9",
"w. c #E2D7C5",
"e. c #ECD9C2",
"r. c #E6D9CE",
"t. c #F1DBC4",
/* pixels */
"<.>.%.%.>.2.<.<.<.>.>.>.O.>.<.<.<.<.2.2.<.>.>.<.1.4.<.<.>.>.>.%.&.>.<.<.<.>.<.<.2.>.>.>.<.<.<.2.<.<.>.<.<.2.2.<.<.1.<.>.",
"<.1.<.<.<.<.<.>.>.>.<.2.<.<.<.<.<.<.<.2.>.>.<.<.1.>.>.>.>.<.<.>.<.<.<.<.<.<.2.<.<.<.<.<.<.<.<.2.<.>.<.<.<.<.<.>.<.3.<.&.",
"<.2.<.<.<.<.<.&.>.>.<.2.<.<.<.<.>.>.>.2.<.>.<.1.<.>.>.>.>.2.<.>.<.<.<.>.<.<.<.<.>.<.<.<.<.&.&.>.>.&.<.<.<.<.<.%.$.3.<.,.",
"<.>.>.<.<.<.<.<.<.<.<.>.>.<.>.<.>.>.<.>.<.<.1.4.1.>.>.>.>.>.<.1.1.1.1.<.<.<.<.<.>.>.<.<.<.<.<.&.#.O.%.>.&.>.<.>.>.<.<.<.",
"<.<.<.&.&.&.<.<.<.<.<.<.<.<.&.&.<.<.>.>.>.<.>.>.<.<.1.<.>.>.<.,.>.<.<.<.<.<.<.<.<.<.>.&.>.<.<.<.&.&.>.#.O.%.<.<.<.$.<.<.",
"<.2.2.<.<.<.<.&.&.&.<.2.<.<.<.<.<.<.<.<.1.1.,.;.<.<.<.<.<.1.4.<.>.>.<.<.>.&.>.<.2.1.<.<.>.&.%.>.<.<.>.%.&.>.>.<.<.1.<.1.",
"<.<.<.<.&.<.<.<.<.<.<.<.<.<.<.<.>.>.>.1.1.<.<.<.1.<.>.;.<.1.<.<.<.<.2.<.>.>.<.2.<.>.>.>.>.>.&.&.>.&.%.%.&.<.>.>.&.<.1.1.",
"<.>.&.<.<.<.&.<.2.<.<.&.&.<.<.&.>.>.<.1.>.>.>.1.1.<.>.,.1.<.>.>.<.2.<.<.<.2.<.>.>.>.<.>.&.>.<.<.>.&.%.&.>.&.&.>.<.1.<.>.",
"<.<.>.<.<.<.&.<.<.<.>.<.<.<.<.<.&.<.<.<.<.>.<.<.<.>.>.<.<.<.<.;.<.<.<.<.<.1.<.>.<.<.<.<.>.>.<.<.<.&.>.>.%.&.>.<.<.<.<.<.",
">.>.<.<.<.<.<.<.<.<.<.&.<.<.<.<.<.<.;.<.1.<.<.;.<.<.<.>.>.<.3.<.>.>.<.<.<.>.>.>.<.>.<.<.<.<.2.2.2.>.>.&.&.<.<.>.&.>.2.2.",
">.>.>.>.<.<.<.<.&.&.&.<.<.<.<.<.<.>.>.<.<.<.>.;.<.<.<.>.<.<.<.<.>.>.<.<.<.>.>.>.&.<.<.<.<.<.<.2.<.<.<.<.2.<.<.<.>.>.<.<.",
"<.<.<.<.<.<.&.&.<.<.<.<.<.<.<.>.>.>.<.1.<.$.<.3.1.>.>.<.1.<.$.$.<.<.<.>.>.>.<.<.<.<.<.<.>.>.>.<.2.<.<.<.<.<.>.>.1.<.>.&.",
"<.<.<.<.<.&.<.<.&.<.<.<.<.<.<.>.&.&.<.<.<.;.<.4.2.<.&.<.>.#.@.&.<.<.>.>.<.<.<.<.<.<.<.<.<.>.>.<.<.<.<.<.<.<.>.>.<.>.@.#.",
"&.<.<.<.>.<.<.<.<.<.<.<.2.2.>.<.1.1.<.$.;.<.<.<.<.<.<.<.$.;.&.>.>.&.>.<.<.<.<.>.<.<.>.>.<.<.<.<.<.<.1.1.>.>.<.<.>.$.#.&.",
"<.<.<.<.<.&.<.&.&.%.%.&.<.<.<.>.1.1.<.<.<.<.&.&.>.<.>.>.>.{ >.>.&.O.>.<.<.<.>.<.<.<.<.>.<.<.&.%.%.&.<.<.<.>.>.>.>.>.>.<.",
"<.2.2.<.<.<.<.%.O.X.o.O.#.&.>.<.>.$.<.1.1.1.<.<.1.>.&.&.<.G >.&.O.&.>.>.&.&.>.2.2.<.>.<.<.%.O.o.O.O.@.&.>.<.>.$.>.>.<.>.",
"<.>.>.<.&.<.<.&.%.@.@.#.#.%.<.<.<.&.<.1.<.&.S 7 l ,.) Q > 6 e [ &.>.<.| <.<.<.>.>.>.>.<.<.&.%.O.@.%.%.%.>.<.<.&.>.>.&.%.",
"<.<.&.<.<.<.&.<.<.<.>.>.&.$.>.<.<.<.1.1.<.&.u 8 + 4 ; 3 7 d 1 3 & F t 5 <.2.2.>.>.>.<.<.&.<.<.<.<.<.%.%.&.<.>.<.<.>.>.%.",
"<.<.<.<.<.>.<.<.1.1.<.>.#.#.$.>.>.&.&.<.1.<.p g < : k A Y Y Z Z f - $ x  .<.>.>.<.<.<.<.<.<.<.<.<.>.%.@.%.&.<.>.2.2.<.<.",
"&.&.<.<.<.<.<.<.<.>.>.&.@.&.>.<.<.<.&.>.1.<.p v u < Z A K Z A S c ; 5 V [ >.&.>.<.<.<.<.2.<.<.<.<.>.%.%.>.2.<.<.<.2.<.>.",
"<.<.<.<.<.<.<.<.>.>.>.<.>.>.<.1.<.<.<.2.2.<.e v H z H Y I P P K U u B K ^ <.<.>.<.<.<.<.<.<.&.&.<.2.<.>.<.<.<.<.<.2.>.>.",
"<.<.<.<.<.<.&.&.>.>.>.>.<.<.<.<.<.&.<.2.<.&.u c K U Y ~ K K A P U V K V ^ >.<.1.<.<.<.<.&.&.&.<.<.2.2.<.<.<.>.>.>.<.>.>.",
"<.<.<.2.<.<.<.<.>.%.@.%.>.>.>.>.<.<.<.<.&.>.q r H K P T P P P P H U K c [ <.<.>.<.<.2.<.<.<.<.<.>.>.>.<.<.<.<.<.>.%.@.%.",
">.<.2.<.>.>.>.<.<.>.%.&.>.@.@.>.<.2.<.<.<.<.& i U H P C P C P P P C c w b >.>.<.2.2.<.>.<.<.<.<.<.<.<.>.&.>.<.<.<.>.%.%.",
"O.@.$.&.>.<.&.$.&.<.<.>.>.%.$.>.>.&.&.>.1.1.@ a H H C U Y H P P P V f 0 & O.o.O.%.&.>.>.>.>.>.>.<.2.2.<.>.>.>.%.&.<.>.<.",
"O.@.#.%.>.<.<.&.&.>.>.&.%.%.>.>.>.>.>.<.<.<.5 0 z L U P C C Y S K z w y q o.o.O.@.%.&.<.<.>.>.>.<.<.<.<.<.<.>.&.>.>.>.&.",
"&.&.&.&.&.1.<.&.<.>.&.%.%.&.>.>.>.2.2.<.<.&.d k a B H P P H P C M i q f [ ;.$.>.&.%.&.<.<.<.<.2.<.>.>.>.>.>.>.>.>.>.&.%.",
"<.&.&.%.&.<.&.<.<.2.<.&.>.>.%.%.&.<.<.<.>.<.( 7 8 y g B C M M s u q q j <.<.<.>.>.%.&.>.<.<.<.<.<.>.<.<.<.>.>.>.2.<.>.&.",
"<.<.%.@.$.&.<.<.<.2.2.>.&.&.&.<.2.<.&.<.<.<.:.p & 7 i r w y s 9 e q < S 3.<.<.<.%.@.%.%.<.<.<.>.>.>.<.<.<.<.<.<.2.2.<.>.",
"<.<.%.%.>.1.2.<.2.2.<.&.<.<.<.<.<.<.<.&.<.} p 3 % < 9 r w 9 r w q 6 & t <.>.<.<.>.%.&.<.2.>.>.>.>.&.>.>.<.2.<.<.<.2.<.>.",
"<.2.2.<.<.<.&.&.>.<.<.>.<.<.<.<.<.&.&.<...> 8 e 6 < < e r e w r 6 $ 7 7 D &.>.<.<.<.<.<.<.>.&.>.<.<.2.<.<.>.>.>.>.2.<.2.",
"<.<.<.<.<.<.&.<.>.&.#.%.<.<.<.<.<.&.<.%.> c E Y J x 9 e r w r w r a Z Z k t %.#.%.<.<.<.>.>.<.2.<.<.<.>.<.<.>.<.<.<.<.<.",
">.<.<.<.<.&.<.<.<.&.%.&.&.&.%.&.<.<.>./ 6 J Y K K K V g s i s s M C P U E U ^ $.&.&.#.$.>.<.<.<.<.>.<.>.>.>.<.<.<.<.>.>.",
">.<.<.<.&.<.<.&.<.&.&.<.&.%.%.>.>.>.>.7 > u c B V K P C C H C C H P U U K K u >.>.&.#.$.>.<.<.>.>.<.2.<.<.<.<.<.<.>.<.<.",
"<.2.2.<.&.<.<.&.&.&.<.&.&.%.&.>.&.$.,.= < 6 , q M K K C C P P C U H H C z a q | >.%.%.>.>.>.&.>.<.2.2.2.>.>.<.>.>.>.2.2.",
"<.<.<.&.<.<.&.&.<.<.&.&.%.&.>.>.$.>.! * u < . % y M C V C C C M H V h 4 @ < u 7 %.#.>.>.>.>.>.<.2.>.&.&.<.>.>.>.>.<.<.>.",
"<.&.&.<.<.&.&.<.<.<.&.%.%.>.>.>.>.<.T 5 l & O , - y h n B H K g M s < - 1 9 x 6 j &.>.>.>.<.2.2.<.&.&.>.<.>.<.<.2.2.>.&.",
"<.<.<.<.<.&.&.<.2.2.<.>.>.&.#.&.>.<.I 8 v w , < & 0 q y M U K i 0 0 , M { b a x N >.%.%.&.>.>.<.<.<.2.2.<.>.>.<.<.>.<.<.",
"&.<.<.<.2.<.<.<.<.2.<.<.<.<.<.<.<.<.v : V J - o < w q s V P K g y s - & M t a H m >.<.<.<.<.>.>.>.>.<.<.<.<.<.>.>.&.>.>.",
"<.&.<.<.<.<.<.<.<.<.<.>.<.<.<.<.<.<._ : v g # . < q w M H U P c y w 0 O   6 H p N 6.<.<.2.<.>.<.>.>.<.<.<.<.<.<.<.<.>.>.",
"<.<.<.<.2.<.>.>.>.<.1.<.<.<.<.<.>.>.<.~ < = o # 0 0 w c K K K V w 7 q & * v L u d 7.<.<.>.>.&.>.>.&.>.<.<.>.&.&.;.<.<.,.",
";.>.<.1.2.<.<.>.<.<.<.<.1.<.<.<.>.>.>.%.*.*.~ - 0 6 < y H K v u < q k ; 2 J J 8 l 1.<.1.<.<.>.&.%.@.&.>.>.>.>.>.>.>.<.>.",
"<.,.<.>.>.>.<.1.<.>.<.<.4.<.>.<.<.<.>.%.%.>.:.4 z f < - : > < - - s V * * e 9 u -.>.>.>.<.<.<.>.%.&.&.%.#.;.<.3.<.>.>.<.",
"<.<.<.>.>.<.<.>.@.@.#.#.>.>.>.>.>.&.>.<.>.<.:.- z V 8 = v E K ; < f i $ p R E 5.2.1.>.>.>.>.&.>.<.<.>.%.#.&.<.<.<.<.<.1.",
"<.1.<.<.1.4.>.#.o.X.o.o.@.$.>.<.&.%.&.>.>.>.;.5 p v y : =.o.r.7 5 1 # . L &.<.<.<.<.<.<.>.&.%.>.>.>.&.&.>.>.>.>.>.<.<.3.",
"1.<.<.<.1.2.<.>.%.%.&.>.>.&.>.<.<.<.>.>.$.@.#.E = y 8 = 9.>.t.8 = ; & . < w.2.>.&.<.&.&.>.>.>.<.&.%.@.%.&.>.>.>.,.3.<.>.",
"<.<.$.<.<.<.>.>.<.<.<.>.&.>.>.>.>.<.1.>.>.>.:.v O : 4 : q.<.e.8 5 5 > @ @ 8.<.<.<.<.2.<.&.>.2.<.<.>.>.>.&.#.&.>.<.<.<.,.",
"<.<.<.,.<.<.2.1.1.2.>.$.O.@.>.>.<.<.1.1.>.>.U X $ y 8 : 9.<.t.7 5 a 7 = & q.&.&.<.<.<.<.<.<.<.<.<.<.>.&.&.,.<.>.>.>.>.3.",
"<.3.<.>.$.<.3.<.<.<.<.&.%.&.<.2.<.<.2.2.>.<.> @ 8 J x > 0.<.7.7 5 v v * 7 w.<.&.&.&.<.<.2.<.2.2.2.&.&.<.<.2.2.<.>.<.3.1.",
"1.<.&.<.<.<.<.&.&.>.<.2.<.<.<.<.<.&.<.2.<.<.a : x W l * 0.<.:.E * > : 7 8.,.<.<.2.<.<.<.<.&.&.2.2.>.<.<.<.<.>.&.>.3.>.;.",
"<.>.>.<.2.<.>.>.>.<.<.<.<.<.<.<.<.&.<.2.<.<.*.4 5 p = 4 5.<.<.1.8.] ] q.&.<.<.1.<.<.<.<.&.&.&.<.<.<.<.2.2.<.&.&.<.<.>.;.",
"<.<.3.1.<.<.<.<.<.<.<.1.2.<.<.>.<.<.<.<.<.1.2.` p l c ' >.$.<.<.1.1.<.<.2.<.<.>.>.<.<.>.<.<.<.&.&.<.<.2.<.2.<.<.>.>.>.<.",
"$.$.<.1.&.>.<.<.%.$.$.;.1.<.>.<.>.>.%.$.$.<.1.<.>.<.2.<.>.,.<.<.>.>.<.<.<.<.>.<.2.<.>.&.<.1.1.&.;.<.<.>.>.<.1.1.<.;.<.<.",
"o.+.#.&.<.<.<.%.@.X.+.@.$.&.<.<.>.#.o.o.@.#.$.>.<.<.<.>.1.3.1.<.>.>.<.<.&.&.&.2.2.2.<.<.<.>.<.1.3.3.<.>.>.1.<.>.<.1.3.1.",
"+.#.#.%.&.<.<.%.+.+.#.#.#.$.>.<.>.#.o.O.@.#.#.&.<.<.&.;.<.<.<.<.2.2.<.<.>.<.<.2.<.&.&.<.<.&.$.<.<.<.>.1.1.3.<.&.>.<.1.<.",
"&.&.%.&.&.<.<.<.<.&.&.&.%.$.>.<.<.<.>.&.>.$.$.>.<.<.<.<.<.<.;.$.<.<.2.&.2.2.<.&.&.&.2.<.&.&.1.1.>.>.$.>.<.<.>.<.<.3.>.$.",
"1.<.#.@.#.$.<.<.1.1.<.$.#.+.#.>.<.1.<.<.<.$.@.#.$.&.>.>.>.<.<.<.>.<.<.>.<.<.<.<.<.<.>.>.$.>.>.<.<.1.,.<.<.<.>.>.>.<.<.1.",
"<.$.@.@.#.<.>.;.<.&.>.$.+.#.$.<.<.>.>.<.>.#.+.#.;.<.&.$.$.,.<.,.$.$.;.<.<.;.$.$.>.;.>.<.<.&.$.$.>.<.,.$.$.;.>.;.$.$.,.<.",
"$.,.$.$.<.,.,.;.$.&.;.;.$.$.;.<.>.;.;.;.;.;.$.;.<.>.>.;.,.,.;.;.$.,.$.<.$.$.$.$.$.,.;.;.<.$.$.,.,.;.;.;.;.;.>.;.$.,.,.>.",
"#.$.;.$.$.$.$.#.#.$.;.,.;.;.$.$.#.#.@.$.;.;.;.;.$.$.$.;.,.$.@.#.,.,.$.#.$.#.,.$.;.$.;.$.$.$.$.,.;.;.$.$.,.$.$.$.;.,.;.$."
};
